<svg xmlns="http://www.w3.org/2000/svg" viewBox="0 0 703.2 978.42"><defs><style>.cls-1{fill:#01755e;}.cls-2{fill:#fc4a02;}.cls-10,.cls-3{fill:#2d0242;}.cls-4{fill:#fbfafa;}.cls-5{fill:#fbfbfb;}.cls-6{fill:#f7f8f8;}.cls-7{fill:#3a1a67;}.cls-8{fill:#168b66;}.cls-9{fill:#f64d2b;}.cls-10{fill-rule:evenodd;}</style></defs><g id="Capa_2" data-name="Capa 2"><g id="Diseño"><path class="cls-1" d="M345.27,516.21c2.6,0,2.61-4,0-4s-2.6,4,0,4Z"/><path class="cls-2" d="M491.76,232.44c10,10.78,20,21.48,29.86,32.35,19,20.93,37.94,41.89,56,63.66a157,157,0,0,1,26,43.95,69.67,69.67,0,0,1,3.94,34.76c-.06.47-.07.94-.11,1.4-.18.75-.4,1.49-.54,2.25-1.9,10.45-4.78,20.58-11.27,29.2-14.5,19.23-33.13,32.62-56.52,38.95-6.48,1.76-13.07,3.18-19.87,1.92-7.27-1.35-11.3-6.27-11.21-13.6.05-3.79,1.66-7.1,3.15-10.44,2.84-6.41,5.71-12.8,8.56-19.2,1.16-2.47,2.31-4.94,3.49-7.41Q534,407.64,544.75,385c.52-1.1,1.26-2-.42-3-23.92-15.17-48.15-29.8-73.45-42.58-3.4-1.72-6.83-3.36-10.25-5,7.07,9.42,14.38,18.46,21.24,27.84a349.63,349.63,0,0,1,22.6,34.66c-13.58,4.54-25.8,11.79-38,19a130.86,130.86,0,0,1-46.29,17c-14.16,2.27-28.42,2.71-42.71,2.46-2.26,0-4.54.18-6.76-.4a115.36,115.36,0,0,0-14.9-12.76,165.35,165.35,0,0,0-49-25c-18.81-6.1-31.73-18.36-37.93-37.36,0-.08-.24-.09-.54-.19-.5.82-1,1.67-1.53,2.54-8.78,15-17.67,30-27.35,44.41-6.86,10.25-14.32,20.05-22.07,29.64l-1.34,1.08c0-.7,0-1.4,0-2.1-.12-14.71-3.15-28.61-11.44-41-6.84-10.25-16.36-14.43-27.55-12.18,3-8.77,6-17.55,9-26.3q15-43.08,30-86.13c3.34-9.6,7.75-18.57,15.58-25.44a70.76,70.76,0,0,1,17.81-11.08c.78-.35,1.53-.75,2.3-1.13,6.6-2.4,13.21-4.76,19.79-7.22a19.92,19.92,0,0,0,11-9c2.08-3.75,4.18-7.5,6.08-11.34,4.69-9.52,9.28-19.09,13.92-28.64,10.3.95,20.61,1.86,30.91,2.87,7.35.71,14.69,1.56,22,2.34.86,4.51,1.8,9,2.55,13.55.27,1.62.83,1.86,2.32,1.39,4.75-1.52,9.54-2.92,14.33-4.33,13.21-3.92,26.6-6.65,40.51-6a65,65,0,0,1,29.59,8.53c14,8.07,26.26,18.42,37.91,29.53C485.73,226.59,488.74,229.52,491.76,232.44Z"/><path class="cls-3" d="M491.76,232.44c-3-2.92-6-5.85-9.07-8.75-11.65-11.11-23.9-21.46-37.91-29.53a65,65,0,0,0-29.59-8.53c-13.91-.69-27.3,2-40.51,6-4.79,1.41-9.58,2.81-14.33,4.33-1.49.47-2.05.23-2.32-1.39-.75-4.53-1.69-9-2.55-13.55-.65-4.63-1.3-9.26-2-14,1.93-.2,3.86-.34,5.78-.6,10.15-1.37,17.23-7.3,18.87-16.5,2.53-14.19.29-27.94-4.66-41.34a5.44,5.44,0,0,0-4.32-3.53,14.12,14.12,0,0,0-5.57-.16c-6.14,1.12-10.72,4.84-15.06,9-3.39,3.22-6.51,6.74-10.28,9.56a22.22,22.22,0,0,1-10.54,4.72c-1.34.16-2.17.17-2.21-1.58a11.5,11.5,0,0,0-1.16-4.51c-1.15-2.53-2.74-4.6-5.71-5s-4.79,1.54-6.18,3.81a49.09,49.09,0,0,1-6.29,8.12,19.32,19.32,0,0,0-4.74,8.5c-1.37,5.27,2.14,9.71,7.62,9.76,2.29,0,4.31-.85,6.9-2.28-4.67,10.71-9,20.75-13.42,30.8-4.64,9.55-9.23,19.12-13.92,28.64-1.9,3.84-4,7.59-6.08,11.34a19.92,19.92,0,0,1-11,9c-6.58,2.46-13.19,4.82-19.79,7.22a47.33,47.33,0,0,1-19.37-18.49c-9.3-16.39-8.15-32.74.67-48.86,6.57-12,16.52-20.47,28.9-26,10.54-4.7,17.07-12.41,19.8-23.6a64.24,64.24,0,0,1,5.53-15.63,45.47,45.47,0,0,1,53.76-21c9.21,2.92,17.69,7.38,26.08,12.05a23,23,0,0,0,12.46,3.29c5.92-.22,11.7.6,16.89,3.78,5.77,3.54,7.89,9.21,8.91,15.5.87,5.31.95,10.73,2.25,16,2.46,9.87,8.83,15.23,19,16.21,6.7.66,13.24-.48,19.76-1.64,18.26-3.24,34.44,1.05,48.18,13.54,21.82,19.84,20.83,55.71-1.91,74.51Z"/><path class="cls-4" d="M397.57,668.36c-8.57-32.93,3.59-58.91,27.44-80.75,11.79-10.79,25.64-18.43,40.28-24.67l1.49-.68.51-.33,0,0c6.32-2.19,12.62-4.44,19-6.55,13.52-4.51,27.2-8.58,40.06-14.86,14.89-7.28,27.17-17.22,34.56-32.52,2.5-5.17,5.66-10,8.51-15,.81,12.36-3.71,22.88-11.24,32.33-4.12,5.17-9.24,9.27-14.45,13.25a136.17,136.17,0,0,1-26.58,13.64c-11.21,4.34-22.74,7.72-34.09,11.63-6.77,2.33-13.58,4.59-20,7.9a124.85,124.85,0,0,0-37.74,25.16c-10.86,10.7-18.59,23.22-22,38.2-2.08,9.16-2.48,18.36.16,27.52.1.54.14,1.09.29,1.61a53,53,0,0,0,19.08,27.9c10.08,7.68,21.76,11.35,34.11,13.15a144.55,144.55,0,0,0,22.14,1.4,3.63,3.63,0,0,0-1.23-2.11,261,261,0,0,0-29.35-30.49c-7.72-6.87-10.57-15.34-9-25.46,1.08-7,3.18-13.82,4.93-20.69,1-4.05,2.73-7.92,3.24-12.1h-.05c.51,0,.45-.42.46-.76.33-.87.68-1.73,1-2.61,3-9.06,5.74-18.21,9.28-27.08a119.21,119.21,0,0,0,47.85,19.89L495,625.56c-2.6,4.71-5.13,9.46-7.84,14.11-1,1.72-.91,2.47,1.06,3.37,6.4,2.91,12.56,6.25,17.74,11.16,6.17,5.86,9.17,13.43,11.74,21.27.1.29.15.6.24.9,1.24,4.2,1.24,4.2,5.2,2.07.21-.11.4-.25.6-.36,2.91-1.64,2.89-1.63,1.45-4.52a9.61,9.61,0,0,1-1.09-6.12c.6-3.14,3.38-4.4,5.95-2.57a32.82,32.82,0,0,1,9.71,10.63c2,3.48,1.46,5.84-1.43,8.57-.74.7-1.53,1.34-2.27,2-1.78,1.65-2.83,3.72-2.18,6.09,1.38,5,1.3,9.54-3.19,13.8,6.41.16,96.15.3,101.8.45a42,42,0,0,1-.12,7.09c-5.15-.15-94.37-.29-99.52-.48-1.15,0-1.53.44-2.17,1.45-2.3,3.61-1.15,6.17,1.59,8.9a12.91,12.91,0,0,1,3.51,7.52c.61,4.49-1.5,7.22-6,7.13-5-.1-10-.64-14.92-1.1-2.64-.25-5.27-.64-7.87-1.14A18.73,18.73,0,0,1,495.16,728q-4.61-6.35-9-12.8a3.26,3.26,0,0,0-3.09-1.55c-12.27.2-24.49-.28-36.49-3.18-15.94-3.84-29.68-11.23-39.74-24.57A67.84,67.84,0,0,1,397.57,668.36Z"/><path class="cls-3" d="M18.39,155.23l-3.6-40.57c-.57-6.33-1.14-12.67-1.2-19.2L44,140.37c3-11.8,5.83-23,8.81-34.82L71.49,133.3c5.61-24.48,11.12-48.5,16.63-72.52l.36,0c.77,3.33,1.57,6.65,2.31,10q6.36,28.67,12.7,57.34c.14.64-.1,1.64.74,1.79s1.06-.83,1.46-1.36c4.9-6.36,9.76-12.74,15-19.65,1.88,11.51,3.66,22.43,5.53,34l29.14-37.53.45.17-6.69,48.23,29.59-16.13c-1,2.29-1.77,4-2.56,5.75q-9.75,21.52-19.53,43a38.58,38.58,0,0,0-3.59-2.57c-10.41-6-21.76-8.1-33.61-7.83-2.6.06-5.32.51-7,3-2.43,2.41-3.32,5.55-4.14,8.72-.77,3-.47,6-.44,9.07,0,1.37-.32,1.94-1.89,1.72-2.69-.37-5.42-.46-8.13-.67-1.94-4.66-4-5-7.67-1.41a.86.86,0,0,1-.2.13l-7.16-1.12a28.49,28.49,0,0,0,1.4-3.69c.81-3.44-1.63-5.91-5-5.1a12.68,12.68,0,0,0-3.41,1.46c-2.28,1.33-4.49,2.78-6.74,4.17l-14.3-4.14a25.12,25.12,0,0,0-1.67-7.55A25.65,25.65,0,0,0,54.37,168c-.13-3.73-2.86-5.33-5.69-6.71A60.06,60.06,0,0,0,18.39,155.23Z"/><path class="cls-5" d="M262.33,618.43q-6.81,8.31-13.62,16.63c-15.94,19.52-31,39.63-43,61.88-5.42,10.07-9.91,20.47-11.36,31.94-.26,2-.35,4-.52,6-8.81,5.47-17.22,11.6-26.55,16.2-6.56,3.23-13.39,5.21-20.8,3.88a18.35,18.35,0,0,1-6.56-2.37c-7-4.35-6.75-13.34.44-17.31.51-.29,1-.53,1.66-.85-5.38-2.15-5.82-7.48.1-11.23-2.26-.83-4-2.14-3.8-4.74.2-3.4,2.72-4.84,5.73-6.16-2.58-1.45-4-3.41-3.22-6.28.77-2.66,3-3.78,5.43-4.69-3.45-3.4-3.12-6.45,1-9.11s8.74-4.12,13.1-6.21c3.86-1.85,7.75-3.64,11.46-5.82,15-8.83,16.91-23.25,12.18-36.42-2.49-7-6.83-12.76-11.73-18.18,4.39-10.46,8.64-21,12.1-31.79.94-3,1.86-5.92,2.78-8.89.52.16,1.05.3,1.55.49A748.83,748.83,0,0,1,262.33,618.43Z"/><path class="cls-5" d="M362.53,957.89c-1,6-2.94,13.94-8.71,20.53h64.67a333.29,333.29,0,0,0-2.76-62.15c-.35-.42-1.8.39-2.17,0-2.25,2.14-9.67,1.05-11.93,3.18-15.69,5.86-31.61,9.84-40.53,16.86C362.76,943.42,363.72,950.61,362.53,957.89Z"/><path class="cls-6" d="M519.71,437.64c-2.85,6.4-5.72,12.79-8.56,19.2-1.49,3.34-3.1,6.65-3.15,10.44-.09,7.33,3.94,12.25,11.21,13.6,6.8,1.26,13.39-.16,19.87-1.92,23.39-6.33,42-19.72,56.52-38.95,6.49-8.62,9.37-18.75,11.27-29.2.14-.76.36-1.5.54-2.25,3.68,4.75,4,10.18,3,15.77-1.65,9.72-6.94,17.55-13.12,24.91-3.16,3.76-6.7,7.17-10.06,10.74-.6.48-1.22.94-1.8,1.45C568.88,476,550,485.66,527.88,488.1c-10.62,1.17-19.86-1.49-25.39-11.73-3.64-10-.65-18.81,5.22-27.62-4.79,1.71-9.1,3.22-13.4,4.77-19.42,7.05-38.71,14.49-58.7,19.86a359.82,359.82,0,0,1-74.07,11.83c-43.89,2.35-86.76-3-128.5-16.94-8.95-3-17.76-6.36-26.37-10.24a4.31,4.31,0,0,0-3.94,0c-4.45,2.05-9.09,1.87-13.75.73,3.94-2.51,8-4.76,11.86-7.47a17.4,17.4,0,0,0,7.74-12.82c1.22-12.1-1.28-23.59-6.51-34.49-2.57-5.34-5.93-10.1-11.15-13.25-8.23-5-16.62-1.72-19.4,7.5a2,2,0,0,0,.25,2.14c6.32,8,9.07,17.5,11,27.27a155,155,0,0,1,2.75,32.6c-.67,10.15-2,20.16-5.59,29.77-2.34,6.35-5.32,12.31-10.16,17.17-11.34,11.38-26.58,10.83-37.15-1.31-5.46-6.26-8-13.84-9.84-21.71a122,122,0,0,1-3.25-32c0-.46-.06-.93-.09-1.4.08-.25.16-.5.23-.75l6.94,6.83c-.09,12.69,1.78,25.05,6.57,36.84a24.1,24.1,0,0,0,11.28,12.69c5.82,3.05,11.39,2.63,16.76-1.1a27.75,27.75,0,0,0,8.8-10.18,75.32,75.32,0,0,0,8.1-31.7c.1-.85.26-1.69.29-2.54a136.5,136.5,0,0,0-3.29-35.54c-1.55-6.73-3.73-13.23-7.77-19.18a42.81,42.81,0,0,1-2.19,3.77c-10.53,14.62-25.24,21.44-42.83,22.82-4.63.37-9.1-.74-13.6-1.52l0,0c.18-.46-.22-.34-.42-.42-5.38-2.41-9.84-5.81-11.69-11.68-2-6.47-.61-12.45,3-18.05,1,4.17,2,8.34,3,12.49,1.84,7.33,5.51,10.49,13.07,11.62s14.62-.2,21.53-2.91c8.55-3.34,16.3-7.92,21.56-15.75,2.52-3.75,4.4-7.92,3.59-12.52s-3.06-8.55-4.45-12.6c-18.09,14.86-37.75,19.36-59.8,10.62-4-2.41-7.36-5.34-8.56-10C88,375.51,90.46,370.4,95,366c.45,3.71,1.1,7.41,1.3,11.14.23,4.31,2.59,6.83,6.19,8.6a23.48,23.48,0,0,0,5.27,1.88,50,50,0,0,0,31-2.75c4.7-1.95,9.16-4.35,12.66-8.19a7.77,7.77,0,0,0,1.7-8.82c-1.48-3.68-2.6-7.5-3.87-11.26a15,15,0,0,1,10.92,20.14c-.25.68-.92,1.38.12,2a20.52,20.52,0,0,1,8.21,9.92,21.5,21.5,0,0,1,8.63-6.6c11.19-2.25,20.71,1.93,27.55,12.18,8.29,12.42,11.32,26.32,11.44,41,0,.7,0,1.4,0,2.1-.82,5.28-2.22,10.34-5.69,14.72,1.26.57,2.32,1.06,3.39,1.51,43.8,18.26,89.48,26.27,136.84,25.14a349.47,349.47,0,0,0,87.69-13.3c27.09-7.73,53-18.92,79.81-27.46Z"/><path class="cls-4" d="M53.06,180.56a24.8,24.8,0,0,1,1.66,7.55,63.52,63.52,0,0,1-1.19,9.52c-.53,2.45-1,5,.07,7.38,1.61,3.78,3.36,7.51,5,11.26A40.18,40.18,0,0,0,60,209.14c1.69-12.36-.06-9.56,9-16.89,2.25-1.39,4.46-2.84,6.74-4.17a12.68,12.68,0,0,1,3.41-1.46c3.42-.81,5.86,1.66,5,5.1a28.49,28.49,0,0,1-1.4,3.69,21.46,21.46,0,0,1-5.18,5,6.07,6.07,0,0,0-2.47,2.74c-1.73,4.32-1.33,8.86-1.09,13.48L90,196.53a.86.86,0,0,0,.2-.13c3.67-3.63,5.73-3.25,7.67,1.41a15.36,15.36,0,0,1-2.14,8.5c-2.55,4.73-5.27,9.37-8.2,13.89C85,224.05,85,224,89.23,225.61c6,2.25,11.92,4.83,18.63,4.86a104.8,104.8,0,0,0,17.71-1.06c0,.31,0,.63.1.93,2.24,10.34,2.27,20.43-3,30a12.59,12.59,0,0,0-1,8,55.58,55.58,0,0,0,2,7.95q3.15,10.52,6.26,21.05a84.18,84.18,0,0,1-39.35,7.78q-.69-10.62-1.37-21.24c-.35-5.53-.63-11.07-1-16.6-.42-6-3-10.74-8.31-13.82-6.48-3.77-13.2-7.08-20-10.24-3.65-1.71-6.83-3.76-8.38-7.69a2.55,2.55,0,0,0-1.25-1.32c-11.28-6.42-21.45-14.48-32.2-21.7-3.43-2.31-6.84-4.64-10.26-7-1.64-1.12-3.24-2.34-2.87-4.66.3-1.87,2.4-3.33,5-3.64a14.94,14.94,0,0,1,7.07,1.25A18.22,18.22,0,0,1,18.94,200a83,83,0,0,0,22.21,15c.62.29,1.24,1,2.19.43-.54-1.71-1.05-3.41-1.6-5.11-1-3.05-2-6.16-1.54-9.39a103,103,0,0,1,5.16-20.83c1.1-3,4.1-3.46,6.34-1.13C52.19,179.46,52.61,180,53.06,180.56Z"/><path class="cls-2" d="M502.49,476.37c5.53,10.24,14.77,12.9,25.39,11.73,22.12-2.44,41-12.12,57.58-26.67.58-.51,1.2-1,1.8-1.45-2.21,5.16-5.23,9.89-7.88,14.81-3.28,6.1-6.67,12.15-10,18.22-2.85,5-6,9.84-8.51,15-7.39,15.3-19.67,25.24-34.56,32.52-12.86,6.28-26.54,10.35-40.06,14.86-6.35,2.11-12.65,4.36-19,6.55.57-4.15,2.57-7.82,4.06-11.65,6.52-16.71,13.39-33.28,20.44-49.78,3.19-7.46,6.45-14.89,9.7-22.32A17.43,17.43,0,0,1,502.49,476.37Z"/><path class="cls-2" d="M90.49,305.17a84.18,84.18,0,0,0,39.35-7.78c.27.73.56,1.44.79,2.17q2.48,7.71,4.92,15.42a30.43,30.43,0,0,0,2.21,6.7c1.61,6.48,4,12.73,6,19.07,1.73,5.31,3.6,10.58,5.42,15.87,1.27,3.76,2.39,7.58,3.87,11.26a7.77,7.77,0,0,1-1.7,8.82c-3.5,3.84-8,6.24-12.66,8.19a50,50,0,0,1-30.95,2.75,23.48,23.48,0,0,1-5.27-1.88c-3.6-1.77-6-4.29-6.19-8.6-.2-3.73-.85-7.43-1.3-11.14Q92.34,340.9,91,315.68A90,90,0,0,1,90.49,305.17Z"/><path class="cls-7" d="M640.42,704.24c0-5.47,0-10.94.07-16.4,0-5.74,3-9,8.77-9q22.72-.11,45.45,0c5.43,0,8.48,3.27,8.48,8.72q0,22.73,0,45.45c0,5.15-3.11,8.43-8.24,8.45q-23.19.07-46.38,0c-4.74,0-8-3.37-8-8.22-.07-5.7,0-11.4,0-17.1,1.56,0,3.12-.09,4.68-.08,4.07,0,4.49.33,5.47,4.22a4.86,4.86,0,0,0,3.39,3.8c3.19,1,6.31,2.27,9.6,3,4.7,1,9.4,1.56,14-.2,2-.73,3.13-1.86,3.08-4.31-.15-8.82-.11-17.64,0-26.46a3.5,3.5,0,0,0-3.12-3.91,29.24,29.24,0,0,0-3.23-.48c-7-.77-13.36,1.73-19.76,4-2.44.88-3.9,2.37-3.94,5.16a3,3,0,0,1-3,3.22A41.71,41.71,0,0,1,640.42,704.24Z"/><path class="cls-2" d="M463,571.76c6.39-3.31,13.2-5.57,20-7.9,11.35-3.91,22.88-7.29,34.09-11.63a136.17,136.17,0,0,0,26.58-13.64q-8.83,15.85-17.66,31.69-9.21,16.44-18.45,32.87c-.42.74-.92,1.43-1.39,2.15a119.21,119.21,0,0,1-47.85-19.89Z"/><path class="cls-2" d="M108.78,431.14c4.5.78,9,1.89,13.6,1.52,17.59-1.38,32.3-8.2,42.83-22.82a42.81,42.81,0,0,0,2.19-3.77c4,5.95,6.22,12.45,7.77,19.18a136.5,136.5,0,0,1,3.29,35.54c0,.85-.19,1.69-.29,2.54-1.06.29-2.11.56-3.16.87-11.2,3.26-22.4,3.74-33.64.17-5.34-1.7-10.05-4.59-14.71-7.59L119.72,450a71.75,71.75,0,0,1-10.17-16.43A4,4,0,0,1,108.78,431.14Z"/><path class="cls-2" d="M125.57,229.41a104.8,104.8,0,0,1-17.71,1.06c-6.71,0-12.59-2.61-18.63-4.86C85,224,85,224.05,87.52,220.2c2.93-4.52,5.65-9.16,8.2-13.89a15.36,15.36,0,0,0,2.14-8.5c2.71.21,5.44.3,8.13.67,1.57.22,1.9-.35,1.89-1.72,0-3-.33-6.08.44-9.07.82-3.17,1.71-6.31,4.14-8.72.83,4.18,4.28,5.9,7.41,7.93A64.7,64.7,0,0,0,148.51,195c3.84.17,7.7.41,10.93-2.33a17.56,17.56,0,0,1-7.25,17.28c-.39.25-.79.49-1.16.77a20.54,20.54,0,0,0-3.22,3.68c-1.53,1.87,1,2.85.83,4.39a10.71,10.71,0,0,1-1.73,6.2c-2.19,2.23-4.85,1.44-7.44,1.2-1.42-.13-2.83-.89-4.3-.13A47.34,47.34,0,0,1,125.57,229.41Z"/><path class="cls-2" d="M98.16,392c22,8.74,41.71,4.24,59.8-10.62,1.39,4.05,3.67,8.11,4.45,12.6s-1.07,8.77-3.59,12.52c-5.26,7.83-13,12.41-21.56,15.75-6.91,2.71-14,4-21.53,2.91s-11.23-4.29-13.07-11.62c-1-4.15-2-8.32-3-12.49Z"/><path class="cls-2" d="M53.06,180.56c-.45-.54-.87-1.1-1.36-1.61-2.24-2.33-5.24-1.91-6.34,1.13a103,103,0,0,0-5.16,20.83c-.45,3.23.55,6.34,1.54,9.39.55,1.7,1.06,3.4,1.6,5.11-1,.59-1.57-.14-2.19-.43a83,83,0,0,1-22.21-15,18.22,18.22,0,0,0-2.05-1.49c-.62-1.85-2.24-2.93-3.42-4.33-8.07-9.45-9.13-20-4.92-31.31a9.34,9.34,0,0,1,2-3.38c.59,2.8,2.64,4.26,5,5.46a11.85,11.85,0,0,0,1.56,1c9.53,4.25,19.43,6.29,29.89,5.11,2.7-.42,5.35-1,7.35-3.08A25.65,25.65,0,0,1,53.06,180.56Z"/><path class="cls-2" d="M640.42,704.24a41.71,41.71,0,0,0,7.24-.15,3,3,0,0,0,3-3.22c0-2.79,1.5-4.28,3.94-5.16,6.4-2.28,12.75-4.78,19.76-4a29.24,29.24,0,0,1,3.23.48,3.5,3.5,0,0,1,3.12,3.91c-.09,8.82-.13,17.64,0,26.46,0,2.45-1.12,3.58-3.08,4.31-4.65,1.76-9.35,1.22-14,.2-3.29-.72-6.41-1.95-9.6-3a4.86,4.86,0,0,1-3.39-3.8c-1-3.89-1.4-4.19-5.47-4.22-1.56,0-3.12.05-4.68.08-1.76,0-3.53-.17-5.28-.11s-2.76-.66-2.81-2.49a42,42,0,0,0,.12-7.09c.2-1.83,1.23-2.48,3-2.32C637.15,704.26,638.79,704.2,640.42,704.24Z"/><path class="cls-6" d="M146.91,225a10.71,10.71,0,0,0,1.73-6.2c16.24,1.62,25.71,11,28.07,28.13,2.55,18.47-3,34.82-13.55,49.75-6.95,9.86-15.75,17.88-25.4,25a30.43,30.43,0,0,1-2.21-6.7c11.31-8.47,21.07-18.35,27.67-31,6.4-12.25,9.28-25.15,6.43-38.93-2.17-10.52-7.79-17.73-19.09-19.3C149.33,225.59,148.13,225.24,146.91,225Z"/><path class="cls-6" d="M119.87,186.9c-3.13-2-6.58-3.75-7.41-7.93,1.68-2.51,4.4-3,7-3,11.85-.27,23.2,1.84,33.61,7.83a38.58,38.58,0,0,1,3.59,2.57c1.4,1.89,2.87,3.76,2.78,6.31-3.23,2.74-7.09,2.5-10.93,2.33,1.49-.82,3.74-.84,3.93-3.11s-1.44-3.42-3-4.41c-8.21-5.22-17.13-7.63-26.84-6.14C118.93,181.9,118.26,183.59,119.87,186.9Z"/><path class="cls-6" d="M54.37,168c-2,2.09-4.65,2.66-7.35,3.08,1-2.27.72-3.46-1.8-4.94A36.62,36.62,0,0,0,19,161.93c-1.58.31-3.15,1-3.39,3-2.33-1.2-4.38-2.66-5-5.46,1.85-2.78,4.88-3.41,7.79-4.28a60.06,60.06,0,0,1,30.29,6.07C51.51,162.68,54.24,164.28,54.37,168Z"/><path class="cls-8" d="M108.4,430.76c.2.08.6,0,.42.42Z"/><path class="cls-2" d="M185.57,460.21a155,155,0,0,0-2.75-32.6c-2-9.77-4.73-19.25-11-27.27a2,2,0,0,1-.25-2.14c2.78-9.22,11.17-12.48,19.4-7.5,5.22,3.15,8.58,7.91,11.15,13.25,5.23,10.9,7.73,22.39,6.51,34.49a17.4,17.4,0,0,1-7.74,12.82c-3.82,2.71-7.92,5-11.86,7.47Z"/><path class="cls-8" d="M467.29,561.93l-.51.33Z"/><path class="cls-3" d="M518.1,438c-26.82,8.54-52.72,19.73-79.81,27.46a349.47,349.47,0,0,1-87.69,13.3c-47.36,1.13-93-6.88-136.84-25.14-1.07-.45-2.13-.94-3.39-1.51,3.47-4.38,4.87-9.44,5.69-14.72l1.34-1.08c5.06-.27,10.13-.57,15.19-.79,22.62-1,45.23-2,67.88-2.14,13.5-.07,27,0,40.51.44,9.91.3,19.79,1.23,29.71,1.16,2.22.58,4.5.36,6.76.4,14.29.25,28.55-.19,42.71-2.46a130.86,130.86,0,0,0,46.29-17c12.22-7.24,24.44-14.49,38-19,.44.73.91,1.45,1.31,2.2A117,117,0,0,1,518.1,438Z"/><path class="cls-4" d="M302.54,175.77c4.37-10.05,8.75-20.09,13.42-30.8-2.59,1.43-4.61,2.3-6.9,2.28-5.48-.05-9-4.49-7.62-9.76a19.32,19.32,0,0,1,4.74-8.5,49.09,49.09,0,0,0,6.29-8.12c1.39-2.27,3.16-4.18,6.18-3.81s4.56,2.44,5.71,5a11.5,11.5,0,0,1,1.16,4.51c0,1.75.87,1.74,2.21,1.58a22.22,22.22,0,0,0,10.54-4.72c3.77-2.82,6.89-6.34,10.28-9.56,4.34-4.11,8.92-7.83,15.06-9a14.12,14.12,0,0,1,5.57.16,5.44,5.44,0,0,1,4.32,3.53c4.95,13.4,7.19,27.15,4.66,41.34-1.64,9.2-8.72,15.13-18.87,16.5-1.92.26-3.85.4-5.78.6.67,4.7,1.32,9.33,2,14-7.34-.78-14.68-1.63-22-2.34C323.15,177.63,312.84,176.72,302.54,175.77Zm69.58-34a25,25,0,0,0-.5-6.2c-.4-2-1.13-3.81-3.63-3.91a1.71,1.71,0,0,1-1.35-.81c-1.32-1.87-3.2-1.91-5-1.26a93.4,93.4,0,0,0-13.36,6.18c-1.14.63-1,1.08-.16,1.85,5.33,4.79,11.33,8.4,18.5,9.37,6.32.86,5.35,1.26,5.54-4.67C372.13,142.28,372.12,142.21,372.12,141.81Z"/><path class="cls-3" d="M447.66,615.85c-3.28,2.87-5.78,6.45-8.65,9.69-11.37,12.82-23.12,25.28-35.53,37.1-2.64-9.16-2.24-18.36-.16-27.52,3.38-15,11.11-27.5,22-38.2A124.85,124.85,0,0,1,463,571.76l-4.71,13.65c-3.54,8.87-6.29,18-9.28,27.08-.29.88-.64,1.74-1,2.61a.78.78,0,0,0-.46.76Z"/><path class="cls-9" d="M447.61,615.86a.78.78,0,0,1,.46-.76C448.06,615.44,448.12,615.82,447.61,615.86Z"/><path class="cls-2" d="M69,192.25c-9.06,7.33-7.31,4.53-9,16.89a40.18,40.18,0,0,1-1.38,7.13c-1.69-3.75-3.44-7.48-5-11.26-1-2.41-.6-4.93-.07-7.38a63.52,63.52,0,0,0,1.19-9.52Z"/><path class="cls-2" d="M90,196.53,74.09,216.6c-.24-4.62-.64-9.16,1.09-13.48a6.07,6.07,0,0,1,2.47-2.74,21.46,21.46,0,0,0,5.18-5Z"/><path class="cls-3" d="M126.66,456.78c4.66,3,9.37,5.89,14.71,7.59,11.24,3.57,22.44,3.09,33.64-.17,1.05-.31,2.1-.58,3.16-.87a75.32,75.32,0,0,1-8.1,31.7,27.75,27.75,0,0,1-8.8,10.18c-5.37,3.73-10.94,4.15-16.76,1.1a24.1,24.1,0,0,1-11.28-12.69C128.44,481.83,126.57,469.47,126.66,456.78Z"/><path class="cls-7" d="M119.87,186.9c-1.61-3.31-.94-5,2.74-5.57,9.71-1.49,18.63.92,26.84,6.14,1.55,1,3.16,2.28,3,4.41s-2.44,2.29-3.93,3.11A64.7,64.7,0,0,1,119.87,186.9Z"/><path class="cls-7" d="M15.57,165c.24-2,1.81-2.73,3.39-3a36.62,36.62,0,0,1,26.26,4.22c2.52,1.48,2.78,2.67,1.8,4.94-10.46,1.18-20.36-.86-29.89-5.11A11.85,11.85,0,0,1,15.57,165Z"/><path class="cls-9" d="M372.12,141.81c0,.4,0,.47,0,.55-.19,5.93.78,5.53-5.54,4.67-7.17-1-13.17-4.58-18.5-9.37-.86-.77-1-1.22.16-1.85a93.4,93.4,0,0,1,13.36-6.18c1.84-.65,3.72-.61,5,1.26a1.71,1.71,0,0,0,1.35.81c2.5.1,3.23,1.93,3.63,3.91A25,25,0,0,1,372.12,141.81ZM369,138.36c-.88-4-3.71-5.43-8.09-4.21-2.49.83-5,1.64-7.46,2.52-1.29.46-.48,1.08.07,1.42a5.09,5.09,0,0,0,3.85.3,10.2,10.2,0,0,1,10.58,3.74c.27.32.41.88,1.2.72A11.17,11.17,0,0,0,369,138.36Z"/><path class="cls-7" d="M369,138.36a11.17,11.17,0,0,1,.15,4.49c-.79.16-.93-.4-1.2-.72a10.2,10.2,0,0,0-10.58-3.74,5.09,5.09,0,0,1-3.85-.3c-.55-.34-1.36-1-.07-1.42,2.47-.88,5-1.69,7.46-2.52,2.18,2.06,5.3,2.41,7.64,4.19C368.62,138.42,368.82,138.36,369,138.36Z"/><path class="cls-6" d="M369,138.36c-.15,0-.35.06-.45,0-2.34-1.78-5.46-2.13-7.64-4.19C365.26,132.93,368.09,134.41,369,138.36Z"/><path class="cls-3" d="M46.13,34.08l0-.12c-.06-.23.1-.63.48-1.21A2.11,2.11,0,0,0,46.94,31L41.68,9.92a2.11,2.11,0,0,0-1.12-1.35c-.6-.33-.94-.61-1-.85l0-.11c-.09-.36.15-.62.72-.76l8.53-2.12a18.09,18.09,0,0,1,12.72,1,12.69,12.69,0,0,1,7,8.62A13.51,13.51,0,0,1,67,25.45a15.32,15.32,0,0,1-9.56,6.4L47.12,34.41Q46.27,34.62,46.13,34.08Zm10.51-4.14a10.25,10.25,0,0,0,6.55-4.56,10.2,10.2,0,0,0,1-8.11,14,14,0,0,0-6-8.72,12,12,0,0,0-9.81-1.62l-1.08.27c-.88.22-1.2.81-1,1.76l4.83,19.41a3.06,3.06,0,0,0,1.13,1.88,2.18,2.18,0,0,0,1.88.3Z"/><path class="cls-3" d="M73,5.38a2.77,2.77,0,0,1-1.11-2.06,2.77,2.77,0,0,1,.71-2.24A3.42,3.42,0,0,1,74.94,0a3.31,3.31,0,0,1,2.41.61,2.88,2.88,0,0,1,1.1,2.07,2.83,2.83,0,0,1-.7,2.24A3.28,3.28,0,0,1,75.5,6,3.4,3.4,0,0,1,73,5.38Zm.76,22.79,0-.16c0-.23.19-.6.64-1.1A2.06,2.06,0,0,0,75,25.28L74,14.85a2.48,2.48,0,0,0-.9-1.64c-.54-.48-.82-.81-.83-1v-.12c0-.21.19-.47.65-.78L76.71,9a1.21,1.21,0,0,1,1.05-.16.83.83,0,0,1,.45.7l1.45,15.33a2,2,0,0,0,1,1.48c.59.4.89.72.92,1v.16c0,.39-.23.62-.82.68l-6,.57C74.12,28.74,73.83,28.57,73.79,28.17Z"/><path class="cls-3" d="M103.92,26.27c.46.48.68.84.68,1.08v.16c0,.4-.3.59-.89.58L97.86,28c-.58,0-.87-.22-.86-.62v-.16c0-.24.26-.58.76-1a2,2,0,0,0,.74-1.57l-.23-7.72c-.09-4.4-1.45-6.63-4.06-6.69a3.79,3.79,0,0,0-3.07,1.31A5.38,5.38,0,0,0,89.91,15l-.21,9.39A2,2,0,0,0,90.49,26c.53.46.8.82.79,1.06v.16c0,.4-.31.59-.89.58l-6.2-.14c-.56,0-.84-.22-.83-.62v-.16c0-.24.28-.58.82-1A2,2,0,0,0,85,24.32l.24-10.71a1.71,1.71,0,0,0-.44-1.25,5.85,5.85,0,0,0-.88-.81.83.83,0,0,1-.43-.66v-.12c0-.27.25-.51.73-.71l3.92-1.79c.43-.18.75-.19.94,0A.91.91,0,0,1,89.4,9l-.06,2.6a6.08,6.08,0,0,1,2.5-2.5,7.53,7.53,0,0,1,8.81,1.39c1.38,1.44,2.13,3.65,2.25,6.61l.32,7.57A2.35,2.35,0,0,0,103.92,26.27Z"/><path class="cls-3" d="M127.07,12.79c.28.16.43.32.44.48a.83.83,0,0,1-.19.54,1.26,1.26,0,0,1-.77.55,5.25,5.25,0,0,1-1.36.09,9,9,0,0,0-1.16,0,7.92,7.92,0,0,1,1.37,2.72,6.54,6.54,0,0,1,.18,3,7.49,7.49,0,0,1-2,3.94,8.17,8.17,0,0,1-3.85,2.22c3.12,1.34,4.46,3.2,4,5.59a4.76,4.76,0,0,1-3.42,3.68,13.64,13.64,0,0,1-7.09.34A11.58,11.58,0,0,1,107,33a5,5,0,0,1-1.73-4.44,2,2,0,0,1,.73-1.23,1.85,1.85,0,0,1,1.49-.28,1.66,1.66,0,0,1,1.21.87,6.07,6.07,0,0,1,.65,1.68,18.09,18.09,0,0,0,.61,1.95,4.45,4.45,0,0,0,1.32,1.82,5.76,5.76,0,0,0,6.09.58,3.76,3.76,0,0,0,1.81-2.7,4.3,4.3,0,0,0-.43-3,3.7,3.7,0,0,0-2.32-1.72,13.31,13.31,0,0,1-1.47-.18A9.38,9.38,0,0,1,109,23a7.1,7.1,0,0,1-1.58-6A7.64,7.64,0,0,1,111,11.69a9.53,9.53,0,0,1,6.94-1.1c.7.13,1.78.39,3.23.78s3,.74,4.65,1A4.1,4.1,0,0,1,127.07,12.79Zm-14.25,9.14q1.07,2.68,3.12,3.05a3.55,3.55,0,0,0,3.1-.78A5.16,5.16,0,0,0,120.7,21a10.89,10.89,0,0,0-.45-6A4.41,4.41,0,0,0,116.92,12a3.36,3.36,0,0,0-3,.79,5.29,5.29,0,0,0-1.6,3.15A10.93,10.93,0,0,0,112.82,21.93Z"/><path class="cls-3" d="M127.35,32.51a2.57,2.57,0,0,1-.25-2.27,2.61,2.61,0,0,1,1.44-1.8,3.33,3.33,0,0,1,2.36-.08,3.27,3.27,0,0,1,1.9,1.33,3,3,0,0,1-1.19,4.07,3.34,3.34,0,0,1-2.32.09A3.4,3.4,0,0,1,127.35,32.51Zm7.3-25.86a1.48,1.48,0,0,1,.82-1,2.4,2.4,0,0,1,1.38-.23,5.43,5.43,0,0,1,1.43.4,2.16,2.16,0,0,1,1,.91A1.57,1.57,0,0,1,139.46,8q-1,3.18-3,8.59t-3.84,9.17c-.19.36-.57.46-1.13.29s-.83-.45-.79-.86A158.18,158.18,0,0,1,134.65,6.65Z"/><path class="cls-3" d="M136.48,35.37a2.59,2.59,0,0,1-.1-2.27A2.67,2.67,0,0,1,138,31.39a3.34,3.34,0,0,1,2.36.09,3.24,3.24,0,0,1,1.8,1.46,2.64,2.64,0,0,1,.09,2.31,2.59,2.59,0,0,1-1.56,1.66,3.27,3.27,0,0,1-2.32-.07A3.32,3.32,0,0,1,136.48,35.37Zm9.06-25.29a1.49,1.49,0,0,1,.89-.9,2.26,2.26,0,0,1,1.39-.13,5.23,5.23,0,0,1,1.39.49,2.16,2.16,0,0,1,1,1,1.51,1.51,0,0,1,.07,1.26c-.79,2.07-2,4.85-3.58,8.36S143.58,26.6,142.2,29c-.22.35-.6.42-1.15.22s-.79-.51-.73-.91A158.09,158.09,0,0,1,145.54,10.08Z"/><path class="cls-3" d="M145.41,38.87a2.62,2.62,0,0,1,.06-2.28A2.67,2.67,0,0,1,147.16,35a3.41,3.41,0,0,1,2.34.25,3.3,3.3,0,0,1,1.7,1.58,3,3,0,0,1-1.74,3.87,3.36,3.36,0,0,1-2.31-.23A3.42,3.42,0,0,1,145.41,38.87Zm10.79-24.6a1.48,1.48,0,0,1,1-.84,2.38,2.38,0,0,1,1.4,0,4.78,4.78,0,0,1,1.35.59,2.13,2.13,0,0,1,.89,1,1.5,1.5,0,0,1,0,1.26q-1.4,3-4.15,8.08t-5.06,8.56c-.24.33-.63.38-1.16.14s-.76-.56-.67-1A159,159,0,0,1,156.2,14.27Z"/><path class="cls-10" d="M507.71,448.75c-4.79,1.71-9.1,3.22-13.4,4.77-19.42,7.05-38.71,14.49-58.7,19.86a359.82,359.82,0,0,1-74.07,11.83c-43.89,2.35-86.76-3-128.5-16.94-8.95-3-17.76-6.36-26.37-10.24a4.31,4.31,0,0,0-3.94,0c-4.45,2.05-9.09,1.87-13.75.73l-3.41,1.48c-.67,10.15-2,20.16-5.59,29.77-2.34,6.35-5.32,12.31-10.16,17.17-11.34,11.38-26.58,10.83-37.15-1.31-5.46-6.26-8-13.84-9.84-21.71a122,122,0,0,1-3.25-32c0-.46-.06-.93-.09-1.4-18.73,5.06-36.92,11.56-54.11,20.68-14.64,7.77-28.1,17.15-39.46,29.34C9.25,518.63-.37,539.47,0,564.31c.35,22.94,9.29,41.52,28.21,55,8.57,6.13,17.56,11.65,25.88,18.15,17.16,13.43,31.62,29.18,42.16,48.37,1.85,3.35,3.52,6.8,5.54,10,3.34,5.33,8.07,6.75,14,4.49a34.82,34.82,0,0,0,8.48-4.9c11.8-8.92,20.2-20.72,28-33a334.72,334.72,0,0,0,20-36.81c4.39-10.46,8.64-21,12.1-31.79.94-3,1.86-5.92,2.78-8.89a439.13,439.13,0,0,0-45.23-15.21,85.72,85.72,0,0,1-10.68-3.48c5-.38,10-.81,15-1.13,29.57-1.88,59.17-1.17,88.76-1.23,23.75,0,47.49.08,71.23.14.58,0,1.24-.32,1.95.41-2.16,2.5-4.35,5-6.49,7.53q-18.86,22.38-37.71,44.78c-.49.59-1.07,1.11-1.61,1.66q-6.81,8.31-13.62,16.63c-15.94,19.52-31,39.63-43,61.88-5.42,10.07-9.91,20.47-11.36,31.94-.26,2-.35,4-.52,6,0,13,4.11,24.83,10,36.2a278.19,278.19,0,0,0,14.78,24.43c5.89,9,11.63,18.16,16.19,27.94,1.61,4,28,71.08,23.73,108.76-4.6,40.11,107.43,6.45,157.38-14.5,0,0-3.44-58.12-36.88-98.3l0,0q-7.41-9.88-15.3-19.38a460,460,0,0,0-57.41-58.35c-1.34-1.13-1.78-1.69.11-2.86,11.87-7.38,23.4-15.27,34.68-23.54a629.56,629.56,0,0,0,56.57-46.93c-8.57-32.93,3.59-58.91,27.44-80.75,11.79-10.79,25.64-18.43,40.28-24.67l1.49-.68.51-.33,0,0c.58-4.15,2.57-7.82,4.06-11.65,6.52-16.71,13.39-33.28,20.44-49.78,3.19-7.46,6.45-14.89,9.7-22.32a17.43,17.43,0,0,1,1-1.83C498.85,466.38,501.84,457.56,507.71,448.75Z"/></g></g></svg>