<svg xmlns="http://www.w3.org/2000/svg" xmlns:xlink="http://www.w3.org/1999/xlink" viewBox="0 0 520 480"><defs><style>.cls-1,.cls-6{fill:none;}.cls-2{fill:#d3dadd;opacity:0;}.cls-3{fill:#fc4a02;}.cls-4{clip-path:url(#clip-path);}.cls-5{fill:#2d0242;}.cls-6{stroke:#ffab00;stroke-miterlimit:10;stroke-width:7px;}</style><clipPath id="clip-path"><path class="cls-1" d="M512.62,371.22V25.34L305.55,6.75S145.08,19.08,123.79,27.94C98.16,38.62,92.51,80.52,104.48,137.41c.65,3.13,1.36,6.31,2.13,9.52q1.67,7,3.67,14.34c3.74,13.55,8.34,27.76,13.78,42.42a677.48,677.48,0,0,0,37.13,82.11c1.66,3.12,3.32,6.2,5,9.26q9.62,17.49,19.78,33.8c10.76,17.26,21.87,33.44,33.12,48.3q7.62,10.11,15.33,19.37c48.79,58.89,97.82,91.43,127.49,79.06C388.61,464.46,512.62,371.22,512.62,371.22Z"/></clipPath></defs><g id="Capa_2" data-name="Capa 2"><g id="Diseño"><rect class="cls-2" width="520" height="480"/><path class="cls-3" d="M104.48,137.41c.65,3.13,1.36,6.31,2.13,9.52q1.67,7,3.67,14.34c3.74,13.55,8.34,27.76,13.78,42.42a676.79,676.79,0,0,0,37.13,82.11c1.66,3.12,3.32,6.2,5,9.26q9.62,17.49,19.78,33.8c10.76,17.26,21.87,33.44,33.12,48.3q7.62,10.11,15.33,19.37c48.79,58.89,97.82,91.43,127.49,79.06,26.69-11.13,31.72-56.12,17.72-116.62-2.62-11.42-5.95-23.4-9.94-35.81a588.4,588.4,0,0,0-20.87-55.07q-1.06-2.46-2.14-4.9-2.08-4.71-4.31-9.49c-.91-2-1.83-4-2.78-5.93q-7-14.9-15.08-30c-22.16-41.65-47.07-78.94-72.06-109.33a409.8,409.8,0,0,0-42.17-44.6c-34-30.49-65.21-44.73-86.5-35.87C98.16,38.62,92.51,80.52,104.48,137.41Z"/><g class="cls-4"><circle class="cls-5" cx="269" cy="237.94" r="143.85"/><circle class="cls-6" cx="269" cy="237.94" r="143.85"/><ellipse class="cls-6" cx="269" cy="237.94" rx="48.62" ry="143.74"/><line class="cls-6" x1="125.15" y1="237.94" x2="412.85" y2="237.94"/><line class="cls-6" x1="148.9" y1="158.74" x2="389.1" y2="158.74"/><line class="cls-6" x1="148.9" y1="318.97" x2="389.1" y2="318.97"/></g></g></g></svg>