<?xml version="1.0" encoding="utf-8"?>
<!-- Generator: Adobe Illustrator 25.0.1, SVG Export Plug-In . SVG Version: 6.00 Build 0)  -->
<svg version="1.1" id="Capa_1" xmlns="http://www.w3.org/2000/svg" xmlns:xlink="http://www.w3.org/1999/xlink" x="0px" y="0px"
	 viewBox="0 0 520 484.5" style="enable-background:new 0 0 520 484.5;" xml:space="preserve">
<style type="text/css">
	.st0{fill:#FC4A02;}
</style>
<path class="st0" d="M104.5,137.4c0.7,3.1,1.4,6.3,2.1,9.5c1.1,4.7,2.3,9.4,3.7,14.3c3.7,13.6,8.3,27.8,13.8,42.4
	c10.5,28.2,22.9,55.6,37.1,82.1c1.7,3.1,3.3,6.2,5,9.3c6.4,11.7,13,22.9,19.8,33.8c10.8,17.3,21.9,33.4,33.1,48.3
	c5.1,6.7,10.2,13.2,15.3,19.4c48.8,58.9,97.8,91.4,127.5,79.1c26.7-11.1,31.7-56.1,17.7-116.6c-2.6-11.4-6-23.4-9.9-35.8
	c-6-18.7-13-37.1-20.9-55.1c-0.7-1.6-1.4-3.3-2.1-4.9c-1.4-3.1-2.8-6.3-4.3-9.5c-0.9-2-1.8-4-2.8-5.9c-4.7-9.9-9.7-19.9-15.1-30
	c-22.2-41.7-47.1-78.9-72.1-109.3c-12.9-15.9-27-30.8-42.2-44.6c-34-30.5-65.2-44.7-86.5-35.9C98.2,38.6,92.5,80.5,104.5,137.4z"/>
</svg>
