<svg xmlns="http://www.w3.org/2000/svg" xmlns:xlink="http://www.w3.org/1999/xlink" viewBox="0 0 520 480"><defs><style>.cls-1{fill:none;}.cls-2{fill:#d3dadd;opacity:0;}.cls-3{fill:#fc4a02;}.cls-4{clip-path:url(#clip-path);}.cls-5{fill:#ffab00;}.cls-5,.cls-6{fill-rule:evenodd;}.cls-6{fill:#2d0242;}</style><clipPath id="clip-path"><path class="cls-1" d="M512.62,371.22V25.34L305.55,6.75S145.08,19.08,123.79,27.94C98.16,38.62,92.51,80.52,104.48,137.41c.65,3.13,1.36,6.31,2.13,9.52q1.67,7,3.67,14.34c3.74,13.55,8.34,27.76,13.78,42.42a677.48,677.48,0,0,0,37.13,82.11c1.66,3.12,3.32,6.2,5,9.26q9.62,17.49,19.78,33.8c10.76,17.26,21.87,33.44,33.12,48.3q7.62,10.11,15.33,19.37c48.79,58.89,97.82,91.43,127.49,79.06C388.61,464.46,512.62,371.22,512.62,371.22Z"/></clipPath></defs><g id="Capa_2" data-name="Capa 2"><g id="Diseño"><rect class="cls-2" width="520" height="480"/><path class="cls-3" d="M104.48,137.41c.65,3.13,1.36,6.31,2.13,9.52q1.67,7,3.67,14.34c3.74,13.55,8.34,27.76,13.78,42.42a676.79,676.79,0,0,0,37.13,82.11c1.66,3.12,3.32,6.2,5,9.26q9.62,17.49,19.78,33.8c10.76,17.26,21.87,33.44,33.12,48.3q7.62,10.11,15.33,19.37c48.79,58.89,97.82,91.43,127.49,79.06,26.69-11.13,31.72-56.12,17.72-116.62-2.62-11.42-5.95-23.4-9.94-35.81a588.4,588.4,0,0,0-20.87-55.07q-1.06-2.46-2.14-4.9-2.08-4.71-4.31-9.49c-.91-2-1.83-4-2.78-5.93q-7-14.9-15.08-30c-22.16-41.65-47.07-78.94-72.06-109.33a409.8,409.8,0,0,0-42.17-44.6c-34-30.49-65.21-44.73-86.5-35.87C98.16,38.62,92.51,80.52,104.48,137.41Z"/><g class="cls-4"><path class="cls-5" d="M252.77,356.32c13.83,3.82,20.3,22.52,14.89,42.68-6,23.71-36.41,53.89-37.77,55.2l-5.07,5L223,452.29c-.52-1.83-10.9-45-4.75-66.61,3.21-12,10.25-21.86,18.63-26.65C241.81,355.66,247.34,355.16,252.77,356.32Z"/><path class="cls-6" d="M349.91,24.86c40.32,70.49,56.8,131.22,25.29,231.42,20,32.79,25.3,65.16,16.2,98.81l-2.83,10.47-76.16-37.34-11.64,2.92h0a81.1,81.1,0,0,1-77.08-21.32L215,301.13,130.29,294l3.31-10.74c9.1-33.65,30.43-59.13,64.47-76.7,24-102.25,69.1-145.72,139.62-185.43l7.59-4.34Z"/><path class="cls-5" d="M288.9,119.12c-19.71,9.83-27.34,34.44-17.21,54.67a41,41,0,0,0,54.67,17.15c20.26-10.14,27.35-34.44,17.22-54.67A41,41,0,0,0,288.9,119.12Z"/></g></g></g></svg>