<svg xmlns="http://www.w3.org/2000/svg" xmlns:xlink="http://www.w3.org/1999/xlink" viewBox="0 0 520 480"><defs><style>.cls-1{fill:none;}.cls-2{fill:#d3dadd;opacity:0;}.cls-3{fill:#fc4a02;}.cls-4{clip-path:url(#clip-path);}.cls-5{fill:#ffab00;}.cls-6{fill:#2d0242;}</style><clipPath id="clip-path"><path class="cls-1" d="M512.62,371.22V25.34L305.55,6.75S145.08,19.08,123.79,27.94C98.16,38.62,92.51,80.52,104.48,137.41c.65,3.13,1.36,6.31,2.13,9.52q1.67,7,3.67,14.34c3.74,13.55,8.34,27.76,13.78,42.42a677.48,677.48,0,0,0,37.13,82.11c1.66,3.12,3.32,6.2,5,9.26q9.62,17.49,19.78,33.8c10.76,17.26,21.87,33.44,33.12,48.3q7.62,10.11,15.33,19.37c48.79,58.89,97.82,91.43,127.49,79.06C388.61,464.46,512.62,371.22,512.62,371.22Z"/></clipPath></defs><g id="Capa_2" data-name="Capa 2"><g id="Diseño"><rect class="cls-2" width="520" height="480"/><path class="cls-3" d="M104.48,137.41c.65,3.13,1.36,6.31,2.13,9.52q1.67,7,3.67,14.34c3.74,13.55,8.34,27.76,13.78,42.42a676.79,676.79,0,0,0,37.13,82.11c1.66,3.12,3.32,6.2,5,9.26q9.62,17.49,19.78,33.8c10.76,17.26,21.87,33.44,33.12,48.3q7.62,10.11,15.33,19.37c48.79,58.89,97.82,91.43,127.49,79.06,26.69-11.13,31.72-56.12,17.72-116.62-2.62-11.42-5.95-23.4-9.94-35.81a588.4,588.4,0,0,0-20.87-55.07q-1.06-2.46-2.14-4.9-2.08-4.71-4.31-9.49c-.91-2-1.83-4-2.78-5.93q-7-14.9-15.08-30c-22.16-41.65-47.07-78.94-72.06-109.33a409.8,409.8,0,0,0-42.17-44.6c-34-30.49-65.21-44.73-86.5-35.87C98.16,38.62,92.51,80.52,104.48,137.41Z"/><g class="cls-4"><rect class="cls-5" x="299.63" y="205.66" width="41.61" height="41.61"/><path class="cls-6" d="M378.31,257.06c0,64.1,23.45-51.62-51-51.62S108.56,321.16,108.56,257.06,169,141,243.44,141,378.31,193,378.31,257.06Z"/><path class="cls-6" d="M343,113.76v64.59a117.21,117.21,0,0,1,24.52,32.22L415.12,231v54.1L367.5,305.49c-9.43,18.43-24.17,34.36-42.55,46.32v41.47H279.87V371a156.3,156.3,0,0,1-72.15,0v22.26H162.64V351.81c-28.95-18.84-48.87-47.51-53.21-80.3-.3,0-.6,0-.89,0A49.58,49.58,0,0,1,73.47,186.9L92.6,206a22.52,22.52,0,0,0,16.85,38.44c5-37.88,30.9-70.24,67.41-88.3a60,60,0,0,0,12.45,26.11H298.56a72,72,0,0,0,12.86-30.42,60.18,60.18,0,0,0-1.74-30.4A90.11,90.11,0,0,1,343,113.76ZM320.43,213A11,11,0,0,0,319,213h.06a11.36,11.36,0,0,0-1.34.2c-.43.09-.88.2-1.31.33a13,13,0,0,0-3.62,1.75l-.29.22,0,0c-.26.19-.52.38-.78.59l-.42.39h0c-.19.18-.39.34-.56.52s-.24.25-.35.38h0a5.67,5.67,0,0,0-.51.59l-.31.41,0,.05c-.15.21-.31.42-.45.64a2.47,2.47,0,0,0-.21.35l0,.06c-.14.25-.3.49-.43.75,0,.06-.1.2-.17.33l0,.08c-.12.26-.25.51-.36.78a3,3,0,0,0-.14.37l0,.09a7,7,0,0,0-.26.81,2.11,2.11,0,0,0-.1.39l0,.09c-.06.26-.13.53-.17.81a4.14,4.14,0,0,0-.08.52v.07c0,.23-.07.47-.09.71a10.63,10.63,0,0,0-.06,1.17h0a11.32,11.32,0,0,0,.08,1.43v-.06a11.85,11.85,0,0,0,.2,1.33,13.46,13.46,0,0,0,1.39,3.79c.21.38.44.76.68,1.11.13.19.26.35.37.49l0,0c.14.2.28.4.44.59l.4.44h0l.5.55.4.37h0c.19.18.38.34.58.51l.38.29,0,0,.66.47c.09.07.25.15.4.24l.07,0,.69.4.38.19.07,0,.78.35.33.12.1,0c.28.1.56.2.85.28l.38.1.09,0a7.49,7.49,0,0,0,.79.18l.54.09h.06c.25,0,.48.07.73.09s.74.05,1.14.05h0q.72,0,1.41-.06h-.06c.46-.05.9-.11,1.34-.2a13.46,13.46,0,0,0,3.79-1.39c.39-.22.77-.45,1.14-.71l.25-.18,0,0a9.91,9.91,0,0,0,.82-.63c.14-.12.26-.22.37-.33h0c.21-.19.42-.38.61-.57l.36-.39h0c.16-.19.34-.37.51-.57s.21-.27.32-.43l0,0a7.17,7.17,0,0,0,.45-.63,4.12,4.12,0,0,0,.22-.36l0-.07c.14-.24.29-.49.42-.73l.17-.34,0-.08c.12-.26.24-.52.36-.8,0-.05.07-.2.13-.34l0-.09c.1-.27.19-.55.28-.83a3.15,3.15,0,0,0,.1-.38l0-.09a7.48,7.48,0,0,0,.18-.82c0-.12.06-.32.08-.52v-.07c0-.23.07-.46.09-.71s.05-.75.05-1.17h0a13.24,13.24,0,0,0-.07-1.42v0c-.05-.44-.11-.89-.2-1.32a13.7,13.7,0,0,0-1.38-3.8l-.1-.16,0,.05c-.19-.34-.4-.69-.62-1-.11-.16-.2-.27-.29-.39l0,0c-.18-.23-.35-.48-.53-.7s-.25-.26-.36-.4h0c-.18-.2-.35-.39-.54-.58l-.42-.39h0l-.54-.48-.43-.32,0,0c-.2-.16-.41-.3-.63-.45l-.36-.23-.07,0-.73-.43-.35-.17-.08,0c-.25-.12-.51-.24-.76-.34-.07,0-.24-.09-.39-.15l-.1,0-.78-.26-.42-.11-.08,0-.81-.18-.5-.08h-.06l-.76-.09c-.35,0-.75-.05-1.15-.05h0Z"/><path class="cls-5" d="M243.8,86.72a54.08,54.08,0,0,1,46.84,81.15H197a54.24,54.24,0,0,1-7.26-27.05A54.1,54.1,0,0,1,243.8,86.72Z"/></g></g></g></svg>