<svg xmlns="http://www.w3.org/2000/svg" viewBox="0 0 99.15 35.62"><defs><style>.cls-1{fill:#f9fcfc;}</style></defs><g id="Capa_2" data-name="Capa 2"><g id="Diseño"><path class="cls-1" d="M71.61,33.73c-2.87-.18-6.2-.28-9.5-.6a60.78,60.78,0,0,0-21.57,1.68,20.35,20.35,0,0,1-12.9-.51,22.63,22.63,0,0,0-13.35-.83,25.57,25.57,0,0,1-9.47.34,10.1,10.1,0,0,1-2.6-.7c-2.67-1.23-3-3.49-.67-5.3A17.51,17.51,0,0,1,15,24.36c1.24.16,1.62-.06,2.05-1.23C20,15.29,27.33,11.47,35.41,13.61c1.49.4,2.08-.07,2.89-1.19A29.24,29.24,0,0,1,57.77.29c9.16-1.53,16,3,18.42,12.05.55,2.05,1.23,2.89,3.55,2.54,3.74-.57,8.19,2.2,9.54,5.93.69,1.93,1.63,2.43,3.49,2.08a7,7,0,0,1,4,.48c2.67,1.12,3.15,3.5,1.15,5.6a9.57,9.57,0,0,1-5.81,2.81,194.73,194.73,0,0,1-20.5,1.95"/></g></g></svg>