<svg xmlns="http://www.w3.org/2000/svg" viewBox="0 0 147.8 42.73"><defs><style>.cls-1{fill:#fcfcfc;}</style></defs><g id="Capa_2" data-name="Capa 2"><g id="Diseño"><path class="cls-1" d="M122.79,40.67a28.12,28.12,0,0,0-13,.19c-9.77,2.55-19.53,2.28-29.35.51a26.53,26.53,0,0,0-6.28-.71c-3.09-.57-6.18-1.15-9.28-1.7-7.06-1.27-14.15-2.1-21.32-1-6.87.13-13.62,1.53-20.46,2-5.71.41-11.43.94-17.12-.24A12.34,12.34,0,0,1,.91,37.38c-1-.79-1.24-1.48-.33-2.58a14,14,0,0,1,10.5-5.43c5-.24,5.08-.22,5.94-5.34a31.73,31.73,0,0,1,5.26-12.38C28.12,4.53,35.44-.17,44.82,0,56.64.22,65.5,5.83,71,16.44c.49.93.74,2.1,2.22,1,7.14-5.33,14.87-6.15,23.11-3,3.59,2,7,4.23,9.16,7.78.91,1.48,1.64,1.4,3,.65,5.2-2.87,10.59-5,16.74-3.72a14.84,14.84,0,0,1,9.48,8.75,1.94,1.94,0,0,0,2.24,1.39,16.8,16.8,0,0,1,7.13.91c1.74.63,3.48,1.33,3.71,3.49A5.3,5.3,0,0,1,145,38.83a17.22,17.22,0,0,1-8.5,2.77c-4.62.24-9.17-.47-13.74-.93"/></g></g></svg>