<svg xmlns="http://www.w3.org/2000/svg" viewBox="0 0 150 35"><defs><style>.cls-1{fill:#fdfdfd;}</style></defs><g id="Capa_2" data-name="Capa 2"><g id="Diseño"><path class="cls-1" d="M148.65,23.68a12.31,12.31,0,0,0-6.41-2.09,13.31,13.31,0,0,0-5,.46c-.4.13-.69.13-.84-.37-1.86-6.1-8.24-8.33-14.74-5.93-.9.34-1.77.79-2.65,1.2-.29.14-.54.29-.71-.15a14.85,14.85,0,0,0-4.74-6.18c-.55-.33-1.07-.68-1.64-1-5.45-2.8-10.78-2.32-16,.67-.63.36-.52.18-1-.35C82.75-4.3,61.72-.72,57.35,5.17c-1.63-.42-4.44-.42-7.63,3.29C44.05,6.21,39.32,9,38.06,9.65c-.56.3-1.09.64-1.64,1a14.85,14.85,0,0,0-4.74,6.18c-.16.44-.42.29-.71.15-.88-.41-1.75-.86-2.65-1.2-6.5-2.4-12.88-.17-14.74,5.93-.15.5-.44.5-.84.37a13.31,13.31,0,0,0-5-.46,12.31,12.31,0,0,0-6.41,2.09A3,3,0,0,0,0,26.51c.13,1.17,1,1.62,2,2,9,3.8,17.26,6.46,23.17,4.38,11.37,3.21,16.77.43,21.61.59A64.46,64.46,0,0,0,56,32.92c2.22-.48,4.43-1,6.62-1.56a3.71,3.71,0,0,1,2.79.46,25.39,25.39,0,0,0,8.14,2.63,3.57,3.57,0,0,0,1.49.06c.5.14,1-.13,1.49-.06,13.79,2,15.33-2,17.55-1.53a64.46,64.46,0,0,0,9.21.59,50.92,50.92,0,0,0,21.56-5.38,6,6,0,0,0,.71-.38c1.64-1.12,3.2-.92,5-.09a23.34,23.34,0,0,0,17.53.88,2.41,2.41,0,0,0,1.95-2A3,3,0,0,0,148.65,23.68Z"/></g></g></svg>