<svg xmlns="http://www.w3.org/2000/svg" viewBox="0 0 703.2 978.42"><defs><style>.cls-1{fill:#01755e;}.cls-2{fill:#00c28c;}.cls-10,.cls-3{fill:#2d0242;}.cls-4{fill:#fbfafa;}.cls-5{fill:#fbfbfb;}.cls-6{fill:#f7f8f8;}.cls-7{fill:#3a1a67;}.cls-8{fill:#168b66;}.cls-9{fill:#f64d2b;}.cls-10{fill-rule:evenodd;}</style></defs><g id="Capa_2" data-name="Capa 2"><g id="Diseño"><path class="cls-1" d="M345.27,516.21c2.6,0,2.61-4,0-4s-2.6,4,0,4Z"/><path class="cls-2" d="M491.76,232.44c10,10.77,20,21.47,29.86,32.35,19,20.93,37.94,41.89,56,63.65a157.23,157.23,0,0,1,26,43.95,69.71,69.71,0,0,1,3.94,34.77c-.06.46-.07.93-.11,1.4-.18.75-.4,1.49-.54,2.25-1.9,10.45-4.78,20.58-11.27,29.19-14.5,19.23-33.13,32.62-56.52,39-6.48,1.75-13.07,3.18-19.87,1.92-7.27-1.35-11.3-6.28-11.21-13.6.05-3.79,1.66-7.1,3.15-10.45,2.84-6.4,5.71-12.8,8.56-19.19,1.16-2.47,2.31-4.95,3.49-7.41Q534,407.63,544.75,385c.52-1.1,1.26-2-.42-3-23.92-15.18-48.15-29.81-73.45-42.58-3.4-1.72-6.83-3.36-10.25-5,7.07,9.42,14.38,18.46,21.24,27.83a349.77,349.77,0,0,1,22.6,34.67c-13.58,4.53-25.8,11.79-38,19a130.65,130.65,0,0,1-46.29,17c-14.16,2.28-28.42,2.72-42.71,2.47-2.26,0-4.54.18-6.76-.4a115.44,115.44,0,0,0-14.9-12.77,165.33,165.33,0,0,0-49-24.94c-18.82-6.1-31.73-18.36-37.93-37.36,0-.08-.24-.09-.54-.19-.5.82-1,1.67-1.53,2.53-8.78,15-17.67,30-27.35,44.42-6.86,10.25-14.32,20.05-22.07,29.64l-1.34,1.08c0-.7,0-1.41,0-2.11-.12-14.7-3.15-28.61-11.44-41-6.84-10.25-16.36-14.43-27.55-12.17,3-8.77,6-17.55,9-26.31q15-43.06,30-86.13c3.35-9.59,7.76-18.56,15.59-25.44a70.73,70.73,0,0,1,17.81-11.07c.78-.35,1.53-.75,2.3-1.13,6.6-2.4,13.21-4.76,19.79-7.22a20,20,0,0,0,11-9c2.08-3.75,4.18-7.5,6.08-11.35,4.69-9.51,9.28-19.08,13.92-28.63,10.3.95,20.61,1.86,30.91,2.86,7.35.72,14.69,1.56,22,2.35.86,4.51,1.8,9,2.55,13.55.27,1.62.83,1.86,2.32,1.38,4.75-1.51,9.54-2.91,14.33-4.33,13.21-3.91,26.6-6.65,40.51-6a64.83,64.83,0,0,1,29.59,8.53c14,8.07,26.26,18.42,37.91,29.52C485.73,226.58,488.74,229.52,491.76,232.44Z"/><path class="cls-3" d="M491.76,232.44c-3-2.92-6-5.86-9.07-8.76-11.65-11.1-23.9-21.45-37.91-29.52a64.83,64.83,0,0,0-29.59-8.53c-13.91-.7-27.3,2-40.51,6-4.79,1.42-9.58,2.82-14.33,4.33-1.49.48-2.05.24-2.32-1.38-.75-4.54-1.69-9-2.55-13.55-.65-4.63-1.3-9.26-2-14,1.93-.2,3.86-.34,5.78-.6,10.15-1.37,17.23-7.31,18.87-16.5,2.53-14.19.29-27.94-4.66-41.34a5.44,5.44,0,0,0-4.32-3.53,14.12,14.12,0,0,0-5.57-.16c-6.14,1.12-10.72,4.84-15.06,9-3.39,3.22-6.51,6.74-10.28,9.55a22,22,0,0,1-10.54,4.72c-1.34.17-2.17.18-2.21-1.58a11.45,11.45,0,0,0-1.16-4.5c-1.15-2.53-2.74-4.6-5.71-5s-4.79,1.54-6.18,3.81a49.51,49.51,0,0,1-6.29,8.12,19.22,19.22,0,0,0-4.74,8.5c-1.37,5.27,2.14,9.71,7.62,9.76,2.29,0,4.31-.86,6.9-2.28-4.67,10.7-9,20.75-13.42,30.8-4.64,9.55-9.23,19.12-13.92,28.63-1.9,3.85-4,7.6-6.08,11.35a20,20,0,0,1-11,9c-6.58,2.46-13.19,4.82-19.79,7.22a47.39,47.39,0,0,1-19.37-18.49c-9.3-16.39-8.15-32.74.67-48.86,6.56-12,16.52-20.47,28.9-26,10.54-4.7,17.07-12.41,19.8-23.6a64.24,64.24,0,0,1,5.53-15.63,45.47,45.47,0,0,1,53.76-21c9.21,2.91,17.69,7.38,26.07,12.05a23.07,23.07,0,0,0,12.47,3.29c5.92-.22,11.7.6,16.89,3.78,5.77,3.54,7.89,9.21,8.91,15.49.86,5.31.95,10.74,2.25,16,2.46,9.87,8.83,15.23,19,16.21,6.7.65,13.24-.48,19.76-1.64,18.26-3.24,34.44,1.05,48.18,13.54,21.82,19.84,20.83,55.71-1.91,74.51C492.35,231.93,492.06,232.18,491.76,232.44Z"/><path class="cls-4" d="M397.57,668.36c-8.57-32.93,3.59-58.91,27.44-80.75,11.79-10.8,25.64-18.44,40.28-24.68.5-.21,1-.44,1.49-.67l.51-.33h0c6.32-2.18,12.62-4.43,19-6.55,13.52-4.5,27.2-8.57,40.06-14.86,14.89-7.27,27.17-17.21,34.56-32.51,2.5-5.17,5.66-10,8.51-15,.81,12.37-3.71,22.89-11.24,32.34-4.12,5.16-9.24,9.26-14.45,13.25a136.13,136.13,0,0,1-26.58,13.63c-11.21,4.35-22.74,7.73-34.09,11.64-6.77,2.33-13.58,4.59-20,7.9a124.67,124.67,0,0,0-37.74,25.16c-10.86,10.7-18.59,23.22-22,38.2-2.08,9.16-2.48,18.36.16,27.52a16.17,16.17,0,0,0,.29,1.6,53,53,0,0,0,19.08,27.91c10.08,7.68,21.76,11.34,34.11,13.15a144.55,144.55,0,0,0,22.14,1.4,3.66,3.66,0,0,0-1.23-2.12,262.59,262.59,0,0,0-29.35-30.49c-7.72-6.86-10.57-15.33-9-25.45,1.08-7,3.18-13.82,4.93-20.7,1-4,2.72-7.91,3.24-12.1l-.05,0c.51,0,.45-.42.46-.76.33-.87.68-1.73,1-2.61,3-9.06,5.74-18.21,9.28-27.08a119.19,119.19,0,0,0,47.85,19.88L495,625.55c-2.6,4.72-5.13,9.46-7.84,14.12-1,1.72-.91,2.47,1.06,3.37,6.4,2.91,12.56,6.25,17.74,11.16,6.17,5.86,9.17,13.43,11.74,21.26.1.3.15.61.24.91,1.24,4.2,1.24,4.2,5.2,2.07.21-.11.4-.25.6-.37,2.91-1.63,2.89-1.62,1.45-4.52a9.57,9.57,0,0,1-1.09-6.11c.6-3.15,3.38-4.41,5.95-2.57a32.82,32.82,0,0,1,9.71,10.63c2,3.48,1.46,5.84-1.43,8.57-.74.7-1.53,1.34-2.27,2-1.78,1.65-2.83,3.72-2.18,6.08,1.38,5,1.3,9.55-3.19,13.81,6.41.16,96.15.3,101.8.45a42,42,0,0,1-.12,7.09c-5.15-.15-94.37-.29-99.52-.48-1.15,0-1.53.44-2.17,1.44-2.3,3.61-1.15,6.18,1.59,8.9a12.94,12.94,0,0,1,3.51,7.52c.61,4.5-1.5,7.22-6,7.14-5-.1-10-.64-14.92-1.1-2.64-.25-5.27-.64-7.87-1.14A18.78,18.78,0,0,1,495.16,728q-4.61-6.33-9.05-12.79a3.21,3.21,0,0,0-3.08-1.55c-12.27.19-24.49-.29-36.49-3.18-15.94-3.84-29.68-11.24-39.74-24.58A68,68,0,0,1,397.57,668.36Z"/><path class="cls-3" d="M18.39,155.23l-3.6-40.57c-.57-6.34-1.14-12.67-1.2-19.2L44,140.36c3-11.79,5.83-23,8.81-34.81L71.49,133.3c5.61-24.48,11.12-48.5,16.63-72.52l.36,0c.77,3.32,1.57,6.65,2.31,10q6.36,28.67,12.7,57.34c.14.64-.1,1.64.74,1.79s1.06-.84,1.46-1.36c4.9-6.36,9.76-12.74,15-19.65,1.88,11.51,3.66,22.43,5.53,34l29.14-37.54.45.17-6.69,48.23,29.59-16.12c-1,2.29-1.78,4-2.56,5.74q-9.75,21.54-19.53,43.06a40.65,40.65,0,0,0-3.59-2.58c-10.41-6-21.76-8.09-33.61-7.82-2.6.06-5.32.51-7,3-2.43,2.41-3.32,5.55-4.14,8.72-.77,3-.47,6-.44,9.07,0,1.36-.32,1.93-1.89,1.72-2.69-.37-5.42-.46-8.13-.67-1.94-4.66-4-5-7.67-1.41a1.32,1.32,0,0,1-.2.12l-7.16-1.11a28.62,28.62,0,0,0,1.4-3.7c.81-3.44-1.63-5.91-5-5.09a12.68,12.68,0,0,0-3.41,1.46c-2.28,1.33-4.5,2.77-6.74,4.17l-14.31-4.14a24.8,24.8,0,0,0-1.66-7.55A25.66,25.66,0,0,0,54.37,168c-.13-3.73-2.87-5.33-5.69-6.71A59.85,59.85,0,0,0,18.39,155.23Z"/><path class="cls-5" d="M262.33,618.43q-6.81,8.31-13.62,16.63c-15.94,19.51-31,39.63-43,61.88-5.42,10.06-9.91,20.47-11.36,31.94-.26,2-.35,4-.52,6-8.81,5.47-17.22,11.6-26.55,16.2-6.56,3.23-13.39,5.21-20.8,3.88a18.35,18.35,0,0,1-6.56-2.37c-7-4.36-6.75-13.34.44-17.31.51-.29,1-.54,1.66-.85-5.38-2.15-5.82-7.48.1-11.23-2.26-.83-4-2.14-3.8-4.74.2-3.4,2.72-4.84,5.73-6.16-2.58-1.46-4-3.41-3.22-6.29.77-2.66,3-3.77,5.43-4.68q-5.17-5.1,1-9.12c4.09-2.63,8.74-4.11,13.1-6.2,3.86-1.85,7.75-3.65,11.46-5.82,15-8.83,16.91-23.26,12.18-36.43-2.49-6.94-6.83-12.76-11.73-18.17,4.39-10.46,8.64-21,12.1-31.79.94-3,1.86-5.93,2.78-8.89.52.16,1.05.3,1.55.49A748.83,748.83,0,0,1,262.33,618.43Z"/><path class="cls-5" d="M362.53,957.89c-1,6-2.94,13.93-8.72,20.53h64.68a333.19,333.19,0,0,0-2.76-62.15c-.35-.42-1.8.39-2.17,0-2.25,2.14-9.67,1.05-11.93,3.18-15.69,5.86-31.61,9.84-40.53,16.85C362.76,943.42,363.72,950.61,362.53,957.89Z"/><path class="cls-6" d="M519.71,437.64c-2.85,6.39-5.72,12.79-8.56,19.19-1.49,3.35-3.1,6.66-3.15,10.45-.09,7.32,3.94,12.25,11.21,13.6,6.8,1.26,13.39-.17,19.87-1.92,23.39-6.34,42-19.73,56.52-39,6.49-8.61,9.37-18.74,11.27-29.19.14-.76.36-1.5.54-2.25,3.68,4.74,4,10.18,3,15.77-1.65,9.71-6.94,17.55-13.12,24.91-3.16,3.76-6.7,7.17-10.06,10.73-.6.49-1.22.95-1.8,1.46C568.88,476,550,485.66,527.88,488.1c-10.62,1.17-19.86-1.49-25.39-11.73-3.64-10-.65-18.81,5.22-27.62-4.79,1.7-9.1,3.21-13.4,4.77-19.42,7-38.71,14.49-58.7,19.85a359.16,359.16,0,0,1-74.07,11.84c-43.89,2.35-86.76-3-128.5-16.95-8.95-3-17.76-6.36-26.37-10.23a4.28,4.28,0,0,0-3.94,0c-4.45,2.05-9.09,1.88-13.75.74,3.94-2.51,8-4.76,11.86-7.47a17.42,17.42,0,0,0,7.74-12.82c1.22-12.1-1.28-23.59-6.51-34.49-2.57-5.34-5.93-10.1-11.15-13.25-8.23-5-16.62-1.73-19.4,7.5a2,2,0,0,0,.25,2.14c6.32,8,9.07,17.5,11,27.27a154.88,154.88,0,0,1,2.75,32.59c-.67,10.15-2,20.17-5.59,29.78-2.34,6.35-5.32,12.31-10.16,17.17-11.34,11.38-26.58,10.82-37.15-1.31-5.46-6.26-8-13.84-9.84-21.71a122,122,0,0,1-3.25-32c0-.47-.06-.93-.09-1.4.08-.25.16-.5.23-.75l6.94,6.82c-.1,12.69,1.78,25.06,6.57,36.85a24.11,24.11,0,0,0,11.28,12.68c5.82,3.05,11.39,2.64,16.76-1.1a27.64,27.64,0,0,0,8.8-10.17,75.35,75.35,0,0,0,8.1-31.7c.1-.85.26-1.7.28-2.55a136,136,0,0,0-3.28-35.53c-1.55-6.73-3.73-13.24-7.77-19.18-.79,1.37-1.38,2.65-2.19,3.77-10.53,14.62-25.24,21.44-42.83,22.82-4.64.36-9.1-.74-13.6-1.53l0,.05c.19-.47-.21-.34-.41-.42-5.38-2.41-9.84-5.81-11.69-11.68-2-6.47-.61-12.45,3-18.05,1,4.16,2,8.34,3,12.49,1.84,7.32,5.51,10.49,13.07,11.61s14.62-.19,21.53-2.9c8.55-3.35,16.3-7.92,21.56-15.76,2.52-3.75,4.4-7.91,3.59-12.52s-3.06-8.54-4.45-12.59c-18.09,14.86-37.75,19.35-59.8,10.62-4-2.42-7.36-5.34-8.56-10C88,375.51,90.46,370.39,95,366c.45,3.71,1.1,7.41,1.3,11.13.23,4.31,2.59,6.84,6.19,8.61a23.48,23.48,0,0,0,5.27,1.88,50,50,0,0,0,31-2.75c4.7-2,9.16-4.35,12.66-8.19a7.77,7.77,0,0,0,1.7-8.82c-1.48-3.68-2.6-7.5-3.87-11.26a15,15,0,0,1,10.92,20.14c-.25.67-.92,1.37.12,2a20.48,20.48,0,0,1,8.21,9.92,21.5,21.5,0,0,1,8.63-6.6c11.19-2.26,20.71,1.92,27.55,12.17,8.29,12.42,11.32,26.33,11.44,41,0,.7,0,1.41,0,2.11-.82,5.27-2.22,10.33-5.69,14.72,1.26.56,2.32,1.06,3.39,1.51,43.8,18.26,89.48,26.26,136.84,25.14a349,349,0,0,0,87.69-13.31c27.09-7.72,53-18.92,79.81-27.46Z"/><path class="cls-4" d="M53.06,180.56a24.8,24.8,0,0,1,1.66,7.55,63.68,63.68,0,0,1-1.19,9.52c-.53,2.45-1,5,.07,7.37,1.61,3.79,3.36,7.52,5,11.27A40.18,40.18,0,0,0,60,209.14c1.69-12.36-.06-9.56,9-16.89,2.24-1.4,4.46-2.84,6.74-4.17a12.68,12.68,0,0,1,3.41-1.46c3.42-.82,5.86,1.65,5,5.09a28.62,28.62,0,0,1-1.4,3.7,21.84,21.84,0,0,1-5.18,5,6,6,0,0,0-2.47,2.73c-1.73,4.33-1.33,8.87-1.09,13.49L90,196.52a1.32,1.32,0,0,0,.2-.12c3.67-3.63,5.73-3.25,7.67,1.41a15.33,15.33,0,0,1-2.14,8.49c-2.55,4.74-5.27,9.38-8.2,13.89C85,224.05,85,224,89.23,225.6c6,2.25,11.92,4.83,18.63,4.86a104.79,104.79,0,0,0,17.71-1.05c0,.31,0,.63.1.93,2.24,10.34,2.27,20.42-3,30a12.59,12.59,0,0,0-1,8,55.13,55.13,0,0,0,2,7.94q3.15,10.53,6.26,21.06a84.18,84.18,0,0,1-39.35,7.78c-.46-7.08-.93-14.16-1.37-21.24-.35-5.54-.63-11.07-1-16.6-.42-6-3-10.75-8.31-13.83-6.48-3.76-13.2-7.07-20-10.24-3.65-1.7-6.83-3.76-8.38-7.68a2.51,2.51,0,0,0-1.25-1.32c-11.28-6.42-21.45-14.49-32.2-21.71-3.43-2.3-6.84-4.64-10.26-7-1.64-1.12-3.24-2.34-2.87-4.67.3-1.86,2.4-3.32,5-3.63a14.94,14.94,0,0,1,7.07,1.25A17.05,17.05,0,0,1,18.94,200,82.75,82.75,0,0,0,41.15,215c.62.3,1.24,1,2.19.44-.54-1.71-1.05-3.42-1.6-5.11-1-3.05-2-6.16-1.54-9.39a102.86,102.86,0,0,1,5.16-20.83c1.1-3,4.1-3.46,6.34-1.13C52.19,179.46,52.61,180,53.06,180.56Z"/><path class="cls-2" d="M502.49,476.37c5.53,10.24,14.77,12.9,25.39,11.73,22.11-2.44,41-12.13,57.58-26.67.58-.51,1.2-1,1.8-1.46-2.21,5.17-5.23,9.89-7.88,14.82-3.28,6.1-6.67,12.14-10,18.21-2.85,5-6,9.85-8.51,15-7.39,15.3-19.67,25.24-34.56,32.51-12.86,6.29-26.54,10.36-40.06,14.86-6.35,2.12-12.65,4.37-19,6.55.57-4.15,2.57-7.82,4.06-11.64,6.52-16.71,13.39-33.29,20.44-49.79,3.19-7.45,6.45-14.88,9.7-22.31A17.43,17.43,0,0,1,502.49,476.37Z"/><path class="cls-2" d="M90.49,305.17a84.18,84.18,0,0,0,39.35-7.78c.27.72.56,1.44.79,2.17q2.48,7.69,4.92,15.41a30.26,30.26,0,0,0,2.21,6.7c1.61,6.49,4,12.74,6,19.08,1.73,5.31,3.6,10.58,5.42,15.87,1.27,3.76,2.39,7.58,3.87,11.26a7.77,7.77,0,0,1-1.7,8.82c-3.5,3.84-8,6.23-12.66,8.19a50,50,0,0,1-30.95,2.75,23.48,23.48,0,0,1-5.27-1.88c-3.6-1.77-6-4.3-6.19-8.61-.2-3.72-.85-7.42-1.3-11.13Q92.34,340.9,91,315.67A89.78,89.78,0,0,1,90.49,305.17Z"/><path class="cls-7" d="M640.42,704.23c0-5.46,0-10.93.07-16.4,0-5.73,3-9,8.77-9q22.72-.11,45.45,0c5.43,0,8.48,3.27,8.48,8.72q0,22.73,0,45.45c0,5.15-3.11,8.43-8.24,8.45q-23.19.07-46.38,0c-4.74,0-8-3.37-8-8.22-.07-5.7,0-11.4,0-17.1,1.56,0,3.12-.09,4.68-.08,4.07,0,4.49.33,5.47,4.22a4.88,4.88,0,0,0,3.39,3.8c3.19,1,6.31,2.26,9.6,3,4.7,1,9.4,1.57,14-.19,2-.74,3.13-1.87,3.08-4.31-.15-8.82-.11-17.64,0-26.46a3.49,3.49,0,0,0-3.12-3.91,27,27,0,0,0-3.23-.48c-7-.77-13.36,1.73-19.76,4-2.44.87-3.9,2.37-3.94,5.15a3,3,0,0,1-3,3.22A40.74,40.74,0,0,1,640.42,704.23Z"/><path class="cls-2" d="M463,571.76c6.39-3.31,13.2-5.57,20-7.9,11.35-3.91,22.88-7.29,34.09-11.64a136.13,136.13,0,0,0,26.58-13.63q-8.83,15.84-17.66,31.69-9.21,16.44-18.45,32.86c-.42.75-.92,1.44-1.39,2.15a119.19,119.19,0,0,1-47.85-19.88Z"/><path class="cls-2" d="M108.78,431.13c4.5.79,9,1.89,13.6,1.53,17.59-1.38,32.3-8.2,42.83-22.82.81-1.12,1.4-2.4,2.19-3.77,4,5.94,6.22,12.45,7.77,19.18a136,136,0,0,1,3.28,35.53c0,.85-.18,1.7-.28,2.55-1.06.29-2.11.56-3.16.87-11.2,3.26-22.4,3.74-33.64.17-5.34-1.7-10.05-4.6-14.71-7.6L119.72,450a71.75,71.75,0,0,1-10.17-16.43A4.06,4.06,0,0,1,108.78,431.13Z"/><path class="cls-2" d="M125.57,229.41a104.79,104.79,0,0,1-17.71,1.05c-6.71,0-12.59-2.61-18.63-4.86C85,224,85,224.05,87.52,220.19c2.93-4.51,5.65-9.15,8.2-13.89a15.33,15.33,0,0,0,2.14-8.49c2.71.21,5.44.3,8.13.67,1.57.21,1.9-.36,1.89-1.72,0-3-.33-6.08.44-9.07.82-3.17,1.71-6.31,4.14-8.72.83,4.17,4.28,5.89,7.41,7.92a64.85,64.85,0,0,0,28.64,8.1c3.84.16,7.7.4,10.93-2.33a17.53,17.53,0,0,1-7.25,17.27c-.39.26-.79.5-1.16.78a20.82,20.82,0,0,0-3.22,3.67c-1.53,1.88,1,2.86.83,4.4a10.73,10.73,0,0,1-1.73,6.2c-2.19,2.23-4.85,1.43-7.44,1.2-1.42-.13-2.83-.9-4.3-.14A47.37,47.37,0,0,1,125.57,229.41Z"/><path class="cls-2" d="M98.16,392c22,8.73,41.71,4.24,59.8-10.62,1.39,4.05,3.67,8.1,4.45,12.59s-1.07,8.77-3.59,12.52c-5.26,7.84-13,12.41-21.56,15.76-6.91,2.71-14,4-21.53,2.9s-11.23-4.29-13.07-11.61c-1-4.15-2-8.33-3-12.49Z"/><path class="cls-2" d="M53.06,180.56c-.45-.54-.87-1.1-1.36-1.61-2.24-2.33-5.24-1.91-6.34,1.13a102.86,102.86,0,0,0-5.16,20.83c-.45,3.23.55,6.34,1.54,9.39.55,1.69,1.06,3.4,1.6,5.11-1,.58-1.57-.14-2.19-.44A82.75,82.75,0,0,1,18.94,200a17.05,17.05,0,0,0-2.05-1.49c-.62-1.85-2.24-2.94-3.43-4.33-8.06-9.45-9.12-20-4.91-31.31a9.12,9.12,0,0,1,2-3.38c.59,2.8,2.64,4.25,5,5.46a11.85,11.85,0,0,0,1.56,1c9.53,4.25,19.43,6.29,29.89,5.11,2.7-.42,5.35-1,7.35-3.08A25.66,25.66,0,0,1,53.06,180.56Z"/><path class="cls-2" d="M640.42,704.23a40.74,40.74,0,0,0,7.24-.15,3,3,0,0,0,3-3.22c0-2.78,1.5-4.28,3.94-5.15,6.4-2.28,12.75-4.78,19.76-4a27,27,0,0,1,3.23.48,3.49,3.49,0,0,1,3.12,3.91c-.09,8.82-.13,17.64,0,26.46,0,2.44-1.12,3.57-3.08,4.31-4.65,1.76-9.35,1.22-14,.19-3.29-.72-6.41-1.94-9.6-3a4.88,4.88,0,0,1-3.39-3.8c-1-3.89-1.4-4.19-5.47-4.22-1.56,0-3.12.05-4.68.08-1.76,0-3.53-.18-5.28-.12s-2.76-.65-2.81-2.48a42,42,0,0,0,.12-7.09c.2-1.84,1.23-2.48,3-2.33C637.15,704.26,638.79,704.2,640.42,704.23Z"/><path class="cls-6" d="M146.91,225a10.73,10.73,0,0,0,1.73-6.2c16.24,1.62,25.71,11,28.07,28.13,2.55,18.46-3,34.82-13.55,49.75-6.95,9.85-15.75,17.87-25.4,25a30.26,30.26,0,0,1-2.21-6.7c11.31-8.47,21.07-18.34,27.67-31,6.4-12.25,9.28-25.14,6.43-38.92-2.17-10.53-7.79-17.73-19.09-19.3C149.33,225.59,148.13,225.24,146.91,225Z"/><path class="cls-6" d="M119.87,186.89c-3.13-2-6.58-3.75-7.41-7.92,1.68-2.51,4.4-3,7-3,11.85-.27,23.2,1.84,33.61,7.82a40.65,40.65,0,0,1,3.59,2.58c1.4,1.89,2.87,3.76,2.78,6.31-3.23,2.73-7.09,2.49-10.93,2.33,1.49-.82,3.74-.84,3.93-3.11s-1.44-3.42-3-4.41c-8.21-5.23-17.13-7.63-26.84-6.14C118.93,181.9,118.26,183.59,119.87,186.89Z"/><path class="cls-6" d="M54.37,168c-2,2.09-4.65,2.66-7.35,3.08,1-2.27.72-3.47-1.8-4.94A36.63,36.63,0,0,0,19,161.93c-1.58.3-3.16,1-3.39,3-2.33-1.21-4.38-2.66-5-5.46,1.85-2.78,4.88-3.42,7.79-4.28a59.85,59.85,0,0,1,30.29,6.07C51.5,162.68,54.24,164.28,54.37,168Z"/><path class="cls-8" d="M108.4,430.76c.2.08.6-.05.41.42Z"/><path class="cls-2" d="M185.57,460.2a154.88,154.88,0,0,0-2.75-32.59c-2-9.77-4.73-19.26-11-27.27a2,2,0,0,1-.25-2.14c2.78-9.23,11.17-12.48,19.4-7.5,5.22,3.15,8.58,7.91,11.15,13.25,5.23,10.9,7.73,22.39,6.51,34.49a17.42,17.42,0,0,1-7.74,12.82c-3.82,2.71-7.92,5-11.86,7.47Z"/><path class="cls-8" d="M467.29,561.93l-.51.33Z"/><path class="cls-3" d="M518.1,438c-26.82,8.54-52.72,19.74-79.81,27.46a349,349,0,0,1-87.69,13.31c-47.36,1.12-93-6.88-136.84-25.14-1.07-.45-2.13-.95-3.39-1.51,3.47-4.39,4.87-9.45,5.69-14.72l1.34-1.08c5.06-.27,10.13-.58,15.19-.8,22.62-1,45.23-2,67.88-2.14,13.5-.06,27,0,40.51.44,9.9.31,19.79,1.24,29.71,1.17,2.22.58,4.5.36,6.76.4,14.29.25,28.55-.19,42.71-2.47a130.65,130.65,0,0,0,46.29-17c12.22-7.24,24.44-14.5,38-19,.44.73.91,1.45,1.31,2.2A117,117,0,0,1,518.1,438Z"/><path class="cls-4" d="M302.54,175.77c4.37-10.05,8.75-20.1,13.42-30.8-2.59,1.42-4.61,2.3-6.9,2.28-5.48-.05-9-4.49-7.62-9.76a19.22,19.22,0,0,1,4.74-8.5,49.51,49.51,0,0,0,6.29-8.12c1.39-2.27,3.16-4.18,6.18-3.81s4.56,2.44,5.71,5a11.45,11.45,0,0,1,1.16,4.5c0,1.76.87,1.75,2.21,1.58a22,22,0,0,0,10.54-4.72c3.77-2.81,6.89-6.33,10.28-9.55,4.34-4.11,8.92-7.83,15.06-9a14.12,14.12,0,0,1,5.57.16,5.44,5.44,0,0,1,4.32,3.53c4.95,13.4,7.19,27.15,4.66,41.34-1.64,9.19-8.72,15.13-18.87,16.5-1.92.26-3.85.4-5.78.6.67,4.7,1.32,9.33,2,14-7.34-.79-14.68-1.63-22-2.35C323.15,177.63,312.84,176.72,302.54,175.77Zm69.58-34a24.62,24.62,0,0,0-.51-6.2c-.39-2-1.12-3.8-3.62-3.9a1.69,1.69,0,0,1-1.35-.82c-1.32-1.86-3.2-1.91-5-1.25a93.4,93.4,0,0,0-13.36,6.18c-1.14.63-1,1.08-.16,1.84,5.33,4.8,11.33,8.4,18.5,9.38,6.32.85,5.34,1.25,5.54-4.67C372.13,142.28,372.12,142.2,372.12,141.8Z"/><path class="cls-3" d="M447.66,615.84c-3.28,2.88-5.78,6.45-8.65,9.69-11.37,12.83-23.12,25.28-35.53,37.11-2.64-9.16-2.24-18.36-.16-27.52,3.38-15,11.11-27.5,22-38.2A124.67,124.67,0,0,1,463,571.76l-4.71,13.65c-3.54,8.87-6.29,18-9.28,27.08-.29.88-.64,1.74-1,2.61a.77.77,0,0,0-.46.76Z"/><path class="cls-9" d="M447.61,615.86a.77.77,0,0,1,.46-.76C448.06,615.44,448.12,615.82,447.61,615.86Z"/><path class="cls-2" d="M69,192.25c-9.06,7.33-7.31,4.53-9,16.89a40.18,40.18,0,0,1-1.38,7.13c-1.69-3.75-3.44-7.48-5-11.27-1-2.4-.6-4.92-.07-7.37a63.68,63.68,0,0,0,1.19-9.52Z"/><path class="cls-2" d="M90,196.52,74.09,216.6c-.24-4.62-.64-9.16,1.09-13.49a6,6,0,0,1,2.47-2.73,21.84,21.84,0,0,0,5.18-5Z"/><path class="cls-3" d="M126.66,456.77c4.66,3,9.37,5.9,14.71,7.6,11.24,3.57,22.44,3.09,33.64-.17,1.05-.31,2.1-.58,3.16-.87a75.35,75.35,0,0,1-8.1,31.7,27.64,27.64,0,0,1-8.8,10.17c-5.37,3.74-10.94,4.15-16.76,1.1a24.11,24.11,0,0,1-11.28-12.68C128.44,481.83,126.56,469.46,126.66,456.77Z"/><path class="cls-7" d="M119.87,186.89c-1.61-3.3-.94-5,2.74-5.56,9.71-1.49,18.63.91,26.84,6.14,1.55,1,3.16,2.27,3,4.41s-2.44,2.29-3.93,3.11A64.85,64.85,0,0,1,119.87,186.89Z"/><path class="cls-7" d="M15.57,165c.23-2,1.81-2.74,3.39-3a36.63,36.63,0,0,1,26.26,4.22c2.52,1.47,2.78,2.67,1.8,4.94-10.46,1.18-20.36-.86-29.89-5.11A11.85,11.85,0,0,1,15.57,165Z"/><path class="cls-9" d="M372.12,141.8c0,.4,0,.48,0,.56-.2,5.92.78,5.52-5.54,4.67-7.17-1-13.17-4.58-18.5-9.38-.86-.76-1-1.21.16-1.84a93.4,93.4,0,0,1,13.36-6.18c1.84-.66,3.72-.61,5,1.25a1.69,1.69,0,0,0,1.35.82c2.5.1,3.23,1.93,3.62,3.9A24.62,24.62,0,0,1,372.12,141.8ZM369,138.36c-.88-4-3.71-5.43-8.09-4.21-2.49.83-5,1.63-7.46,2.52-1.29.46-.48,1.08.07,1.42a5.09,5.09,0,0,0,3.85.3,10.18,10.18,0,0,1,10.58,3.74c.27.32.41.88,1.2.72A11.16,11.16,0,0,0,369,138.36Z"/><path class="cls-7" d="M369,138.36a11.16,11.16,0,0,1,.15,4.49c-.79.16-.93-.4-1.2-.72a10.18,10.18,0,0,0-10.58-3.74,5.09,5.09,0,0,1-3.85-.3c-.55-.34-1.36-1-.07-1.42,2.47-.89,5-1.69,7.46-2.52,2.18,2.06,5.3,2.41,7.64,4.19C368.62,138.41,368.82,138.35,369,138.36Z"/><path class="cls-6" d="M369,138.36c-.15,0-.35,0-.45,0-2.34-1.78-5.46-2.13-7.64-4.19C365.26,132.93,368.09,134.41,369,138.36Z"/><path class="cls-3" d="M46.13,34.08l0-.12c-.06-.23.1-.63.48-1.21A2.09,2.09,0,0,0,46.93,31L41.68,9.92a2.14,2.14,0,0,0-1.12-1.35c-.61-.33-.94-.61-1-.84l0-.12c-.09-.36.15-.62.72-.76l8.54-2.12a18.06,18.06,0,0,1,12.71,1,12.63,12.63,0,0,1,7,8.62A13.51,13.51,0,0,1,67,25.45a15.34,15.34,0,0,1-9.56,6.4L47.11,34.41C46.55,34.55,46.22,34.44,46.13,34.08Zm10.5-4.14a10.24,10.24,0,0,0,6.56-4.56,10.2,10.2,0,0,0,1-8.11,13.93,13.93,0,0,0-6-8.72,11.94,11.94,0,0,0-9.8-1.62L47.3,7.2a1.26,1.26,0,0,0-1,1.76l4.83,19.41a3.11,3.11,0,0,0,1.13,1.88,2.21,2.21,0,0,0,1.89.3Z"/><path class="cls-3" d="M73,5.38a2.81,2.81,0,0,1-1.12-2.06,2.81,2.81,0,0,1,.72-2.24A3.39,3.39,0,0,1,74.93,0a3.3,3.3,0,0,1,2.41.62,2.81,2.81,0,0,1,1.1,2.06,2.79,2.79,0,0,1-.69,2.24A3.28,3.28,0,0,1,75.5,6,3.4,3.4,0,0,1,73,5.38Zm.76,22.79,0-.16c0-.23.19-.6.64-1.1A2.09,2.09,0,0,0,75,25.28L74,14.85a2.52,2.52,0,0,0-.9-1.64c-.54-.48-.82-.8-.83-1l0-.12c0-.21.2-.47.65-.78L76.71,9a1.21,1.21,0,0,1,1.05-.16.83.83,0,0,1,.45.7l1.45,15.33a2,2,0,0,0,1,1.48c.59.4.89.72.91,1l0,.16c0,.39-.24.62-.82.68l-6,.57C74.12,28.74,73.82,28.57,73.79,28.17Z"/><path class="cls-3" d="M103.92,26.27c.46.48.68.84.68,1.08v.16c0,.4-.3.59-.89.58L97.86,28c-.58,0-.87-.22-.86-.62v-.16c0-.24.26-.58.76-1a2,2,0,0,0,.74-1.57l-.24-7.72q-.14-6.6-4.05-6.69a3.78,3.78,0,0,0-3.07,1.31A5.41,5.41,0,0,0,89.9,15l-.2,9.39A2,2,0,0,0,90.48,26c.54.46.81.82.8,1.06v.16c0,.4-.31.59-.9.58l-6.19-.14c-.56,0-.84-.22-.83-.62v-.16c0-.23.28-.58.83-1A2,2,0,0,0,85,24.32l.23-10.71a1.7,1.7,0,0,0-.43-1.25,5.27,5.27,0,0,0-.88-.8.85.85,0,0,1-.43-.67v-.12c0-.27.25-.51.73-.71l3.92-1.79c.43-.18.74-.19.94,0a.88.88,0,0,1,.28.78l0,2.6a6.06,6.06,0,0,1,2.49-2.5,7.17,7.17,0,0,1,3.66-.84,7.06,7.06,0,0,1,5.15,2.23c1.39,1.44,2.14,3.65,2.26,6.61l.31,7.57A2.34,2.34,0,0,0,103.92,26.27Z"/><path class="cls-3" d="M127.07,12.79c.28.16.43.32.44.48a.79.79,0,0,1-.2.54,1.2,1.2,0,0,1-.77.55,5.13,5.13,0,0,1-1.35.09,9,9,0,0,0-1.16,0,7.82,7.82,0,0,1,1.36,2.72,6.55,6.55,0,0,1,.19,3,7.43,7.43,0,0,1-2,3.94,8.13,8.13,0,0,1-3.84,2.22c3.11,1.34,4.46,3.2,4,5.59a4.73,4.73,0,0,1-3.42,3.68,13.59,13.59,0,0,1-7.08.34A11.58,11.58,0,0,1,107,33a5,5,0,0,1-1.73-4.44,1.87,1.87,0,0,1,.73-1.23,1.85,1.85,0,0,1,1.49-.28,1.69,1.69,0,0,1,1.21.87,6.4,6.4,0,0,1,.65,1.68,17.42,17.42,0,0,0,.61,1.95,4.28,4.28,0,0,0,1.32,1.82,5.75,5.75,0,0,0,6.09.58,3.72,3.72,0,0,0,1.8-2.7,4.3,4.3,0,0,0-.42-3,3.65,3.65,0,0,0-2.32-1.71,14.81,14.81,0,0,1-1.47-.19A9.38,9.38,0,0,1,109,23a7.1,7.1,0,0,1-1.58-6A7.63,7.63,0,0,1,111,11.69a9.55,9.55,0,0,1,6.94-1.1q1.06.2,3.24.78c1.44.39,3,.74,4.65,1A4.1,4.1,0,0,1,127.07,12.79Zm-14.25,9.14q1.07,2.68,3.11,3.05A3.56,3.56,0,0,0,119,24.2,5.22,5.22,0,0,0,120.7,21a10.89,10.89,0,0,0-.45-6A4.41,4.41,0,0,0,116.92,12a3.38,3.38,0,0,0-3,.79,5.4,5.4,0,0,0-1.6,3.15A11,11,0,0,0,112.82,21.93Z"/><path class="cls-3" d="M127.35,32.51a2.61,2.61,0,0,1-.26-2.27,2.65,2.65,0,0,1,1.45-1.8,3.69,3.69,0,0,1,4.26,1.25A2.59,2.59,0,0,1,133,32a2.58,2.58,0,0,1-1.43,1.77,3.7,3.7,0,0,1-4.26-1.25Zm7.29-25.86a1.55,1.55,0,0,1,.83-1,2.31,2.31,0,0,1,1.38-.22,5,5,0,0,1,1.42.39,2.19,2.19,0,0,1,1,.91A1.53,1.53,0,0,1,139.45,8q-1,3.18-3,8.59t-3.83,9.17c-.19.36-.57.46-1.13.29s-.83-.45-.79-.86A160,160,0,0,1,134.64,6.65Z"/><path class="cls-3" d="M136.48,35.37a2.59,2.59,0,0,1-.1-2.27A2.62,2.62,0,0,1,138,31.4a3.33,3.33,0,0,1,2.36.08,3.27,3.27,0,0,1,1.8,1.46,2.64,2.64,0,0,1,.09,2.31,2.61,2.61,0,0,1-1.56,1.66,3.27,3.27,0,0,1-2.32-.07A3.32,3.32,0,0,1,136.48,35.37Zm9.06-25.29a1.5,1.5,0,0,1,.88-.9,2.27,2.27,0,0,1,1.39-.13,5.29,5.29,0,0,1,1.4.49,2.16,2.16,0,0,1,1,1,1.54,1.54,0,0,1,.07,1.26c-.79,2.07-2,4.85-3.58,8.36S143.57,26.6,142.2,29c-.22.35-.6.42-1.15.22s-.79-.51-.73-.91A158.09,158.09,0,0,1,145.54,10.08Z"/><path class="cls-3" d="M145.41,38.87a2.62,2.62,0,0,1,.06-2.28A2.68,2.68,0,0,1,147.15,35a3.44,3.44,0,0,1,2.35.25,3.3,3.3,0,0,1,1.7,1.58,2.62,2.62,0,0,1-.08,2.31,2.58,2.58,0,0,1-1.66,1.56,3.7,3.7,0,0,1-4.05-1.83Zm10.79-24.6a1.48,1.48,0,0,1,1-.84,2.35,2.35,0,0,1,1.39,0,4.84,4.84,0,0,1,1.36.59,2.13,2.13,0,0,1,.89,1,1.54,1.54,0,0,1,0,1.26q-1.4,3-4.15,8.09t-5.07,8.55c-.23.33-.62.38-1.15.14s-.76-.56-.67-1A157,157,0,0,1,156.2,14.27Z"/><path class="cls-10" d="M507.71,448.75c-4.79,1.7-9.1,3.21-13.4,4.77-19.42,7-38.71,14.49-58.7,19.85a359.16,359.16,0,0,1-74.07,11.84c-43.89,2.35-86.76-3-128.5-16.95A280.09,280.09,0,0,1,206.67,458a4.28,4.28,0,0,0-3.94,0c-4.45,2.05-9.09,1.88-13.75.74l-3.41,1.47c-.67,10.15-2,20.17-5.59,29.78-2.34,6.35-5.32,12.31-10.16,17.17-11.34,11.38-26.58,10.82-37.15-1.31-5.46-6.26-8-13.84-9.84-21.71a122,122,0,0,1-3.25-32c0-.47-.06-.93-.09-1.4-18.74,5.06-36.92,11.56-54.11,20.68-14.64,7.77-28.1,17.15-39.46,29.34C9.25,518.63-.37,539.46,0,564.3c.35,23,9.29,41.52,28.21,55,8.57,6.13,17.56,11.65,25.88,18.15,17.16,13.43,31.62,29.18,42.16,48.36,1.84,3.35,3.52,6.81,5.54,10,3.34,5.33,8.07,6.75,14,4.49a34.7,34.7,0,0,0,8.49-4.9c11.8-8.92,20.2-20.72,28-33a335.35,335.35,0,0,0,20-36.8c4.39-10.46,8.64-21,12.1-31.79.94-3,1.86-5.93,2.78-8.89a441.6,441.6,0,0,0-45.23-15.22,82.53,82.53,0,0,1-10.68-3.48c5-.37,10-.8,15-1.12,29.57-1.88,59.17-1.17,88.76-1.23,23.75,0,47.49.07,71.23.14.58,0,1.24-.33,1.95.4-2.16,2.51-4.35,5-6.49,7.54l-37.71,44.78c-.49.59-1.07,1.11-1.61,1.66q-6.81,8.31-13.62,16.63c-15.94,19.51-31,39.63-43,61.88-5.42,10.06-9.91,20.47-11.37,31.94-.25,2-.34,4-.51,6,0,13,4.11,24.83,10,36.2a278.19,278.19,0,0,0,14.78,24.43c5.89,9,11.63,18.15,16.19,27.93,1.6,4,28,71.08,23.73,108.77-4.6,40.1,107.43,6.44,157.38-14.51,0,0-3.44-58.12-36.88-98.29l0-.05q-7.41-9.87-15.3-19.37a459.35,459.35,0,0,0-57.41-58.35c-1.34-1.13-1.78-1.69.11-2.86,11.87-7.38,23.4-15.28,34.68-23.54a629.56,629.56,0,0,0,56.57-46.93c-8.57-32.93,3.59-58.91,27.44-80.75,11.79-10.8,25.64-18.44,40.28-24.68.5-.21,1-.44,1.49-.67l.51-.33h0c.57-4.15,2.57-7.82,4.06-11.64,6.52-16.71,13.39-33.29,20.44-49.79,3.19-7.45,6.45-14.88,9.7-22.31a17.43,17.43,0,0,1,1-1.83C498.85,466.38,501.84,457.56,507.71,448.75Z"/></g></g></svg>