<svg xmlns="http://www.w3.org/2000/svg" viewBox="0 0 45.18 21.69"><defs><style>.cls-1{fill:#2d0242;}.cls-2{fill:none;stroke:#2d0242;stroke-miterlimit:10;stroke-width:0.75px;}</style></defs><g id="Capa_2" data-name="Capa 2"><g id="Diseño"><path class="cls-1" d="M19.35,14.59l3.39-3.74c.89-1,1.74-2,1.74-2.94a1.76,1.76,0,0,0-1.93-1.79c-1.36,0-1.92,1-2,2.25H19.47c0-2.48,1.59-3.32,3.09-3.32a2.79,2.79,0,0,1,3.1,2.82c0,1.15-.56,2.07-1.73,3.33l-3.08,3.32h4.82v1.07H19.35Z"/><path class="cls-2" d="M44.81,10.84c0,5.79-10,10.47-22.22,10.47S.38,16.63.38,10.84,10.32.38,22.59.38,44.81,5.06,44.81,10.84Z"/></g></g></svg>