<svg xmlns="http://www.w3.org/2000/svg" viewBox="0 0 213 89.14"><defs><style>.cls-1{fill:#003032;}.cls-2{fill:#fff;}</style></defs><g id="Capa_2" data-name="Capa 2"><g id="Diseño"><path class="cls-1" d="M136.34,44.24c.52,7.11.55,14.29,3.56,21a52.31,52.31,0,0,0,5.17,9.13,1.72,1.72,0,0,0,2.16.8C172.11,68.7,194,56.92,212.32,38.73c1-1,.85-1.5,0-2.38-3.68-3.64-8.71-5-13.29-2.8-11.69,5.64-23.7,5.5-36,2.6-.48-.12-1-.18-1.47-.27a20.62,20.62,0,0,1-2.22,4.52c-3.41,5.18-8.15,7.58-14.37,6.82A28.53,28.53,0,0,1,136.34,44.24Z"/><path class="cls-1" d="M9.33,56.13A46.83,46.83,0,0,0,.14,82.34C0,84.16.09,86,0,87.79c0,.95.22,1.45,1.25,1.32a7.37,7.37,0,0,1,.94,0q39.72,0,79.44,0c1.78,0,2.39-.47,2.42-2.26,0-3.36-1.66-5.54-4.34-7.18-3.25-2-6.92-2.16-10.55-2.1-7.62.13-13.94-3-19.87-7.38a113.67,113.67,0,0,1-11.44-10A32.58,32.58,0,0,1,31.63,64c-7.57,3.41-14.44,2.06-19.45-3.9C11.14,58.82,10.27,57.44,9.33,56.13Z"/><path class="cls-2" d="M9.33,56.13c.94,1.31,1.81,2.69,2.85,3.93,5,6,11.88,7.31,19.45,3.9a32.58,32.58,0,0,0,6.22-3.78L50.19,33.45c.33-.73.61-1.49.92-2.24A78.49,78.49,0,0,1,23.28,20.9c-1,4.2-1.68,8.44-2.8,12.61A65.85,65.85,0,0,1,11,53.4C10.37,54.27,9.87,55.22,9.33,56.13Z"/><path class="cls-2" d="M136.34,44.24a28.53,28.53,0,0,0,8.63,3c6.22.76,11-1.64,14.37-6.82a20.62,20.62,0,0,0,2.22-4.52L148.84,1.26c-.17-.46-.23-1-.73-1.26A40.34,40.34,0,0,1,121,15.35a9.28,9.28,0,0,0-.91.22q5.64,8.22,11.27,16.43A27.51,27.51,0,0,1,136.34,44.24Z"/></g></g></svg>