<svg xmlns="http://www.w3.org/2000/svg" viewBox="0 0 141.59 97.82"><defs><style>.cls-1{fill:#003032;}.cls-2{fill:#fff;}</style></defs><g id="Capa_2" data-name="Capa 2"><g id="Diseño"><rect class="cls-1" x="57.37" y="13.77" width="79.53" height="40.24" transform="translate(-5.56 40.06) rotate(-22.67)"/><path class="cls-2" d="M119.22,8.64A5.27,5.27,0,0,0,124.89,11L133,30.27a5.19,5.19,0,0,0-2.07,2.46,5.28,5.28,0,0,0-.26,3.21L75.06,59.14a5.34,5.34,0,0,0-5.67-2.33L61.33,37.52a5.3,5.3,0,0,0,2.33-5.67L119.22,8.64m.41-1.13L62.57,31.34a4.41,4.41,0,0,1-2.37,5.77l8.69,20.8a4.24,4.24,0,0,1,1.7-.35,4.4,4.4,0,0,1,4.06,2.71l57.06-23.83a4.4,4.4,0,0,1,2.37-5.76l-8.69-20.8a4.4,4.4,0,0,1-5.76-2.37Z"/><path class="cls-2" d="M97.14,26.63h0a7.26,7.26,0,0,1,2.8,14,7.12,7.12,0,0,1-2.8.57,7.27,7.27,0,0,1-2.8-14,7.33,7.33,0,0,1,2.8-.56m0-.89a8.15,8.15,0,1,0,7.52,5,8.11,8.11,0,0,0-7.52-5Z"/><rect class="cls-1" x="4.8" y="41.68" width="79.53" height="40.24" transform="translate(33.02 -13.51) rotate(27.08)"/><path class="cls-2" d="M24.5,34.92,78.1,62.33A5.31,5.31,0,0,0,80,68.16L70.47,86.78a5.31,5.31,0,0,0-5.83,1.89L11,61.26a5.25,5.25,0,0,0,0-3.21,5.35,5.35,0,0,0-1.87-2.62l9.52-18.62a5.31,5.31,0,0,0,5.83-1.89m-.32-1.16a4.4,4.4,0,0,1-5.94,1.92L8,55.75A4.4,4.4,0,0,1,9.9,61.68L65,89.83a4.41,4.41,0,0,1,3.93-2.4,4.36,4.36,0,0,1,2,.48L81.15,67.84a4.4,4.4,0,0,1-1.92-5.93l-55-28.15Z"/><path class="cls-2" d="M44.57,54.53h0a7.15,7.15,0,0,1,3.3.8,7.25,7.25,0,1,1-3.3-.8m0-.89a8.16,8.16,0,1,0,3.71.9,8.15,8.15,0,0,0-3.71-.9Z"/></g></g></svg>