<svg xmlns="http://www.w3.org/2000/svg" viewBox="0 0 87.51 80.53"><defs><style>.cls-1{fill:#003032;}.cls-2{fill:#fff;}</style></defs><g id="Capa_2" data-name="Capa 2"><g id="Diseño"><rect class="cls-1" x="3.99" y="20.15" width="79.53" height="40.24" transform="translate(-15.5 35.25) rotate(-37.78)"/><path class="cls-2" d="M58.49,10.13a5.28,5.28,0,0,0,6.08.77L77.38,27.43a5.31,5.31,0,0,0-.77,6.08L29,70.4a5.29,5.29,0,0,0-6.09-.77L10.13,53.1A5.3,5.3,0,0,0,10.9,47L58.49,10.13m.1-1.2L9.72,46.82A4.4,4.4,0,0,1,8.93,53L22.74,70.81a4.42,4.42,0,0,1,6.19.79L77.8,33.72a4.42,4.42,0,0,1,.78-6.19L64.77,9.72a4.41,4.41,0,0,1-6.18-.79Z"/><path class="cls-2" d="M43.75,33h0a7.26,7.26,0,1,1-4.44,1.52A7.23,7.23,0,0,1,43.75,33m0-.89a8.15,8.15,0,1,0,6.45,3.16,8.15,8.15,0,0,0-6.45-3.16Z"/></g></g></svg>