<svg xmlns="http://www.w3.org/2000/svg" viewBox="0 0 328.51 66.88"><defs><style>.cls-1{fill:#fff;}</style></defs><g id="Capa_2" data-name="Capa 2"><g id="Diseño"><path class="cls-1" d="M19.93,1.36A22.85,22.85,0,0,1,37.13,8.6a24.59,24.59,0,0,1,6.95,17.85A24.59,24.59,0,0,1,37.13,44.3a22.85,22.85,0,0,1-17.2,7.24H0V1.36Zm0,40.72a14,14,0,0,0,10.61-4.3,16,16,0,0,0,4.08-11.33c0-4.66-1.36-8.39-4.08-11.25a13.76,13.76,0,0,0-10.61-4.38h-10V42.08Z"/><path class="cls-1" d="M48.17,5.73a5.7,5.7,0,1,1,11.4,0,5.7,5.7,0,0,1-11.4,0Zm1.08,45.81V15.7h9.24V51.54Z"/><path class="cls-1" d="M95.12,18.64C97.7,21.29,99,24.87,99,29.53v22H89.75V30.68c0-4.8-2.8-7.38-7.1-7.38-4.8,0-7.88,2.94-7.88,8.89V51.54H65.52V15.7h9.25v4c2.22-3.37,5.8-5,10.68-5A12.7,12.7,0,0,1,95.12,18.64Z"/><path class="cls-1" d="M132.9,15.7h9V49.82c0,5.52-1.86,9.75-5.52,12.69a20.31,20.31,0,0,1-13.19,4.37c-7.74,0-13.83-3-17-8.75l7.89-4.51c1.79,3.37,4.95,5,9.39,5,5.81,0,9.39-3.16,9.39-8.82V46c-2.72,3.65-6.52,5.45-11.47,5.45a17.16,17.16,0,0,1-12.76-5.31,18.42,18.42,0,0,1-5.09-13,18,18,0,0,1,5.16-13,16.92,16.92,0,0,1,12.69-5.38c4.95,0,8.75,1.8,11.47,5.45ZM130,26.09a9.67,9.67,0,0,0-7.17-2.79,10,10,0,0,0-7.24,2.79,9.3,9.3,0,0,0-2.79,7c0,5.73,4.23,9.82,10,9.82s10-4.09,10-9.82A9.08,9.08,0,0,0,130,26.09Z"/><path class="cls-1" d="M168.63,1.36a22.85,22.85,0,0,1,17.2,7.24,24.59,24.59,0,0,1,6.95,17.85,24.59,24.59,0,0,1-6.95,17.85,22.85,22.85,0,0,1-17.2,7.24H148.7V1.36Zm0,40.72a14,14,0,0,0,10.61-4.3,16,16,0,0,0,4.08-11.33c0-4.66-1.36-8.39-4.08-11.25a13.76,13.76,0,0,0-10.61-4.38h-10V42.08Z"/><path class="cls-1" d="M215,52.54a18.6,18.6,0,0,1-18.93-18.92,18.16,18.16,0,0,1,5.45-13.41,19.21,19.21,0,0,1,26.95,0A18.22,18.22,0,0,1,234,33.62a18.72,18.72,0,0,1-19,18.92Zm0-9a9.42,9.42,0,0,0,7-2.79,9.64,9.64,0,0,0,2.79-7.1,9.64,9.64,0,0,0-2.79-7.1,10.06,10.06,0,0,0-13.91,0,9.87,9.87,0,0,0-2.72,7.1,9.87,9.87,0,0,0,2.72,7.1A9.43,9.43,0,0,0,215,43.51Z"/><path class="cls-1" d="M268.7,18.64c2.58,2.65,3.87,6.23,3.87,10.89v22h-9.25V30.68c0-4.8-2.8-7.38-7.1-7.38-4.8,0-7.88,2.94-7.88,8.89V51.54h-9.25V15.7h9.25v4c2.22-3.37,5.8-5,10.68-5A12.73,12.73,0,0,1,268.7,18.64Z"/><path class="cls-1" d="M286.83,37.42c1.22,4.51,4.59,6.74,10.11,6.74,3.51,0,6.24-1.22,8-3.59l7.45,4.3c-3.51,5.09-8.74,7.67-15.62,7.67-5.95,0-10.68-1.79-14.27-5.37a18.39,18.39,0,0,1-5.37-13.55,18.56,18.56,0,0,1,5.3-13.48,18.11,18.11,0,0,1,13.62-5.45,16.91,16.91,0,0,1,13,5.45,18.86,18.86,0,0,1,5.17,13.48,24.81,24.81,0,0,1-.36,3.8ZM305,30.25A8.67,8.67,0,0,0,296.08,23c-4.95,0-8.32,2.65-9.39,7.24Z"/><path class="cls-1" d="M317.11,47a5.7,5.7,0,1,1,5.66,5.66A5.72,5.72,0,0,1,317.11,47Z"/></g></g></svg>