<svg xmlns="http://www.w3.org/2000/svg" viewBox="0 0 141.35 28.78">
    <defs>
        <style>.cls-1{fill:white;}</style>
    </defs>
    <g id="Capa_2" data-name="Capa 2">
        <g id="Diseño">
            <path class="cls-1" d="M8.57.59A9.82,9.82,0,0,1,16,3.7a10.62,10.62,0,0,1,3,7.68,10.62,10.62,0,0,1-3,7.68,9.83,9.83,0,0,1-7.41,3.12H0V.59Zm0,17.51a6,6,0,0,0,4.57-1.85,6.84,6.84,0,0,0,1.76-4.87,6.73,6.73,0,0,0-1.76-4.84A5.89,5.89,0,0,0,8.57,4.66H4.26V18.1Z"/>
            <path class="cls-1" d="M20.73,2.47a2.45,2.45,0,1,1,4.9,0,2.45,2.45,0,0,1-4.9,0Zm.46,19.71V6.75h4V22.18Z"/>
            <path class="cls-1" d="M40.93,8a6.4,6.4,0,0,1,1.66,4.69v9.47h-4v-9a2.86,2.86,0,0,0-3-3.18c-2.06,0-3.39,1.27-3.39,3.83v8.33h-4V6.75h4V8.48a5.11,5.11,0,0,1,4.59-2.16A5.48,5.48,0,0,1,40.93,8Z"/>
            <path class="cls-1" d="M57.18,6.75h3.89V21.44a6.57,6.57,0,0,1-2.38,5.45A8.7,8.7,0,0,1,53,28.78c-3.33,0-6-1.3-7.31-3.77l3.39-1.94a4.18,4.18,0,0,0,4,2.16c2.5,0,4-1.36,4-3.79V19.77a5.76,5.76,0,0,1-4.93,2.34,7.38,7.38,0,0,1-5.49-2.28,7.91,7.91,0,0,1-2.19-5.61,7.74,7.74,0,0,1,2.22-5.58,7.25,7.25,0,0,1,5.46-2.32,5.75,5.75,0,0,1,4.93,2.35ZM56,11.23A4.14,4.14,0,0,0,52.86,10a4.24,4.24,0,0,0-3.11,1.21,4,4,0,0,0-1.2,3,4.32,4.32,0,0,0,8.63,0A3.92,3.92,0,0,0,56,11.23Z"/>
            <path class="cls-1" d="M72.55.59A9.82,9.82,0,0,1,80,3.7a10.62,10.62,0,0,1,3,7.68,10.62,10.62,0,0,1-3,7.68,9.83,9.83,0,0,1-7.41,3.12H64V.59Zm0,17.51a6,6,0,0,0,4.57-1.85,6.84,6.84,0,0,0,1.76-4.87,6.73,6.73,0,0,0-1.76-4.84,5.89,5.89,0,0,0-4.57-1.88H68.24V18.1Z"/>
            <path class="cls-1" d="M92.51,22.61a8,8,0,0,1-8.14-8.14A7.81,7.81,0,0,1,86.71,8.7a8.17,8.17,0,0,1,14,5.77,8.06,8.06,0,0,1-8.17,8.14Zm0-3.89a4,4,0,0,0,3-1.2,4.14,4.14,0,0,0,1.2-3,4.14,4.14,0,0,0-1.2-3.06,4.33,4.33,0,0,0-6,0,4.24,4.24,0,0,0-1.17,3.06,4.24,4.24,0,0,0,1.17,3A4,4,0,0,0,92.51,18.72Z"/>
            <path class="cls-1" d="M115.61,8a6.4,6.4,0,0,1,1.67,4.69v9.47h-4v-9A2.86,2.86,0,0,0,110.24,10c-2.06,0-3.39,1.27-3.39,3.83v8.33h-4V6.75h4V8.48a5.11,5.11,0,0,1,4.6-2.16A5.47,5.47,0,0,1,115.61,8Z"/>
            <path class="cls-1" d="M123.41,16.1c.53,1.94,2,2.9,4.35,2.9a4.13,4.13,0,0,0,3.46-1.54l3.21,1.85a7.68,7.68,0,0,1-6.73,3.3,8.27,8.27,0,0,1-6.14-2.32,7.89,7.89,0,0,1-2.31-5.82,8,8,0,0,1,2.28-5.8,7.77,7.77,0,0,1,5.86-2.35A7.25,7.25,0,0,1,133,8.67a8.1,8.1,0,0,1,2.22,5.8A10.81,10.81,0,0,1,135,16.1ZM131.22,13a3.73,3.73,0,0,0-3.83-3.12,3.85,3.85,0,0,0-4,3.12Z"/>
            <path class="cls-1" d="M136.44,20.22a2.46,2.46,0,1,1,2.44,2.43A2.46,2.46,0,0,1,136.44,20.22Z"/>
        </g>
    </g>
</svg>