<?xml version="1.0" encoding="utf-8"?>
<!-- Generator: Adobe Illustrator 25.0.1, SVG Export Plug-In . SVG Version: 6.00 Build 0)  -->
<svg version="1.1" id="Capa_1" xmlns="http://www.w3.org/2000/svg" xmlns:xlink="http://www.w3.org/1999/xlink" x="0px" y="0px"
	 viewBox="0 0 1530.5 306.2" style="enable-background:new 0 0 1530.5 306.2;" xml:space="preserve">
<style type="text/css">
	.st0{fill:none;}
	.st1{fill:#FFFFFF;}
	.st2{fill:#01755E;}
	.st3{opacity:0.36;fill:#01755E;enable-background:new    ;}
	.st4{opacity:0.36;fill-rule:evenodd;clip-rule:evenodd;fill:#01755E;enable-background:new    ;}
</style>
<g id="Capa_2_1_">
	<g id="Diseño">
		<rect class="st0" width="1530.5" height="306.2"/>
		<path class="st1" d="M645.6,122c-2-1.5-3.1-3.1-3.1-4.8c0-0.5,0.2-1.1,0.5-1.5c0.4-0.4,0.9-0.6,1.4-0.5c0.5,0,1.1,0.2,1.5,0.6
			c0.4,0.4,0.8,0.8,1,1.3c0.3,0.6,0.6,1.2,1,1.7c0.4,0.6,0.8,1.2,1.3,1.7c0.5,0.6,1.2,1,2,1.3c1,0.4,2,0.5,3.1,0.5
			c1.5,0.1,2.9-0.4,4-1.3c1-0.9,1.6-2.1,1.5-3.5c0-1.1-0.3-2.1-0.9-3c-0.6-0.8-1.4-1.4-2.4-1.8c-1.1-0.4-2.1-0.7-3.2-0.9
			c-1.2-0.3-2.4-0.6-3.6-0.9c-1.1-0.3-2.2-0.7-3.2-1.3c-1-0.6-1.8-1.4-2.4-2.4c-0.6-1.3-1-2.7-0.9-4.1c0-2.2,1-4.4,2.8-5.7
			c2.2-1.6,4.9-2.4,7.6-2.3c2.7-0.1,5.5,0.6,7.8,2.1c2,1.4,3,2.9,2.9,4.6c0.1,1-0.6,1.9-1.6,2c-0.2,0-0.3,0-0.5,0
			c-0.5,0-1.1-0.2-1.5-0.5c-0.4-0.3-0.7-0.8-0.9-1.3c-0.2-0.6-0.5-1.1-0.8-1.7c-0.3-0.6-0.7-1.1-1.1-1.7c-0.5-0.6-1-1-1.7-1.3
			c-0.9-0.4-1.8-0.5-2.7-0.5c-1.4-0.1-2.8,0.4-3.9,1.4c-0.9,0.9-1.4,2.1-1.4,3.4c0,1,0.3,2.1,0.9,2.9c0.6,0.8,1.5,1.4,2.4,1.7
			c1.1,0.4,2.1,0.7,3.2,1c1.2,0.3,2.4,0.6,3.6,1c1.1,0.3,2.2,0.8,3.2,1.4c1,0.6,1.8,1.4,2.4,2.5c0.6,1.2,1,2.6,0.9,4
			c0.1,2.4-1.1,4.6-3.1,5.9c-2.2,1.5-4.8,2.3-7.5,2.2C650.5,124.3,647.7,123.6,645.6,122z"/>
		<path class="st1" d="M667,123.3v-0.2c0-0.2,0.2-0.6,0.7-1c0.5-0.4,0.7-1,0.7-1.6v-10.5c0-0.6-0.3-1.3-0.7-1.7
			c-0.5-0.5-0.7-0.9-0.7-1v-0.1c0-0.2,0.2-0.5,0.7-0.7l4-2c0.3-0.2,0.7-0.2,1.1-0.1c0.3,0.1,0.4,0.4,0.4,0.7v15.4
			c0,0.6,0.3,1.2,0.8,1.6c0.5,0.5,0.8,0.8,0.8,1v0.2c0,0.4-0.3,0.6-0.9,0.6h-6.1C667.3,123.9,667,123.7,667,123.3z M668.4,100.6
			c-1.2-1.1-1.2-3-0.1-4.2c0,0,0.1-0.1,0.1-0.1c0.7-0.6,1.5-0.9,2.4-0.8c0.9,0,1.7,0.3,2.3,0.8c1.2,1.1,1.2,3,0.1,4.2
			c0,0-0.1,0.1-0.1,0.1c-0.6,0.6-1.5,0.9-2.3,0.8C669.9,101.5,669.1,101.2,668.4,100.6z"/>
		<path class="st1" d="M695.7,104.9c0.3,0.1,0.5,0.2,0.5,0.4c0,0.2,0,0.4-0.1,0.6c-0.1,0.3-0.4,0.6-0.7,0.7
			c-0.4,0.2-0.9,0.3-1.3,0.3c-0.4,0-0.8,0.1-1.1,0.2c0.8,0.7,1.4,1.5,1.8,2.4c0.5,0.9,0.7,1.9,0.7,2.9c0,1.5-0.4,3-1.2,4.2
			c-0.8,1.3-2,2.2-3.4,2.9c3.3,0.8,5,2.4,5,4.8c0,1.8-1.1,3.4-2.7,4.2c-2.1,1.1-4.5,1.7-6.9,1.6c-2.4,0.1-4.7-0.5-6.8-1.7
			c-1.5-0.8-2.4-2.4-2.5-4.1c0-0.5,0.2-1,0.5-1.3c0.4-0.4,0.9-0.6,1.4-0.5c0.5,0,1,0.2,1.3,0.6c0.4,0.5,0.7,1,0.9,1.5
			c0.3,0.6,0.6,1.2,0.9,1.8c0.4,0.7,1,1.2,1.6,1.6c2,1,4.3,0.8,6.1-0.5c0.9-0.7,1.3-1.9,1.3-3c0-1-0.3-2-0.9-2.8
			c-0.7-0.8-1.6-1.2-2.6-1.3c-0.6,0.1-1.1,0.1-1.5,0.1c-2.3,0.1-4.6-0.7-6.4-2.3c-1.7-1.4-2.6-3.4-2.6-5.6c-0.1-2.3,0.9-4.4,2.6-5.9
			c1.8-1.6,4.2-2.4,6.6-2.3c0.7,0,1.8,0.1,3.3,0.2s3.1,0.2,4.8,0.2C694.9,104.7,695.3,104.8,695.7,104.9z M683.3,116.4
			c1,1.6,2.2,2.5,3.6,2.5c1.1,0,2.2-0.4,2.9-1.3c0.8-1,1.1-2.2,1.1-3.4c0.1-2-0.5-4.1-1.5-5.8c-0.7-1.5-2.2-2.4-3.8-2.4
			c-1.1,0-2.1,0.4-2.8,1.3c-0.7,1-1.1,2.2-1,3.4C681.8,112.6,682.3,114.6,683.3,116.4z"/>
		<path class="st1" d="M717.7,121.7c0.1,0.3,0.4,0.5,0.7,0.6c0.2,0,0.5,0.1,0.7,0.2c0.2,0.1,0.3,0.4,0.3,0.6c0,0.7-1,1-3,1
			c-0.9,0.1-1.8-0.2-2.5-0.7c-0.6-0.6-0.9-1.4-0.8-2.3c-1.2,2.1-3.2,3.1-6,3.1c-2,0.1-4-0.7-5.4-2.2c-1.3-1.5-2-3.6-2-6.5v-6.9
			c0-0.6-0.3-1.2-0.8-1.7c-0.5-0.5-0.8-0.8-0.8-1v-0.1c0-0.4,0.2-0.6,0.7-0.7l4.2-0.7c0.9-0.1,1.4,0.1,1.4,0.6l-0.1,11
			c0,4.2,1.3,6.4,4,6.4c1.2,0,2.3-0.5,3.1-1.5c0.9-1.1,1.3-2.5,1.2-3.9v-8.3c0-0.6-0.3-1.2-0.8-1.7c-0.5-0.5-0.8-0.8-0.8-1V106
			c0-0.4,0.2-0.6,0.7-0.7l4.3-0.7c0.8-0.1,1.3,0.1,1.3,0.6v15.1C717.4,120.8,717.5,121.3,717.7,121.7z"/>
		<path class="st1" d="M738.4,117.7c0.3,0.1,0.5,0.4,0.5,0.7c0,0,0,0,0,0c-0.3,1.6-1.2,3-2.5,4c-1.6,1.3-3.6,2-5.6,1.9
			c-2.6,0.1-5-0.9-6.8-2.8c-1.8-2-2.8-4.6-2.7-7.4c-0.1-2.6,0.9-5.1,2.8-7c1.8-1.8,4.2-2.9,6.8-2.8c2-0.1,4,0.5,5.5,1.8
			c1.2,1,1.9,2.5,1.9,4.1c0.1,1.3-0.8,2.4-2,2.8l-9.7,3.6c0.4,1.3,1.2,2.4,2.3,3.2c1,0.8,2.3,1.2,3.6,1.2c1.1,0,2.2-0.3,3.1-0.8
			c0.9-0.5,1.6-1.2,2-2.1C737.8,117.8,738.1,117.7,738.4,117.7z M727,107.7c-0.8,1.4-1.2,3.1-1.1,4.7c0,0.9,0.1,1.7,0.2,2.6l6.6-2.9
			c0.7-0.3,1.1-1,1-1.7c0-1.1-0.4-2.1-1.1-3c-0.6-0.9-1.6-1.5-2.7-1.5C728.7,105.9,727.6,106.6,727,107.7z"/>
		<path class="st1" d="M752.4,122.7c-1.1-1.4-1.6-3.1-1.5-4.8v-11.2h-2.3c-0.3,0-0.6-0.2-0.6-0.5c0-0.1,0-0.1,0-0.2v-0.6
			c0-0.5,0.2-0.7,0.7-0.7h1.2c0.9,0,1.8-0.3,2.5-1c0.7-0.8,1.1-1.8,1.2-2.8c0.1-0.6,0.3-0.9,0.8-0.9h0.6c0.5,0,0.8,0.3,0.8,0.9v3.9
			h5c0.2,0,0.4,0.1,0.5,0.2c0.1,0.1,0.2,0.3,0.2,0.5v0.5c0,0.4-0.2,0.7-0.7,0.7h-5v11.2c-0.1,0.8,0.2,1.6,0.6,2.2
			c0.4,0.5,1,0.8,1.6,0.8c1.4,0.2,2.6-0.7,2.8-2.1c0.1-0.2,0.3-0.3,0.5-0.4c0.2-0.1,0.4,0,0.6,0.1c0.2,0.1,0.3,0.3,0.3,0.5
			c0,1.4-0.5,2.8-1.5,3.8c-1.1,1.1-2.6,1.7-4.1,1.6C755,124.4,753.5,123.8,752.4,122.7z"/>
		<path class="st1" d="M782.8,121.7c0.1,0.3,0.4,0.5,0.7,0.6c0.2,0,0.5,0.1,0.7,0.2c0.2,0.1,0.3,0.4,0.3,0.6c0,0.7-1,1-3,1
			c-0.9,0.1-1.8-0.2-2.5-0.7c-0.6-0.6-0.9-1.4-0.8-2.3c-1.2,2.1-3.2,3.1-6,3.1c-2,0.1-4-0.7-5.4-2.2c-1.3-1.5-2-3.6-2-6.5v-6.9
			c0-0.6-0.3-1.2-0.8-1.7c-0.5-0.5-0.8-0.8-0.8-1v-0.1c0-0.4,0.2-0.6,0.7-0.7l4.2-0.7c0.9-0.1,1.4,0.1,1.4,0.6l-0.1,11
			c0,4.2,1.3,6.4,4,6.4c1.2,0,2.3-0.5,3.1-1.5c0.9-1.1,1.3-2.5,1.2-3.9v-8.3c0-0.6-0.3-1.2-0.8-1.7c-0.5-0.5-0.8-0.8-0.8-1V106
			c0-0.4,0.2-0.6,0.7-0.7l4.3-0.7c0.8-0.1,1.3,0.1,1.3,0.6v15.1C782.4,120.8,782.5,121.3,782.8,121.7z"/>
		<path class="st1" d="M811.9,117.7c0.3,0.1,0.5,0.4,0.5,0.7c0,0,0,0,0,0c-0.3,1.6-1.2,3-2.5,4c-1.6,1.3-3.6,2-5.6,1.9
			c-2.6,0.1-5-0.9-6.8-2.8c-1.8-2-2.8-4.6-2.7-7.4c-0.1-2.6,0.9-5.1,2.8-7c1.8-1.8,4.2-2.9,6.8-2.8c2-0.1,4,0.5,5.5,1.8
			c1.2,1,1.9,2.5,1.9,4.1c0.1,1.3-0.8,2.4-2,2.8l-9.8,3.5c0.4,1.3,1.2,2.4,2.3,3.2c1,0.8,2.3,1.2,3.6,1.2c1.1,0,2.2-0.3,3.1-0.8
			c0.9-0.5,1.6-1.2,2-2.1C811.2,117.8,811.5,117.6,811.9,117.7z M800.5,107.7c-0.8,1.4-1.2,3.1-1.1,4.7c0,0.9,0.1,1.7,0.2,2.6
			l6.6-2.9c0.7-0.3,1.1-1,1-1.7c0-1.1-0.4-2.1-1.1-3c-0.6-0.9-1.6-1.5-2.7-1.5C802.2,105.9,801.1,106.6,800.5,107.7z"/>
		<path class="st1" d="M835.1,122.2c0.5,0.5,0.7,0.8,0.7,1.1v0.2c0,0.4-0.3,0.6-0.9,0.6H829c-0.6,0-0.9-0.2-0.9-0.6v-0.2
			c0-0.2,0.2-0.6,0.7-1.1c0.5-0.4,0.7-1,0.7-1.6l-0.4-7.7c-0.2-4.4-1.6-6.6-4.2-6.6c-1.2,0-2.3,0.5-3,1.4c-0.8,1-1.2,2.3-1.2,3.6
			v9.4c0,0.6,0.3,1.2,0.8,1.6c0.5,0.5,0.8,0.8,0.8,1v0.2c0,0.4-0.3,0.6-0.9,0.6h-6.2c-0.6,0-0.8-0.2-0.8-0.6v-0.2
			c0-0.2,0.3-0.6,0.8-1c0.5-0.4,0.8-0.9,0.8-1.6v-10.7c0-0.5-0.1-0.9-0.5-1.2c-0.3-0.3-0.6-0.6-0.9-0.8c-0.2-0.1-0.4-0.4-0.4-0.7
			v-0.1c0-0.3,0.2-0.5,0.7-0.7l3.9-1.9c0.4-0.2,0.7-0.2,0.9-0.1c0.2,0.2,0.3,0.5,0.3,0.8v2.6c0.5-1.1,1.4-2,2.4-2.6
			c2.9-1.6,6.5-1.1,8.8,1.2c1.4,1.4,2.2,3.6,2.4,6.6l0.5,7.6C834.3,121.2,834.6,121.8,835.1,122.2z"/>
		<path class="st1" d="M856.6,105.3v0.1c0,0.3-0.3,0.6-1,1.1c-0.6,0.4-1,0.9-1.3,1.5l-6,15c-0.1,0.5-0.6,0.9-1.2,0.9h-1.7
			c-0.5,0-1-0.4-1.2-0.9l-7.1-15c-0.3-0.5-0.6-1-1.1-1.4c-0.5-0.5-0.8-0.9-0.8-1.2v-0.1c0-0.4,0.2-0.6,0.7-0.6h6.7
			c0.5,0,0.7,0.2,0.7,0.6v0.1c0,0.3-0.2,0.5-0.4,0.7c-0.2,0.2-0.4,0.5-0.6,0.8c-0.2,0.4-0.2,0.8,0,1.2l4.9,12.4l4.7-11.9
			c0.2-0.5,0.2-1.1,0-1.7c-0.2-0.3-0.5-0.6-0.9-0.9c-0.4-0.3-0.5-0.5-0.5-0.7v-0.1c0-0.4,0.2-0.6,0.7-0.6h4.4
			C856.4,104.8,856.6,104.9,856.6,105.3z"/>
		<path class="st1" d="M857,101.5c-0.3-0.4-0.1-0.9,0.2-1.2l7-5.2c0.3-0.4,1-0.5,1.4-0.2c0.2,0.1,0.3,0.3,0.4,0.5l0.8,1.8
			c0.2,0.3,0.2,0.6,0.1,0.9c-0.1,0.3-0.4,0.6-0.8,0.6l-7.9,3C857.8,102,857.3,101.9,857,101.5z M857.6,123.3v-0.2
			c0-0.2,0.2-0.6,0.7-1c0.5-0.4,0.7-1,0.7-1.6v-10.5c0-0.6-0.3-1.3-0.7-1.7c-0.5-0.5-0.7-0.9-0.7-1v-0.1c0-0.2,0.2-0.5,0.7-0.7l4-2
			c0.3-0.2,0.7-0.2,1.1-0.1c0.3,0.2,0.4,0.4,0.4,0.7v15.4c0,0.6,0.3,1.2,0.8,1.6c0.5,0.5,0.8,0.8,0.8,1v0.2c0,0.4-0.3,0.6-0.9,0.6
			h-6.1C857.9,123.9,857.6,123.7,857.6,123.3L857.6,123.3z"/>
		<path class="st1" d="M870.6,121.3c-1.9-1.9-3-4.5-3-7.2c-0.1-2.6,1-5.2,2.9-7c1.9-1.8,4.4-2.8,7-2.8c2.8-0.1,5.6,1,7.6,2.9
			c2,1.9,3,4.5,3,7.2c0.1,2.6-0.9,5.1-2.7,7c-1.8,1.9-4.4,2.9-7,2.8C875.5,124.4,872.7,123.4,870.6,121.3z M882.2,121
			c0.9-1.5,1.3-3.2,1.2-4.9c0.1-2.5-0.6-5-1.8-7.2c-1.2-2-2.7-3-4.5-3c-1.4,0-2.7,0.6-3.4,1.7c-0.9,1.5-1.4,3.2-1.3,5
			c0,2.5,0.6,4.9,1.9,7.1c1.3,2.1,2.9,3.2,4.8,3.2C880.4,122.8,881.6,122.1,882.2,121L882.2,121z"/>
		<path class="st1" d="M572,151h386.5c16.1,0,29.2,13.1,29.2,29.2v0c0,16.1-13.1,29.2-29.2,29.2H572c-16.1,0-29.2-13.1-29.2-29.2v0
			C542.8,164.1,555.9,151,572,151z"/>
		<path class="st2" d="M1369.7,122.1c-0.6,1.2-1.2,2.4-1.8,3.7c-0.9,1.8-1.8,3.6-2.8,5.5c-2.8,5.1-5.9,10.4-9.4,15.9
			c-6.7,10.3-14.1,20.3-22,29.7c-0.9,1.1-1.8,2.2-2.8,3.3c-3.5,4.1-7.1,8.1-10.7,11.8c-5.7,6-11.4,11.5-17,16.4
			c-2.5,2.3-5,4.4-7.5,6.4c-23.7,19.2-44.7,27.8-54,20c-8.4-7-5.4-25.7,5.9-48.8c2.1-4.4,4.6-8.9,7.3-13.6
			c3.9-6.6,8.3-13.4,13.3-20.3l1.3-1.8c0.8-1.1,1.7-2.3,2.5-3.4l1.6-2.1c2.7-3.6,5.6-7.1,8.6-10.7c11.3-13.6,23.8-26.1,37.3-37.4
			c6.2-5.2,12.9-9.9,19.8-14.1c15.4-9.1,28.1-12,34.8-6.4C1382.3,82.7,1379.9,100.2,1369.7,122.1z"/>
		<path class="st2" d="M1369.7,122.1c-0.6,1.2-1.2,2.4-1.8,3.7c-0.9,1.8-1.8,3.6-2.8,5.5c-2.8,5.1-5.9,10.4-9.4,15.9
			c-6.7,10.3-14.1,20.3-22,29.7c-0.9,1.1-1.8,2.2-2.8,3.3c-3.5,4.1-7.1,8.1-10.7,11.8c-5.7,6-11.4,11.5-17,16.4
			c-2.5,2.3-5,4.4-7.5,6.4c-23.7,19.2-44.7,27.8-54,20c-8.4-7-5.4-25.7,5.9-48.8c2.1-4.4,4.6-8.9,7.3-13.6
			c3.9-6.6,8.3-13.4,13.3-20.3l1.3-1.8c0.8-1.1,1.7-2.3,2.5-3.4l1.6-2.1c2.7-3.6,5.6-7.1,8.6-10.7c11.3-13.6,23.8-26.1,37.3-37.4
			c6.2-5.2,12.9-9.9,19.8-14.1c15.4-9.1,28.1-12,34.8-6.4C1382.3,82.7,1379.9,100.2,1369.7,122.1z"/>
		<path class="st2" d="M1369.7,122.1c-0.6,1.2-1.2,2.4-1.8,3.7c-0.9,1.8-1.8,3.6-2.8,5.5c-2.8,5.1-5.9,10.4-9.4,15.9
			c-6.7,10.3-14.1,20.3-22,29.7c-0.9,1.1-1.8,2.2-2.8,3.3c-3.5,4.1-7.1,8.1-10.7,11.8c-5.7,6-11.4,11.5-17,16.4
			c-2.5,2.3-5,4.4-7.5,6.4c-23.7,19.2-44.7,27.8-54,20c-8.4-7-5.4-25.7,5.9-48.8c2.1-4.4,4.6-8.9,7.3-13.6
			c3.9-6.6,8.3-13.4,13.3-20.3l1.3-1.8c0.8-1.1,1.7-2.3,2.5-3.4l1.6-2.1c2.7-3.6,5.6-7.1,8.6-10.7c11.3-13.6,23.8-26.1,37.3-37.4
			c6.2-5.2,12.9-9.9,19.8-14.1c15.4-9.1,28.1-12,34.8-6.4C1382.3,82.7,1379.9,100.2,1369.7,122.1z"/>
		<path class="st3" d="M1355.8,122.4c-4.3,9.5-53,67.2-75.7,73.2c13.5,0,26.9-1.3,40.1-3.8c-0.4-0.3,30.5-29.6,50.5-72.3
			L1355.8,122.4z"/>
		<path class="st2" d="M282.7,227.8C282.7,227.8,282.7,227.8,282.7,227.8c-0.8,4.5-2.6,7.9-5.5,10l-0.3,0.2l0,0
			c-0.3,0.2-0.6,0.4-0.9,0.5c-0.3,0.2-0.6,0.3-0.9,0.4c-8.7,3.7-23.2-2.7-39.6-16.2c-9.6-8.1-18.5-16.9-26.6-26.5
			c-3.9-4.6-7.8-9.4-11.7-14.5l-1.2-1.6c-1.9-2.5-3.8-5.1-5.7-7.8c-1.2-1.7-2.4-3.4-3.5-5.1c-1.7-2.5-3.4-5.1-5-7.6
			c-1-1.6-2-3.3-3-4.9c-0.2-0.4-0.4-0.7-0.6-1.1c-3.1-5.2-6-10.4-8.6-15.4c-0.1-0.1-0.2-0.3-0.2-0.4l-0.8-1.5
			c-1.2-2.4-2.3-4.7-3.4-7.1c-0.6-1.3-1.2-2.6-1.8-3.9s-1.1-2.4-1.6-3.6c-1.1-2.7-2.2-5.4-3.1-8c-0.5-1.4-1-2.9-1.5-4.3
			c-0.8-2.2-1.4-4.4-2-6.6c-0.2-1-0.5-1.9-0.7-2.8c-2.2-9.1-2.8-16.8-1.5-22.5c0.9-4,2.6-7.1,5.4-9c10.5-7.4,32.4,4.5,55.8,28.1
			l0.7,0.7l0.2,0.2l2.4,2.5l0.3,0.3c3.5,3.7,7.1,7.7,10.7,12c5.5,6.6,11,13.7,16.4,21.3l0.2,0.4c1.3,1.8,2.5,3.6,3.8,5.5
			c1.8,2.6,3.5,5.2,5.1,7.9c1,1.6,2,3.3,3,4.9l0.9,1.5l0,0c0.9,1.5,1.8,3,2.6,4.5c1.2,2.1,2.3,4.2,3.5,6.2c2.4,4.5,4.6,8.9,6.6,13.2
			l0.3,0.7c1.8,3.8,3.3,7.5,4.7,11.1c0.4,1,0.8,2,1.1,3c0.5,1.3,1,2.7,1.4,4C282.4,209.1,284.1,220.1,282.7,227.8z"/>
		<path class="st2" d="M282.7,227.8C282.7,227.8,282.7,227.8,282.7,227.8c-0.8,4.5-2.6,7.9-5.5,10l-0.3,0.2l0,0
			c-0.3,0.2-0.6,0.4-0.9,0.5c-0.3,0.2-0.6,0.3-0.9,0.4c-8.7,3.7-23.2-2.7-39.6-16.2c-9.6-8.1-18.5-16.9-26.6-26.5
			c-3.9-4.6-7.8-9.4-11.7-14.5l-1.2-1.6c-1.9-2.5-3.8-5.1-5.7-7.8c-1.2-1.7-2.4-3.4-3.5-5.1c-1.7-2.5-3.4-5.1-5-7.6
			c-1-1.6-2-3.3-3-4.9c-0.2-0.4-0.4-0.7-0.6-1.1c-3.1-5.2-6-10.4-8.6-15.4c-0.1-0.1-0.2-0.3-0.2-0.4l-0.8-1.5
			c-1.2-2.4-2.3-4.7-3.4-7.1c-0.6-1.3-1.2-2.6-1.8-3.9s-1.1-2.4-1.6-3.6c-1.1-2.7-2.2-5.4-3.1-8c-0.5-1.4-1-2.9-1.5-4.3
			c-0.8-2.2-1.4-4.4-2-6.6c-0.2-1-0.5-1.9-0.7-2.8c-2.2-9.1-2.8-16.8-1.5-22.5c0.9-4,2.6-7.1,5.4-9c10.5-7.4,32.4,4.5,55.8,28.1
			l0.7,0.7l0.2,0.2l2.4,2.5l0.3,0.3c3.5,3.7,7.1,7.7,10.7,12c5.5,6.6,11,13.7,16.4,21.3l0.2,0.4c1.3,1.8,2.5,3.6,3.8,5.5
			c1.8,2.6,3.5,5.2,5.1,7.9c1,1.6,2,3.3,3,4.9l0.9,1.5l0,0c0.9,1.5,1.8,3,2.6,4.5c1.2,2.1,2.3,4.2,3.5,6.2c2.4,4.5,4.6,8.9,6.6,13.2
			l0.3,0.7c1.8,3.8,3.3,7.5,4.7,11.1c0.4,1,0.8,2,1.1,3c0.5,1.3,1,2.7,1.4,4C282.4,209.1,284.1,220.1,282.7,227.8z"/>
		<path class="st4" d="M162.6,121.3c-0.4,0.2,1.4,6.1,6.4,15.5c1.3,2.4,2.7,5.2,4.2,8c7.5,13.9,19.7,32.5,35.7,51.5l32.7-0.2
			c0,0-34.8-20.2-62.1-75.6L162.6,121.3z"/>
		<circle class="st1" cx="1130.8" cy="77.8" r="7.5"/>
		<circle class="st1" cx="1194.5" cy="176.1" r="5.2"/>
		<circle class="st1" cx="1419.9" cy="263.1" r="5.2"/>
		<circle class="st1" cx="659.6" cy="54.6" r="5.2"/>
		<circle class="st1" cx="361.8" cy="82.1" r="8.9"/>
		<circle class="st1" cx="1428.8" cy="120.4" r="8.9"/>
		<circle class="st1" cx="500.7" cy="239.6" r="8.9"/>
		<circle class="st1" cx="71.6" cy="82.1" r="4.3"/>
		<circle class="st1" cx="107.9" cy="223.4" r="12.2"/>
	</g>
</g>
</svg>
