<svg xmlns="http://www.w3.org/2000/svg" viewBox="0 0 249.37 246.2"><defs><style>.cls-1{fill:#ffab00;}</style></defs><g id="Capa_2" data-name="Capa 2"><g id="Diseño"><rect class="cls-1" x="76.32" y="214.3" width="54.21" height="3.08" transform="matrix(0.26, -0.97, 0.97, 0.26, -131.83, 259.88)"/><rect class="cls-1" x="125.61" y="26.12" width="56.45" height="3.08" transform="matrix(0.26, -0.97, 0.97, 0.26, 87.3, 169.09)"/><rect class="cls-1" x="79.4" y="189.37" width="18.96" height="3.08" transform="translate(-120.9 172.46) rotate(-60.01)"/><rect class="cls-1" x="159.04" y="52.88" width="17.26" height="3.08" transform="translate(36.72 172.44) rotate(-60.01)"/><rect class="cls-1" x="28.72" y="190.97" width="59.11" height="3.08" transform="translate(-119.05 97.59) rotate(-45)"/><rect class="cls-1" x="168.91" y="49.99" width="60.66" height="3.08" transform="translate(21.92 155.98) rotate(-45)"/><rect class="cls-1" x="35.3" y="164.41" width="35.13" height="3.08" transform="translate(-75.88 48.65) rotate(-29.99)"/><rect class="cls-1" x="186.51" y="77.09" width="35.2" height="3.08" transform="translate(-11.97 112.56) rotate(-29.99)"/><rect class="cls-1" x="12.22" y="145.24" width="49.75" height="3.08" transform="translate(-36.72 14.6) rotate(-15)"/><rect class="cls-1" x="194.91" y="95.58" width="55" height="3.08" transform="translate(-17.56 60.87) rotate(-15)"/><rect class="cls-1" y="120.12" width="58.11" height="3.08"/><rect class="cls-1" x="197.59" y="120.12" width="17.43" height="3.08"/><rect class="cls-1" x="49.55" y="91.17" width="3.08" height="20.77" transform="translate(-60.23 124.62) rotate(-75)"/><rect class="cls-1" x="215.81" y="123.83" width="3.08" height="44.53" transform="translate(19.98 318.24) rotate(-75)"/><rect class="cls-1" x="43.65" y="47.75" width="3.08" height="52.89" transform="translate(-41.66 76.23) rotate(-60)"/><rect class="cls-1" x="215.79" y="140.74" width="3.08" height="65.7" transform="translate(-41.67 275) rotate(-60)"/><rect class="cls-1" x="72.62" y="60.87" width="3.08" height="14.19" transform="translate(-26.34 72.34) rotate(-45)"/><rect class="cls-1" x="191.68" y="165.23" width="3.08" height="43.59" transform="translate(-75.65 191.4) rotate(-45)"/><rect class="cls-1" x="79.03" y="13.15" width="3.08" height="52.24" transform="translate(-8.84 45.54) rotate(-30)"/><rect class="cls-1" x="169.65" y="180.59" width="3.08" height="31.43" transform="translate(-75.21 111.86) rotate(-29.99)"/><rect class="cls-1" x="103.49" y="13.84" width="3.08" height="41.8" transform="translate(-5.41 28.37) rotate(-15)"/><rect class="cls-1" x="152.52" y="188.67" width="3.08" height="58.13" transform="translate(-51.1 47.29) rotate(-15)"/><rect class="cls-1" x="127.76" y="9.78" width="3.08" height="40.68"/><rect class="cls-1" x="127.76" y="189.95" width="3.08" height="34.87"/><circle class="cls-1" cx="129.3" cy="123.1" r="53"/></g></g></svg>