<svg xmlns="http://www.w3.org/2000/svg" xmlns:xlink="http://www.w3.org/1999/xlink" viewBox="0 0 349.87 290.2"><defs><style>.cls-1{fill:#01755e;}.cls-2{fill:#2d0242;}.cls-3{clip-path:url(#clip-path);}.cls-4{fill:#fb4a02;}.cls-5{clip-path:url(#clip-path-2);}.cls-6{fill:none;stroke:#fff;stroke-miterlimit:10;stroke-width:4.58px;}.cls-7{opacity:0.38;}.cls-8{clip-path:url(#clip-path-3);}.cls-9{fill:#fff;}.cls-10{clip-path:url(#clip-path-4);}</style><clipPath id="clip-path"><ellipse class="cls-1" cx="232.99" cy="121.3" rx="40.67" ry="158.79" transform="translate(-21.43 186.62) rotate(-41.9)"/></clipPath><clipPath id="clip-path-2"><path class="cls-2" d="M192.27,27.66s-14,10.25-15.93,38.06,10.88,54.06,29.88,65.63,48.87,1,64.42-14.86S296,80.92,296,80.92,249.4,34.33,235.41,27.66s-43.14,0-43.14,0"/></clipPath><clipPath id="clip-path-3"><path class="cls-2" d="M244.11,82.69c-3.74,9.84.82,52.71,4.31,67s11,49.71,11,49.71A55.46,55.46,0,0,1,232.1,194c-13.6-6.78-43.11-29.17-52.95-28.66s-16.45,34.43-15.26,56.13,6.27,26.29,10.17,26.12,15.6-5.93,31.38-2.54,49.52,18.65,64.44,26.12,30.19,6.78,39.69,2,19-26.79,19-49.35S326,160.71,326,160.71s-24.42-50.2-42.4-62.58S244.11,82.69,244.11,82.69Z"/></clipPath><clipPath id="clip-path-4"><path class="cls-2" d="M207.44,39.72s36.39,19.34,46.72,24.13S278.86,82,273.06,110s-26.21,43.09-46.12,53.68-95.51,51.66-101.81,53.43-17.39,1.51-38.56-12.1-35.79-51.92-23.69-61.49,36.29-9.26,59.47-14.71,59.73-31.92,71.83-42,13.26-47.06,13.26-47.06"/></clipPath></defs><g id="Capa_2" data-name="Capa 2"><g id="Diseño"><ellipse class="cls-1" cx="232.99" cy="121.3" rx="40.67" ry="158.79" transform="translate(-21.43 186.62) rotate(-41.9)"/><g class="cls-3"><path class="cls-4" d="M195.11,6c-7.71,6.24-18.7,15.92-19,30S190,59.94,190,59.94s3.44-13,16.89-16.57a85.85,85.85,0,0,1,23.79-3.12A30.79,30.79,0,0,0,221,14.66,31.74,31.74,0,0,0,195.11,6Z"/><path class="cls-2" d="M192.27,27.66s-14,10.25-15.93,38.06,10.88,54.06,29.88,65.63,48.87,1,64.42-14.86S296,80.92,296,80.92,249.4,34.33,235.41,27.66s-43.14,0-43.14,0"/><g class="cls-5"><path class="cls-6" d="M199.79,29.76s-12.55,10-11.89,21.3c.68,11.84,40.49,10.89,43.73,18.83,2.93,7.15-7.86,16.69-36.23,34-27.5,16.74-40.29,24.7-67.09,29.57s-43.87,1.63-57.19,13"/><path class="cls-7" d="M176.6,51s-.32,16.73,9.11,22c11.78,6.59,18.23,6.31,18.23,6.31s-5.05,14.57-17.81,19.9-16.82-3.92-18.92-7.85S166,68.53,169.87,60.82,176.6,51,176.6,51Z"/></g><path class="cls-2" d="M244.11,82.69c-3.74,9.84.82,52.71,4.31,67s11,49.71,11,49.71A55.46,55.46,0,0,1,232.1,194c-13.6-6.78-43.11-29.17-52.95-28.66s-16.45,34.43-15.26,56.13,6.27,26.29,10.17,26.12,15.6-5.93,31.38-2.54,49.52,18.65,64.44,26.12,30.19,6.78,39.69,2,19-26.79,19-49.35S326,160.71,326,160.71s-24.42-50.2-42.4-62.58S244.11,82.69,244.11,82.69Z"/><g class="cls-8"><path class="cls-7" d="M245.1,155.7s13.14-10.76,46.81-.8,44.61,41.83,44.61,41.83l13.35-51.59S316.61,86.58,293.3,80.6s-60-1.19-60-1.19.2,35.65,4.58,51.79S245.1,155.7,245.1,155.7Z"/></g></g><path class="cls-9" d="M152.92,212.93c-9.46.37-13.19.62-13.19.62s-5-18.91,0-30,9.45-14.18,9.45-14.18,17.17,10.33,26.63,10.33H187l-8.21,40.44S162.37,212.56,152.92,212.93Z"/><path class="cls-2" d="M259.37,199.38A55.46,55.46,0,0,1,232.1,194c-13.6-6.78-43.11-29.17-52.95-28.66s-16.45,34.43-15.26,56.13,6.27,26.29,10.17,26.12,15.6-5.93,31.38-2.54,49.52,18.65,64.44,26.12,30.19,6.78,39.69,2,19-26.79,19-49.35c0-9.87-17.05-17.2-31.95-20.72A152,152,0,0,0,259.37,199.38Z"/><path class="cls-4" d="M150.89,172.53c3.4-2,.45-6.29-3.95-7.55s-15.6-2.09-18.12-2.59a60.81,60.81,0,0,0-8.23-.51,34.76,34.76,0,0,0-5.55,17c-.33,9.58,2,22.69,0,29.41s-6.72,41.33-5.37,56.95,4.53,22.18,11.59,23.69S134.2,284,135,278.32s-1.18-25.71,3.53-34.11,14.45-18,16.46-23.52-1.68-8.23-8.06-10.25-6.22-6.72-6.22-12.1S140,178.81,150.89,172.53Z"/><path class="cls-9" d="M122.77,161.88a45.64,45.64,0,0,0-6.55,23.69c.17,13.61,1.34,14.79-.5,25.37s-6.22,41.84-4.88,54.27,4.2,18.82,7.4,21a18.19,18.19,0,0,0,7.05,2.69s-5,2.69-12.26.34-11.76-13.61-12.27-25.2,3.7-40.5,5.38-55.11-1.06-31.13.59-37.85c1.89-7.68,4.85-9,8.06-9.64S122.77,161.88,122.77,161.88Z"/><path class="cls-2" d="M207.44,39.72s36.39,19.34,46.72,24.13S278.86,82,273.06,110s-26.21,43.09-46.12,53.68-95.51,51.66-101.81,53.43-17.39,1.51-38.56-12.1-35.79-51.92-23.69-61.49,36.29-9.26,59.47-14.71,59.73-31.92,71.83-42,13.26-47.06,13.26-47.06"/><g class="cls-10"><path class="cls-6" d="M199.79,29.76s-12.55,10-11.89,21.3c.68,11.84,40.49,10.89,43.73,18.83,2.93,7.15-7.86,16.69-36.23,34-27.5,16.74-40.29,24.7-67.09,29.57s-43.87,1.63-57.19,13"/><path class="cls-1" d="M62.88,143.49c13.62-1,29.56,9.33,46.91,29.32,18.08,20.83,19.4,41,11.53,45S86.53,230.07,66,219.78c-14.48-7.25-31.91-50.89-18.23-67.35C54.72,144,62.88,143.49,62.88,143.49Z"/></g><path class="cls-9" d="M105.66,168A197.44,197.44,0,0,1,78,190.11C63.38,199.44,38.93,205,38.93,205s-2.26,12.6,7.82,17.14,29,11.59,44.35,8.31,34-13.35,34-13.35S130,202.92,118.94,185C111.46,173,105.66,168,105.66,168Z"/><path class="cls-6" d="M200.69,60c3.78,1.06,8,1.93,12.08,2.78"/><path class="cls-4" d="M84.75,207.28c-6.44-.13-14.11,3.22-21.78,3.83s-15.64-7.82-25-7.67-19,3.38-25.31,8.74-2.3,17.95,1.85,26.84,36.36,17.64,67.94,19.48,53.12.93,57-6.12,4-30.24-17.67-32.47C104.05,218.09,99,217,95.49,216.27S92.42,207.43,84.75,207.28Z"/><path class="cls-9" d="M11.45,214.94c-1.77.53-8.59,7-9.69,9.72-2.66,6.61,2.49,13.23,7.37,19.53,6.91,8.89,116.1,26.42,119.88,23,7.42-6.7,10.94-9.92,11.19-18.95.35-13-8.49-27.87-37.41-26.29-29.7,1.61-24.8,10.74-46.12,9.67C40.27,230.79,32,208.8,11.45,214.94Z"/><path class="cls-2" d="M3.93,222.9c-6.05,1.81-4.9,20.72,2,29.61s17.33,10.59,27,10.43,20.18.16,25.58,2.61,26.25,14.69,49.25,11.18,31.16-20.07,29.77-28.66-8.17-21.76-37.74-18.56-25,11.5-46.31,10.43C37.07,239.11,24.48,216.75,3.93,222.9Z"/></g></g></svg>