<svg xmlns="http://www.w3.org/2000/svg" xmlns:xlink="http://www.w3.org/1999/xlink" viewBox="0 0 518.35 627.87"><defs><style>.cls-1,.cls-5{fill:#2d0242;}.cls-2{fill:#fff;}.cls-3{fill:#ffab00;}.cls-4{clip-path:url(#clip-path);}.cls-5{isolation:isolate;}.cls-6{clip-path:url(#clip-path-2);}.cls-7{clip-path:url(#clip-path-3);}.cls-8{clip-path:url(#clip-path-4);}.cls-9{fill:#fb4a02;}.cls-10{fill:#00c28c;}</style><clipPath id="clip-path"><polygon class="cls-1" points="388.08 101.1 381.99 186.21 450.75 199.02 487.66 184.17 494.94 106.13 415.06 95.22 388.08 101.1"/></clipPath><clipPath id="clip-path-2"><path class="cls-1" d="M286.85,341.09s-7.93,1.69-8.27,6.09c-.55,7,3.51,14.43,1,17.1s-3.24,2-9.28.91-5-3-20.43-11.46S223,342,223,342s-8.12,1.6-11.27,6.56c6,1.42,16,5.14,26.86,11.1S257.34,371,257.34,371s-20.8-3.82-36-5.75S201.45,361,201.45,361s-4.8,18.5-2.3,33.75,5.32,19.78,7.64,20.51,7.78-4.74,18.89-3,29.49,13.17,47,19.24,29.63,6.18,38.8-2.52,14.86-36.67,15.61-41S324.49,347.34,286.85,341.09Z"/></clipPath><clipPath id="clip-path-3"><path class="cls-1" d="M288.24,216c-4.44,1.93-7,4.24-9.22,10.42s-18.83,26.85-18.51,52.29,11.19,44.12,20.38,61.13,33.47,50.58,46.94,79.43,16.7,37.4,15.45,63.37-5.71,43.22-5.71,43.22l11.94,10.87s4.63-31.33,7.81-31.41c4.14-.1,6.21,11,6.17,20.43s0,16,0,16a131.14,131.14,0,0,0,26.15,1.1,106.52,106.52,0,0,0,26.29-5.8s-5.65-53-6.43-77.16.61-49.75-8.12-66.22-35.15-68.74-35.15-68.74a321.13,321.13,0,0,0,9.26-43.39c3.44-24.25-3.56-50.14-6.37-58s-7.1-12.27-14.95-12.83S314.37,204.66,288.24,216Z"/></clipPath><clipPath id="clip-path-4"><path class="cls-2" d="M277,59.57c5.74,10.78,12.42,13.19,23.3,13.82S321.12,64.78,323,50.06s-1.91-32.77-20.83-35.39C291.56,13.2,281.45,18.21,277.1,30,273.72,39.21,274.47,54.86,277,59.57Z"/></clipPath></defs><g id="Capa_2" data-name="Capa 2"><g id="Diseño"><path class="cls-3" d="M180,418.45c-.61-3-.49-27.18-.81-35.92s5.55-45.68,4.3-48a7.6,7.6,0,0,0-3.36-4.24c-2.73-1.64-9.49-2.14-13.7-.39s-8.21,8.19-8.93,14.56,0,9.47-.1,14.63c0,2.65-.95,7.55-1.86,12.74-.8.4-2,1.15-2.09,2.17-.12.85.65,1.48,1.4,1.88l-.21,1.25c-.79.38-2.06,1.15-2.21,2.23s.81,1.59,1.61,2c-.08.66-.16,1.3-.22,1.93-.79.41-1.82,1.13-2,2.1s.89,1.65,1.71,2c0,.47,0,.94,0,1.42-.78.42-1.75,1.12-1.88,2.06s1.07,1.77,1.91,2.13c0,.62,0,1.24.1,1.86a2.8,2.8,0,0,0-1.4,1.78c-.14,1,.95,1.69,1.78,2.07.08.55.16,1.1.26,1.66a2.51,2.51,0,0,0-1.08,1.55c-.14,1,1,1.75,1.89,2.12.06.23.13.46.2.69a2.74,2.74,0,0,0-1.32,1.72c-.22,1.6,2.68,2.41,2.68,2.41v-.21l.2.48a3.31,3.31,0,0,0-.9,2.7c.32,1.1,1.93,1.19,2.82,1.15l.53.88a2.73,2.73,0,0,0-.47,2.08c.32,1.09,1.89,1.18,2.8,1.15.32.39.65.75,1,1.08a2.11,2.11,0,0,0-.1,1.33c.35,1.2,2.24,1.19,3.06,1.13a14.52,14.52,0,0,0,8.06,2.18C177.39,422.88,180.56,421.41,180,418.45Z"/><path class="cls-2" d="M267.77,369.24c-10.72-1.64-31.67-7.66-44.86-11.54s-29.76-14-31.9-14.76-4.51-3.66-6.45-3.4-8.2,4.24-9.61,9.85-1.78,17.5.24,22.7,5.88,4.82,10.18,4.48,13.46,1,24.32,4.48,39.46,17.38,47.94,19.64,17.12-8.41,18.53-17.12S275.18,370.38,267.77,369.24Z"/><path class="cls-1" d="M177.27,375.28a2.91,2.91,0,0,1,3.37-.74c2.26.78,2.53,2.17,4.15,2.08s3.28-.68,4.26,0,.71,3.69-1,5.38a18.71,18.71,0,0,0-2.65,3.38s-.27,10.67,0,16.89.09,19.63-6.67,18.84-13.56-3-16.61-17.72-.67-27.25.12-35.71,1.82-25.57,6.85-31.22,10.91-4.77,13.6-2.59,3.9,3,6.94,3.14,4.09,3.6,3.88,5a3.65,3.65,0,0,1-.6,1.84,7.91,7.91,0,0,0-6.25-1.75c-4.06.42-8.13,2.7-9.57,6.91s-.85,17-.67,20.61A22.37,22.37,0,0,0,177.27,375.28Z"/><path class="cls-2" d="M458.28,195.21c-12.22-.64-68.9-10-73.73-12.27s-13.81-32.42-19.26-47.9S346.5,96.6,338.24,91.29s-12.77-5.16-17.05-2.73,6.94,51.59,13.65,68,9.74,43.48,29.62,48.7,55.21,7,69.73,6.51,29.28-2.84,36.91-7.42S458.28,195.21,458.28,195.21Z"/><polygon class="cls-1" points="388.08 101.1 381.99 186.21 450.75 199.02 487.66 184.17 494.94 106.13 415.06 95.22 388.08 101.1"/><g class="cls-4"><polygon class="cls-3" points="393.95 98.42 474.55 110.99 473.55 131.18 484.95 129.11 486.91 108.05 404.41 96.01 393.95 98.42"/></g><path class="cls-2" d="M377.2,507.79c-7.43,6.62-7.59,24.53-7.79,34.86s-1.59,14.24-1.62,17.26,1.12,9.7,15.27,12.28,19.92,2.87,23.66.7,4.73-7.39,3.73-10.26-4.33-7.72-5.75-22.24-1.54-32.2-8-33.31S384.64,501.16,377.2,507.79Z"/><path class="cls-3" d="M456.66,604.59c-1.1-2.33-20.2-16.46-34-21.45s-13.83-1.87-22.65-6.23-18.67-13.58-35.18-7c-1.71.68-4.24,3.19-5.51,8s-1.69,12.26,6.35,15.9c5.18,2.34,13.86,3.11,17.72,4.13a14.66,14.66,0,0,1,3.6,1.59c.07.91.33,2.43,1.39,2.89a2.66,2.66,0,0,0,2.27-.33h0c0,.82.21,2.69,1.4,3.2a2.55,2.55,0,0,0,2.1-.24h0c.1.92.41,2.22,1.37,2.63a2.1,2.1,0,0,0,1.44,0c0,.75.16,3.16,1.71,3.79a3.11,3.11,0,0,0,2.32-.16l.24.22c.09,1,.43,2.69,1.68,3.19a2.84,2.84,0,0,0,2,0l1.34,1.08c.11,1,.47,2.58,1.67,3.07a3.1,3.1,0,0,0,2.35-.18l.67.43c.12,1,.51,2.45,1.65,2.92a3.43,3.43,0,0,0,2.86-.43l.14.07a3.27,3.27,0,0,0,1.62,2.68,3.92,3.92,0,0,0,3.36-.71l.29.09c.3,1,1,2.64,2.39,2.87s2.47-.77,3.16-1.49l.21,0c.54,1.08,1.53,2.58,2.9,2.63s2.35-1.1,3-2c.44,0,.87,0,1.3,0a3.23,3.23,0,0,0,2.33,1.64c1.28.05,2.31-1.06,2.93-2,.63-.09,1.25-.18,1.85-.29l.1,0a2.81,2.81,0,0,0,1.95,1.14c1.7.07,2.95-1.9,3.4-2.72l.21-.09a3,3,0,0,0,2.52.37,3.59,3.59,0,0,0,1.81-2.77,17.92,17.92,0,0,0,3.63-3.37C457.22,614.44,457.76,606.92,456.66,604.59Z"/><path class="cls-5" d="M414.61,564.59s.38-6.71-2.25-7.7-4.22,2-7.95,3.13-5.8,2.18-6,5.7.64,5.5.26,6-2-3.07-7.12-4-9.71.74-15.22-.19-8-11.34-8-11.34.07-1.82.2-3.15.17-2.94.17-2.94-3.54.25-4.19,4.56,1.08,10.47-.18,14.31-3,8.53.44,12.89,10.77,6.44,20.94,9.44,12.58,7.35,20.58,14.28S417,618.1,432.7,619.56s20.13-3.88,22.65-8a12.43,12.43,0,0,0-1.12-14.43c-3.7-4.47-9.69-7.33-17.16-11.16s-18.24-14.55-19.59-16.82S414.61,564.59,414.61,564.59Z"/><path class="cls-1" d="M270.77,154.57c-3.25,4.43-3.89,13.09-.95,18.19s10.73,8.85,19.79,9.13,15-16.9,14.49-21.34S292.24,146,281.51,150.27Z"/><path class="cls-1" d="M286.85,341.09s-7.93,1.69-8.27,6.09c-.55,7,3.51,14.43,1,17.1s-3.24,2-9.28.91-5-3-20.43-11.46S223,342,223,342s-8.12,1.6-11.27,6.56c6,1.42,16,5.14,26.86,11.1S257.34,371,257.34,371s-20.8-3.82-36-5.75S201.45,361,201.45,361s-4.8,18.5-2.3,33.75,5.32,19.78,7.64,20.51,7.78-4.74,18.89-3,29.49,13.17,47,19.24,29.63,6.18,38.8-2.52,14.86-36.67,15.61-41S324.49,347.34,286.85,341.09Z"/><g class="cls-6"><path class="cls-2" d="M237.9,345.29s-18.29,3-25.05,16.32-5,37.68-.5,48.48,9,15.25,9,15.25l-20.52,4.23s-6.71-14.4-8-43.35S206.58,347,211,343.2s16.26-6.11,16.26-6.11Z"/></g><path class="cls-1" d="M288.24,216c-4.44,1.93-7,4.24-9.22,10.42s-18.83,26.85-18.51,52.29,11.19,44.12,20.38,61.13,33.47,50.58,46.94,79.43,16.7,37.4,15.45,63.37-5.71,43.22-5.71,43.22l11.94,10.87s4.63-31.33,7.81-31.41c4.14-.1,6.21,11,6.17,20.43s0,16,0,16a131.14,131.14,0,0,0,26.15,1.1,106.52,106.52,0,0,0,26.29-5.8s-5.65-53-6.43-77.16.61-49.75-8.12-66.22-35.15-68.74-35.15-68.74a321.13,321.13,0,0,0,9.26-43.39c3.44-24.25-3.56-50.14-6.37-58s-7.1-12.27-14.95-12.83S314.37,204.66,288.24,216Z"/><g class="cls-7"><path class="cls-2" d="M356.35,512.58c0-.21-1-20.91-1.64-38.48-.62-16.64-5.52-33.93-15-52.84-4.62-9.22-13.83-23.51-23.58-38.63-9.58-14.86-20.44-31.71-28.49-46.21-17.12-30.82-19-46.34-16.67-65.8,2.5-20.44,17.19-43.76,17.81-44.74l4.5,2.86c-.15.23-14.67,23.29-17,42.52-2.87,23.5,2.88,38.9,16,62.58,8,14.35,18.78,31.11,28.32,45.91,9.83,15.24,19.12,29.64,23.86,39.13,9.82,19.6,14.91,37.6,15.56,55s1.62,38.22,1.63,38.43Z"/><path class="cls-2" d="M337.58,515.39a31.94,31.94,0,0,0,21.79,15.11c15.22,2.61,37.82,2.64,51.44-1.59S432,521.38,432,521.38L432,544.27s-20.27,6.88-54.22,5.79-44.89-22.47-44.89-22.47Z"/></g><path class="cls-2" d="M265.9,100.39c-10.94,6.52-14.79,15.37-11.4,27.68,2.95,10.69,16.71,29.19,22.75,42.88s10.42,30.38,10.2,38.19-.72,11.79-.72,11.79-.23,11.84,16.45,15.67,29,2.59,41.42-1.56,16.73-12.95,16.44-17.9-5.27-17.91-6.89-37.12-2.54-41.76-7.39-60.13-14.29-32.13-22.21-33.75-15.86-3.25-29.73.76S276.84,93.87,265.9,100.39Z"/><path class="cls-1" d="M336.23,69.56c-1-4.55-2.06-5.91-2.06-5.91s3.76,1.27,6.54,6.58c.82,1.56,1.44,2.81,1.91,3.81a83.5,83.5,0,0,0,11.82-5.81c-4.16-12.17-8.61-14.1-14.6-17.52s-6.49-8-9.21-23-7-23.37-17.75-26.23c-29.84-7.92-35.43,19-44.27,30.87s-18.1,11.78-26.36,16.47-9.16,9.83-11,15a64.68,64.68,0,0,0,13.58,7.89,54.45,54.45,0,0,1,4.21-6.48,21.38,21.38,0,0,1,6.6-5.78,64.83,64.83,0,0,0-4,10.23,39.79,39.79,0,0,0-.95,4.32,135.26,135.26,0,0,0,22.78,5.46c.22-1.53.51-3.39.86-5a11.2,11.2,0,0,1,2-4.7s.14,3.89.31,7.44c.05,1.08.13,2,.21,2.74,5.1.74,10.59,1.38,16.52,1.93,17,1.59,32.48-1.84,43.82-5.79A48.74,48.74,0,0,0,336.23,69.56Z"/><path class="cls-2" d="M277,59.57c5.74,10.78,12.42,13.19,23.3,13.82S321.12,64.78,323,50.06s-1.91-32.77-20.83-35.39C291.56,13.2,281.45,18.21,277.1,30,273.72,39.21,274.47,54.86,277,59.57Z"/><g class="cls-8"><path class="cls-1" d="M275.73,35.18c4.69-.62,8.14-7.28,8.66-11s-1.83-6.59-4.69-5.61-7.19,15.61-7.19,15.61Z"/><path class="cls-1" d="M324.87,41.45c-4.49-1.47-6.65-8.65-6.47-12.37s3-6.14,5.64-4.65,4.18,16.67,4.18,16.67Z"/></g><path class="cls-9" d="M290.42,58.9a.51.51,0,0,0-.29.85c2.08,2.28,2.53,4.93,7.73,5.42,4.39.41,6.95-2.57,8.47-3.93a.5.5,0,0,0-.18-.85c-2.56-.87-4.17-3.59-7.38-1.62a.52.52,0,0,1-.65-.09C295.48,55.86,293.16,58.46,290.42,58.9Z"/><ellipse class="cls-2" cx="275.5" cy="45.03" rx="9.86" ry="8.42" transform="matrix(0.09, -1, 1, 0.09, 205.07, 315.15)"/><ellipse class="cls-2" cx="322.82" cy="50.58" rx="9.86" ry="8.42" transform="translate(242.46 367.3) rotate(-84.67)"/><path class="cls-1" d="M309.43.59c-18.56-3-26.47,6-33.05,12.48a80.31,80.31,0,0,1-11,9.33s3.46,5.29,16,8.9c2.26.65,4.59,1.21,6.93,1.71.19-.67.45-1.5.8-2.51,1-2.93,4.29-6.33,4.29-6.33s-.48,1.56-1.1,4.61a45,45,0,0,0-.66,4.87A137.16,137.16,0,0,0,312,35.7a38.22,38.22,0,0,0,1.57-8.81,70.38,70.38,0,0,0,.1-7.31s3.12,7.1,3.53,11.69a37.22,37.22,0,0,1,.17,4.46l1.35,0c10.38-.29,11.1-1.74,11.1-1.74S328,3.59,309.43.59Z"/><path class="cls-2" d="M289.06,69,286.21,91.6s1.15,4.27,9.77,4.58,11.86-3,11.86-3l-1.3-23.69s-4.54-3-9.37-2.67A20.58,20.58,0,0,0,289.06,69Z"/><path class="cls-3" d="M274,95.47s5.83,2,14.33,8.52c9.58,7.29,14,13.17,22.06,18.73,8.84,6.11,19.09,16.34,19.09,16.34a158.39,158.39,0,0,0,4-19.64c.95-8.56-3.47-22.92-12.28-30.86-3.09-2.79-8.85-4.32-8.85-4.32s7.74.42,12.21,1.9,12.35,9.49,18.14,15.64,13.6,18.4,15.39,28.42-2.54,22.36-.42,32.11a35.35,35.35,0,0,0,7.65,15.57s-14.08,16.38-39.29,23c-45.54,12-56.21-5.24-56.21-5.24s3.5-8.32,2.11-14.51c-1.88-8.34-2.1-8.38-2.1-8.38s3.27,5.61,14.56,3.17,12.15-21.3,7.79-36.41-12.7-27-20.4-33.14a66.28,66.28,0,0,0-7.27-5.17Z"/><path class="cls-2" d="M261.1,103.78c-5.29,4.39-20.55,23-31.9,39.93s-27.74,50.08-34.14,57.39-77,49.7-93.25,57.94S77.12,276.59,63.93,286.3s-20.11,19-38.84,23.13-13.94,12.33-7.73,14.25,13.72,2.63,25.94-.27a52.26,52.26,0,0,0,20.28-9.88s-20.24,40.18-30,58-11,32.79-1.75,33.15,16.06-20.55,22.64-33.39S79.69,332,79.69,332s-9.89,30.21-12.94,48.44-4.94,42.11,1.19,45,9.25-1.83,10.9-5a26.85,26.85,0,0,0,2.23-5.85s-1.26,11.66,6.31,11.69,11-13.11,12.31-21.9,5.42-29.28,9.23-43.06A159.58,159.58,0,0,1,119.12,335s-5.17,30.14-5.31,44.27,2.25,19.22,7.86,18.57,4.11-26,7-37.21,10.81-31.13,16.5-39.86a81.39,81.39,0,0,0,8.57-17.87s26.78-27.29,49.14-45.06,28.7-19,41.41-38,31.83-56.26,36.54-63.39,3.57-29.28-1.37-37.65S261.1,103.78,261.1,103.78Z"/><path class="cls-2" d="M453.44,208.63c7.48.38,23.18-6,29.06-9.57s6.45-6.25,8.17-9.46,5.1-17.47,5.48-20.37-2.81-7.11-3.4-11.3.07-6-2.07-6.06-2.9,3.42-2.65,6.49,2.39,5.88,2.09,7.92-1.75,10.27-1.75,10.27a19.24,19.24,0,0,1-2.61-5.46c-.91-3.13-1.15-11-1.22-13.71s-1.51-4.81-2.76-4.28-2.15,3.28-2.15,3.28-.18-2.73-1.56-2.54-4,2.46-3.73,7.92A106.19,106.19,0,0,0,476,176.59c.84,4.43-.5,10.61-.5,10.61s-.23-5.68-1.74-8.21a41.12,41.12,0,0,1-3.92-9.28c-.89-3.24-2.7-3.63-4-2.55s-1,6.65-.15,9.77,1.66,6.68,1.57,8.85a10.51,10.51,0,0,1-.78,3.62s-16.25,8.71-18.14,11.47S445.75,208.24,453.44,208.63Z"/><path class="cls-10" d="M2.76,92.21c-2,7.4-8.16,26.72,8.82,41.08C17.56,110.59,9.42,97.05,2.76,92.21Z"/><path class="cls-10" d="M165.74,22.94c-9.88,2.32-39.14,6.53-41.43,40.24C156.38,57.49,165.25,35.05,165.74,22.94Z"/><path class="cls-10" d="M229.16,270.25c-14.32-2.52-27.35,16.33-17.32,34.08C216,292.75,232.52,286.55,229.16,270.25Z"/><path class="cls-10" d="M414.38,51.76c-7.13-5.84-20.22-4.43-26.37,2.16C394.8,57.29,404,60.8,414.38,51.76Z"/><path class="cls-10" d="M467.3,21.7c-12.2-5.5-20.06,1.7-24.59,10.52C452.92,35.07,458.65,26.77,467.3,21.7Z"/><path class="cls-10" d="M496.64,87.94c.64-7.21-2.27-14.91-7-17.33C487.69,78.27,490.19,83.37,496.64,87.94Z"/><path class="cls-10" d="M513.19,124.43c5.67-6.85,6.52-14.24,3.28-18.45C512.85,112.07,509.83,117.07,513.19,124.43Z"/><polygon class="cls-1" points="41.2 97.06 12.35 233.19 138.49 271.72 181.33 245.43 211.22 136.08 115.27 103.97 41.2 97.06"/><polygon class="cls-3" points="83.23 109.52 73.83 151.5 102.85 160.16 113.29 118.43 172.01 122.95 145.07 113.94 83.23 109.52"/></g></g></svg>