<svg xmlns="http://www.w3.org/2000/svg" xmlns:xlink="http://www.w3.org/1999/xlink" viewBox="0 0 402.26 356.71"><defs><style>.cls-1{fill:#2d0242;}.cls-2{fill:#fff;}.cls-3{clip-path:url(#clip-path);}.cls-4{clip-path:url(#clip-path-2);}.cls-5{fill:#d3dadd;opacity:0.44;}.cls-6{fill:#ffab00;}.cls-7{fill:#fb4a02;}</style><clipPath id="clip-path"><ellipse class="cls-1" cx="333.04" cy="99.19" rx="35.65" ry="105.38" transform="translate(-13.4 126.23) rotate(-21.05)"/></clipPath><clipPath id="clip-path-2"><path class="cls-2" d="M388.67,108.22c-15.44.14-45.51-1.74-45.51-1.74a98.86,98.86,0,0,1-1-16.61c.35-7.73,1.28-13-1.27-12.7s-4.06,3.53-5.38,7.84a35.55,35.55,0,0,0-1.42,8.59s-6-11.56-10.29-20.4S314,56.61,312,55.57a2.2,2.2,0,0,0-3.05.77s-1.83-3.48-4.56-2.48-.92,6.74-.92,6.74-1.54.24-1.33,2.4,2.76,13.47,2.76,13.47-1.82-1.13-1.76,2.12,6.1,29.65,8,38.18a19.76,19.76,0,0,0,15,14.73c5.81,1.14,68.06,10.24,68.06,10.24s8.24-2,8.13-16.46C402.13,108.23,388.67,108.22,388.67,108.22Z"/></clipPath></defs><g id="Capa_2" data-name="Capa 2"><g id="Diseño"><ellipse class="cls-1" cx="333.04" cy="99.19" rx="35.65" ry="105.38" transform="translate(-13.4 126.23) rotate(-21.05)"/><g class="cls-3"><path class="cls-2" d="M388.67,108.22c-15.44.14-45.51-1.74-45.51-1.74a98.86,98.86,0,0,1-1-16.61c.35-7.73,1.28-13-1.27-12.7s-4.06,3.53-5.38,7.84a35.55,35.55,0,0,0-1.42,8.59s-6-11.56-10.29-20.4S314,56.61,312,55.57a2.2,2.2,0,0,0-3.05.77s-1.83-3.48-4.56-2.48-.92,6.74-.92,6.74-1.54.24-1.33,2.4,2.76,13.47,2.76,13.47-1.82-1.13-1.76,2.12,6.1,29.65,8,38.18a19.76,19.76,0,0,0,15,14.73c5.81,1.14,68.06,10.24,68.06,10.24s8.24-2,8.13-16.46C402.13,108.23,388.67,108.22,388.67,108.22Z"/><g class="cls-4"><path class="cls-5" d="M303.88,55.11c3.58-.57,7.21,11.17,7.21,11.17s3-2.33,6,4.87,9,37.82,13.92,48.76,15.26,15.84,15.26,15.84-7.73,3.38-19.94,2.44-23.62-10.1-27-27.4-8.64-43-5.18-49.25A12.22,12.22,0,0,1,303.88,55.11Z"/></g></g><path class="cls-2" d="M99.75,227.63s-25.54,13.09-35,18.44-13.61,14.22-18.15,25.35-9.3,26.92-9.27,29.27,3.88,13.56,4.17,18.77-.69,6.81-.59,10.69,1.91,7.24.27,7.44-4.11-2.9-5.3-7.65-.79-6.46-.79-6.46-4.68,12.54-7.28,17-6.72,9.39-9.11,9.16-.58-4.74,1-6.07,6.73-12.89,6.73-12.89-11,13.76-14.12,16.77-5.41,4.33-7,3.87,0-4.24,0-4.24-3.2,1-2.87-2,4.41-7.62,7-11,6.34-11,6.34-11-8.41,8.37-12.15,9.27S-.85,330.41,1,328.79a73.31,73.31,0,0,0,9.32-8.92c3.42-4.18,4.52-5.89,5.38-9.58s1.85-9.93,2.93-11.11,8.54-56,18.85-69.61,59.39-34.1,59.39-34.1,9.54,2.24,11.75,16.05C110.32,222.38,99.75,227.63,99.75,227.63Z"/><path class="cls-6" d="M174,331.06c-2.25,2.42-4.87,4.24-20.14,4.68-14.48.42-48-12.21-53.81-22.91A55.53,55.53,0,0,1,93.72,292s44.26,2.72,60.79,7.12S181.21,323.37,174,331.06Z"/><path class="cls-2" d="M168.64,313.8a80.79,80.79,0,0,1-1.36,12.49,170.09,170.09,0,0,1-38.12-2.86A323.64,323.64,0,0,1,88.38,313s2.9-9.83,4.83-14.46,13.14-4.85,31.76-2.33C150.12,299.63,168.64,313.8,168.64,313.8Z"/><path class="cls-2" d="M179.11,159.26,177.4,186s-9.43,1.51-15.8.89a37.39,37.39,0,0,1-10.43-2.4l6.71-29.5s4.55-1.42,11.43.53S179.11,159.26,179.11,159.26Z"/><path class="cls-6" d="M223.68,186.92c6.66,1.85.88,48.06-13.27,43.8S207,182.27,223.68,186.92Z"/><path class="cls-2" d="M213.78,188.93c5.86,1.19,23.14,5.37,31,5.93s19.05-10.9,24-21.61,31-52.94,32.51-65.45S300,73.6,299.4,68.3s2-5.09,2-5.09-.57-4.65,1-4.45,2.82.57,4.54,3.9,4.68,12.54,4.68,12.54-.42-5.59,1.56-5.44,2.7,3.87,3.23,7.08,3.65,18,5.32,27.42,3.12,14.82-.28,23.5-15.25,39.37-22.3,55.7S281,229.88,265,234.06s-60.72-10.8-60.72-10.8-3.3-14.16.37-23.78S213.78,188.93,213.78,188.93Z"/><path class="cls-7" d="M223.68,186.92c-8.6-1.7-30.58-6.62-50.5-7.6A187.55,187.55,0,0,0,117.89,185c-22.51,5.83-25.83,5.39-25.83,5.39s-3.85,12.4-2.17,20.85c3.39,17.14,11,19.63,11,19.63s-2.25,13.78-3.22,20.85-3.38,14.18-8,16.18-10.22-1-11.26,2.3,1.45,6.51,6.93,9.51,10.46,8.29,5.79,8.73-10.83-7.06-14.11-6-2.6,6.61,7.31,12.61,26,5.36,49.22,10,34.45,9.42,39.08,16.2.4,10.72.4,10.72,7.09-4.16,6.88-20.92-5.22-26.63,2.12-42.74,17.29-18.38,20.82-31.39a31.73,31.73,0,0,0,.78-8.36l6.72,2.15s-4.5-11.78.56-26.91S223.68,186.92,223.68,186.92Z"/><path class="cls-2" d="M195.47,125.79c7.95,13,5.87,28.79-4.65,35.22s-25.49,1.07-33.44-11.95-5.66-28.44,4.64-35.21C173.52,106.29,187.51,112.77,195.47,125.79Z"/><path class="cls-1" d="M184.84,115.27a24.26,24.26,0,0,0-3.8-2.63s-1.35,6-9.92,4.21c1.16,3.92,0,10.45-7.85,11,4.14,3.5,4.71,11.75,1.46,17-2.07,3.35,3.62,7.27,3.62,7.27s6.68,3.47,4.14,9.79-11.61,4.36-11.61,4.36S157.39,174.8,147,173s-8.44-10.86-8.44-10.86-8.28,1.52-10.52-8.9a12.24,12.24,0,0,1,5.59-13.38s-5.54-2.46-4.54-11.92c.9-8.49,10.35-9.8,10.35-9.8s-3.69-7.61-.87-12.15c4.78-7.73,13.45-5.32,13.45-5.32s-.5-8,7.46-9.13,9.16,2.68,10.52,6.81C188,92.1,187.91,112.32,184.84,115.27Z"/><circle class="cls-2" cx="162.35" cy="146.37" r="7.99"/><path class="cls-7" d="M62.24,269.51c1.93-.24,3.12,2.7,5.79,4.22s5,3.83,3.08,5.73-6.72-2.56-8.68-4.46S59.55,269.84,62.24,269.51Z"/><path class="cls-7" d="M73.24,268.16c1.63-.26,3.07,2.42,1.59,2.9S70.34,268.64,73.24,268.16Z"/><path class="cls-1" d="M65.42,289.73c-2.2,1,.73,6.56,6.94,10.12s9.9,6.83,6.35,8.87-14.56-4.24-22.45-8.38-16.23-2.91-11,4,20.87,17,33.34,20.86,16.48,8,14.69,11.29-13.19-.8-17.78-.68-1.57,5.09,8,6.49,14.09,3.4,13.8,5.84-4.2.37-5.22,2.76,14.11,5.37,24.82,5.67,27,.95,41-7.42,12-22.6,8.09-25.93-8.36-2-26.34-4.31-32.76-4.75-50.24-13.82C68.61,294.31,69.3,288,65.42,289.73Z"/><path class="cls-1" d="M8.63,248.48c2.15-.44,3.21,2.16,5.93,4.15S20,256,18.93,258.19s-5.14.67-8.63-1.81S5.79,249.06,8.63,248.48Z"/><path class="cls-1" d="M6.05,265.7c-2.35,1.54,1.63,7.55,5.33,11.06s10.67,8.17,14.57,9.58,7.3-1.08,2.43-4.54a77.58,77.58,0,0,1-12.7-11.34C11.33,265.8,8.49,264.11,6.05,265.7Z"/></g></g></svg>