<svg xmlns="http://www.w3.org/2000/svg" xmlns:xlink="http://www.w3.org/1999/xlink" viewBox="0 0 636.82 700.63"><defs><style>.cls-1{fill:#01755e;}.cls-2{fill:#ffab00;}.cls-3{fill:#fff;}.cls-4{clip-path:url(#clip-path);}.cls-5{clip-path:url(#clip-path-2);}.cls-6{fill:#00644e;}.cls-7{fill:#2d0242;}.cls-8{clip-path:url(#clip-path-3);}.cls-9{clip-path:url(#clip-path-4);}.cls-10{clip-path:url(#clip-path-5);}.cls-11{clip-path:url(#clip-path-6);}</style><clipPath id="clip-path" transform="translate(8.86)"><path class="cls-1" d="M205.56,36.81s-.16,53.09-.81,56-4.08,3.42-3.42,5.38,2.44,3.91,1.14,5.86-5.87,2.12-4.89,4.72,13.19,7.17,14.5,9.12-1.8,4.4.65,6.84,13.68,9.45,21.17,14.5,17.91,18.24,17.91,18.24,75.41-42.67,81.11-46.74,2.12-6.35-1.63-4.89-5.86,1.47-7.49.49,10.1-44.95,9.77-46.25S280,0,280,0Z"/></clipPath><clipPath id="clip-path-2" transform="translate(8.86)"><path class="cls-1" d="M340.36,425.9c-9.82,10.52-14.73,29.45-18.59,59.61s-9.11,101.67-.35,119.21,33,23.84,52.95,25.59,46.63,5.26,64.16,15.78,28.75,11.22,34.71,7.36S488,625.4,489,610.33s-6.66-28.4-12.27-28.75-11.22,4.2-24.55,1.75-12.62-12.62-23.49-12.62-21.48-5.07-21.48-5.07.44-13.52,5-23.68,3.51-30.86,4.21-40,13.67-17.54,16.83-35.77-11.22-50.14-44.88-51.54S340.36,425.9,340.36,425.9Z"/></clipPath><clipPath id="clip-path-3" transform="translate(8.86)"><path class="cls-1" d="M315.78,406.79c-24.44,3.37-87.63,5.61-110.94,13.76s-57.57,37.91-67.4,45.78-16.29,11.51-21.91,11.23-7-10.39-16.85-9.55-9.27,16.85-7.3,23.87,6.74,89.59,11.23,105,18.54,20.5,31.46,16.29,28.08-37.07,38.76-42.13,33.14-16,44.09-33.42,18.53-24.71,24.71-25,62.07-10.11,87.63-14.61,80.31-16.38,101.95-29.21C454,455.37,454.52,439.93,445,422.79c-6.5-11.65-40.44-20.5-75.55-20.22S315.78,406.79,315.78,406.79Z"/></clipPath><clipPath id="clip-path-4" transform="translate(8.86)"><path class="cls-2" d="M31.53,356.87c-8.87,1.42-17.7,7.43-20.84,14.21S-3.33,400,1,452.21s12.62,63.12,18.65,97.22S18,616.32,33.23,632s31.65,11.49,44.27-.38,4.53-36-2.26-54.64-15.45-32-17.33-72.16-3.77-68.21-8.29-95.53S41.14,378,43.78,374.2s8.85-13.94,3.58-16.39S37.46,355.92,31.53,356.87Z"/></clipPath><clipPath id="clip-path-5" transform="translate(8.86)"><polygon class="cls-1" points="455.49 297.1 487.9 387.08 528.89 408.63 607.05 368.21 598.09 330.84 556.91 247.73 455.49 297.1"/></clipPath><clipPath id="clip-path-6" transform="translate(8.86)"><path class="cls-3" d="M419.81,186.81c-6.89,1.45-14,4.81-17.49,19.38s-2,24.49,3.35,27.84a12,12,0,0,0,4.07,1.45l-3.05,15.31s9.48,5,16.33,3.5,10.2-4.22,10.2-4.22.15-13,1.61-20.56c.12-.66.25-1.28.37-1.87,3.43-4.44,5.72-10.72,7.06-17.51C444.15,200.51,437.74,183,419.81,186.81Z"/></clipPath></defs><g id="Capa_2" data-name="Capa 2"><g id="Fondo"><path class="cls-1" d="M205.56,36.81s-.16,53.09-.81,56-4.08,3.42-3.42,5.38,2.44,3.91,1.14,5.86-5.87,2.12-4.89,4.72,13.19,7.17,14.5,9.12-1.8,4.4.65,6.84,13.68,9.45,21.17,14.5,17.91,18.24,17.91,18.24,75.41-42.67,81.11-46.74,2.12-6.35-1.63-4.89-5.86,1.47-7.49.49,10.1-44.95,9.77-46.25S280,0,280,0Z" transform="translate(8.86)"/><g class="cls-4"><path class="cls-2" d="M301.64,22.26,227.11,57.5s-1.1,15.25-1.53,16.24-1.65.22-2,1.54,0,1.86-1.21,1.86-5.71-7-7.13-8.56-1.87,1.76-1.32,3.3,5.93,7.57,6.92,8.45.11,1.86-1,1.53-2.2-3-3.4-2.3-.77,2.63,1.86,5.38,7.68,7.68,11.53,9.33a34.56,34.56,0,0,0,7.68,2.19l3.4-24.91,75-35.68Z" transform="translate(8.86)"/></g><path class="cls-1" d="M195.43,66.58c1.67,1.94-13,4.58-12.89,6.41s4.42.16,5.34,1.3-11.37,4.5-13.81,7.25-.54,5.8,3.43,7.4,13.36,2.75,12.9,4.81-7.63.69-7.79,2.44,2.14,3,5.73,3.51,6.94,2,6.1,3.51-12.59,1-22.51-4.58-11.45-16.17-2.75-22.89S193.53,64.37,195.43,66.58Z" transform="translate(8.86)"/><path class="cls-1" d="M205.51,57.88s.53,2.9-.84,4.51-5,1.22-5.34,3.2,4.19,2,5.19,3.59.83,4.73.83,4.73,5.88-7.63,5.73-11S205.51,57.88,205.51,57.88Z" transform="translate(8.86)"/><path class="cls-1" d="M343.37,78.87c-1,1.77,3.69,3.08,2.69,7.92s-9.38,7.84-13.69,9.23-8.07,3.53-3.61,3.61,17.6-4.61,22.6-8.23,3-11-.38-12.53S344.52,76.87,343.37,78.87Z" transform="translate(8.86)"/><path class="cls-1" d="M332.6,72.11c-.74.55.16,3.3,2.39,3.84s2.3-1.77,1.38-2.46S334.06,71,332.6,72.11Z" transform="translate(8.86)"/><path class="cls-2" d="M280.89,92.07c.66.75-.72,2-3.34,2.83s-4,.87-3.65,1.8,3,.87,5.76.2,4.21-1.74,4.93-.87-2.94,2.92-8.15,4.3a66.33,66.33,0,0,1-20.27,1.59c-5.69-.42-9.74-1.52-9.89-2.55s.92-1.08,3.44-.87,7.15,1.39,9.31,1.08,1.7-1.85.21-1.85-5.61,0-5.61-1.29,7.87-.26,14.09-1.18S280.17,91.25,280.89,92.07Z" transform="translate(8.86)"/><path class="cls-2" d="M203.55,55.44c-.68.52.1,3.27,1.76,5.55s3.31,3.36,4.31,2.94-.55-4.12-2.56-6.17C205.54,56.21,204.55,54.68,203.55,55.44Z" transform="translate(8.86)"/><path class="cls-1" d="M436.35,229.5V228a1.93,1.93,0,0,0,1.92-1.93,2.56,2.56,0,0,0,0-.39l1.51-.31a3.33,3.33,0,0,1,.07.7A3.48,3.48,0,0,1,436.35,229.5Z" transform="translate(8.86)"/><path class="cls-3" d="M487.3,603.13a31.71,31.71,0,0,0,15.37,6.34c6.52.65,11.18,2.33,12.77,11.46s-1.49,23-8,25.34-11.64,3.35-13.32-.19-3.73-8.1-8.85-9.41a51,51,0,0,0-9.13-1.49,53.06,53.06,0,0,1,2.42-18.26C481.62,607.6,487.3,603.13,487.3,603.13Z" transform="translate(8.86)"/><path class="cls-1" d="M340.36,425.9c-9.82,10.52-14.73,29.45-18.59,59.61s-9.11,101.67-.35,119.21,33,23.84,52.95,25.59,46.63,5.26,64.16,15.78,28.75,11.22,34.71,7.36S488,625.4,489,610.33s-6.66-28.4-12.27-28.75-11.22,4.2-24.55,1.75-12.62-12.62-23.49-12.62-21.48-5.07-21.48-5.07.44-13.52,5-23.68,3.51-30.86,4.21-40,13.67-17.54,16.83-35.77-11.22-50.14-44.88-51.54S340.36,425.9,340.36,425.9Z" transform="translate(8.86)"/><g class="cls-5"><path class="cls-6" d="M312.25,552.67s21.09-25.16,39.58-42.92,74.36-55.49,106.92-55.86,32.18-24.42,32.18-24.42-72.88-51.79-113.2-38.84-52.9,11.84-60.3,37S312.25,552.67,312.25,552.67Z" transform="translate(8.86)"/></g><path class="cls-7" d="M468.51,235.22c-11.7,3-28.48,8.89-51.67,9.89s-39.16-.25-52.13,11.47-9.73,29.93-13.47,41.15S346,320.18,345,334.15s-2.5,27.18-10.48,32.92-11.47,10.22-11,15.21.5,10-4,14.22-6,7-4.49,13,28.43,24.19,76.82,30.68,53.37,10.47,66.34.75.25-39.41,1.75-45.15,10.22-15.46,10.72-23.19-3.74-20,1.5-29.19,21.7-41.15,20-63.6S480.22,232.27,468.51,235.22Z" transform="translate(8.86)"/><path class="cls-7" d="M387,246.77c-14.87,1.14-45.4,8.82-65,14.43s-40,15.13-37.88,31.06,8.72,19.44,30.47,16.14,67.34-17.74,74.75-20.35c3.51-1.23,15.51-7.66,18.24-17.43C410.61,259.73,403.45,245.5,387,246.77Z" transform="translate(8.86)"/><path class="cls-7" d="M310.27,308.4c-11.82,2.12-23.25,2-32-4.61s-5.71-8.72-14.53-17.14-8-16.23-5.51-20.64,1.8-8.22.1-13,1.3-10.42,6.41-12.12,26.36-4.11,32.77-3.11,6.51,4.81,6.91,10.52,6.72,7.42,7.72,12.83-.6,15.33-.6,15.33a45,45,0,0,1,6.61,15.13C320.39,300.78,318.08,307,310.27,308.4Z" transform="translate(8.86)"/><path class="cls-3" d="M272.66,186.63s-8.48,56-8.48,56.39,9.89,1.55,21.05.28,11.31-2.12,11.31-2.12.28-58.79.28-60.06,4.34-7.2,4.81-17.66-1.42-11.12-4.05-11.4-5.19-.28-5.19-.28-2.35-9.52-5.55-15.17-5.28-11-8.95-10-.57,6,.47,10.55,2.54,9.43,2.54,9.43-1.22-.38-3.2,1.5a8.23,8.23,0,0,0-2.08,5.09,5.4,5.4,0,0,0-4.33.57c-2.54,1.31-2,5.65-2,5.65a4.72,4.72,0,0,0-5,2.73c-1.41,3.3.09,8.29,2.73,14.13A84.16,84.16,0,0,0,272.66,186.63Z" transform="translate(8.86)"/><path class="cls-1" d="M315.78,406.79c-24.44,3.37-87.63,5.61-110.94,13.76s-57.57,37.91-67.4,45.78-16.29,11.51-21.91,11.23-7-10.39-16.85-9.55-9.27,16.85-7.3,23.87,6.74,89.59,11.23,105,18.54,20.5,31.46,16.29,28.08-37.07,38.76-42.13,33.14-16,44.09-33.42,18.53-24.71,24.71-25,62.07-10.11,87.63-14.61,80.31-16.38,101.95-29.21C454,455.37,454.52,439.93,445,422.79c-6.5-11.65-40.44-20.5-75.55-20.22S315.78,406.79,315.78,406.79Z" transform="translate(8.86)"/><g class="cls-8"><path class="cls-3" d="M125.75,557.83l-4.54-5.12c.23-.2,23.51-20.85,35.81-31.66,10.68-9.39,70.67-58.69,97.88-66.36,20.08-5.66,39.63-6.94,56.87-8.07,10.54-.69,20.49-1.34,29.71-2.87,13.34-2.23,19-5.61,24.54-8.88,4.4-2.62,9-5.33,16.79-6.93a89.91,89.91,0,0,1,18.86-1.46c7.56,0,13.52,0,18.67-3.64,8.61-6.06,9.46-13.06,9.49-13.36l6.82.63c0,.42-1,10.35-12.37,18.33-6.92,4.87-14.54,4.88-22.6,4.88a84,84,0,0,0-17.5,1.33c-6.7,1.37-10.39,3.56-14.67,6.1-5.76,3.43-12.29,7.31-26.91,9.75-9.55,1.59-19.67,2.25-30.38,2.95-17.74,1.16-36.08,2.36-55.46,7.83-10.41,2.93-28.43,13.61-52.11,30.89-18.86,13.76-36.45,28.17-43.11,34C149.25,537,126,557.63,125.75,557.83Z" transform="translate(8.86)"/><path class="cls-3" d="M138.31,577.69l-4.79-4.89c.38-.38,38.82-38,63.88-59,3.07-2.56,6-5.06,8.89-7.5,21.2-18,38-32.2,62.27-37.68,26.11-5.88,40.65-7.21,58.33-7.62,16.13-.36,26-2.83,39.18-9.78,14.93-7.87,25.52-10.94,37.77-10.94,1.8,0,3.43,0,5,0,8.84.08,12.87.12,19.58-3.09,5.35-2.56,11.23-14.93,13.68-22.13l6.49,2.2c-.75,2.19-7.53,21.47-17.22,26.11-8.14,3.89-13.58,3.84-22.59,3.75-1.5,0-3.12,0-4.89,0-11.18,0-20.55,2.76-34.58,10.16s-25.09,10.18-42.21,10.57-31.43,1.69-57,7.45c-22.69,5.11-38.87,18.84-59.35,36.22-2.89,2.45-5.85,5-8.93,7.54C176.94,539.86,138.69,577.31,138.31,577.69Z" transform="translate(8.86)"/><path class="cls-2" d="M89.19,475.57c8.29-1.69,26.75,20.54,41.45,61.24s24.09,72.52-2.26,77.93c-18.66,3.84-36.56-10.1-47.11-36.48S80.9,477.27,89.19,475.57Z" transform="translate(8.86)"/></g><path class="cls-3" d="M100.8,482.25s8.35,6.95,20,30.71a314.18,314.18,0,0,1,21.73,60.81s-10.72,7-22.24,15.21S94.4,609,94.4,609,70.59,576.7,67.52,535s17.41-61.68,17.41-61.68S91.33,471,100.8,482.25Z" transform="translate(8.86)"/><path class="cls-7" d="M34.5,360.92c-15.74-.26-21.24,6.4-26.11,18.43s-10.23,61.43,3.33,117.74S25.8,614.32,38.85,627.63s31.74,8.19,44.8,2,14.08-16.89,21.75-21.76,12.8-11.52,9.22-20S100.54,577,93.89,559s-1.8-43,2.3-54.52,6.14-28.66-.26-38.13-10.49-8.45-18.43-34.3S65.73,361.43,34.5,360.92Z" transform="translate(8.86)"/><path class="cls-2" d="M31.53,356.87c-8.87,1.42-17.7,7.43-20.84,14.21S-3.33,400,1,452.21s12.62,63.12,18.65,97.22S18,616.32,33.23,632s31.65,11.49,44.27-.38,4.53-36-2.26-54.64-15.45-32-17.33-72.16-3.77-68.21-8.29-95.53S41.14,378,43.78,374.2s8.85-13.94,3.58-16.39S37.46,355.92,31.53,356.87Z" transform="translate(8.86)"/><g class="cls-9"><path class="cls-3" d="M8.89,374.56c-7.94,2.62-21.08,21.62-17,98S9.71,627,29.14,636.53s26,6.29,33.13-15.61-10.13-60.49-15.88-75.27S31.88,499.38,34.89,478,41.19,363.88,8.89,374.56Z" transform="translate(8.86)"/></g><path class="cls-7" d="M611.67,295.72c-8.76-9.32-32.5-21.38-44.19-26.94s-34.3-14.5-49-22-27.88-15-48.23-11.92S455.66,277.5,472.9,287s59.63,24.3,75.88,31.79,38.44,7.92,50.88-1.55S611.67,295.72,611.67,295.72Z" transform="translate(8.86)"/><polygon class="cls-1" points="464.35 297.1 496.76 387.08 537.75 408.63 615.91 368.21 606.95 330.84 565.77 247.73 464.35 297.1"/><g class="cls-10"><polygon class="cls-2" points="500.76 276.89 511.82 304.35 540.04 291.76 527.07 263.93 500.76 276.89"/></g><path class="cls-7" d="M591.51,287c-6.6,0-10.84,1-14.32,7.44s0,15,2.16,18.46S577,320,577.94,326.59s6.6,10,9.52,11.25,16.76,5.09,16.76,5.09,5.61,13.16,14.16,9.93,10.53-13.14,9.21-27.46S611.29,287,591.51,287Z" transform="translate(8.86)"/><path class="cls-3" d="M584.35,338.62s1.46-6.72,6-9.44,12.35-3.64,19.79-1.09,9.63,10.89,8.9,19.43-2.18,12.17-5.63,16-29.6,24.52-32.69,27.6-10.35,11.26-16.34,13.08-8.43,1-9.14-.28-.55-3.75,3.08-5.71,7.84-6.34,7.84-6.34-6,3.21-10.42,5.26-8.63,3.83-13,4.08-5.59.34-7.09-.83a2.87,2.87,0,0,1-1.08-2.84,35.62,35.62,0,0,1-11.47,1.42c-6-.33-5.87-6.71-1.33-8.71a54.35,54.35,0,0,0,7.38-3.88s-5.25,1.25-7.13-2,.42-5.92,3.13-7.25,16.51-7.72,25-11.84A58.65,58.65,0,0,0,565.33,354s-14.05,1.17-22.27.29-10.25-8.25-5-10.13,9.63-.63,19.43-4,14-5,19.38-4.25S584.35,338.62,584.35,338.62Z" transform="translate(8.86)"/><path class="cls-7" d="M493.52,606.89s.32-2.84,2.94-3,5.36.95,7.56.63,7-2.1,10.08-1.15,8.4,8.09,8.72,18.59-.63,21.42-.74,29.61-4.3,19.32-4.93,28.67-9,16.48-12,17.43a14.62,14.62,0,0,1-9.24-.63c-2.63-1-1.89-7.46-.84-16.38s.42-20.38-1.16-25.31-1.89-10.61,1.89-12.08,9-1.26,11.24-4.83,2.31-17.95.1-23.73-6.93-5.35-8.82-5.67A18.43,18.43,0,0,1,493.52,606.89Z" transform="translate(8.86)"/><path class="cls-2" d="M508.75,603.32s6.72,2.52,9.66,9.14,3.15,18.79,2.41,30.66-2,27.62-6.19,37.91c-2.66,6.5-8.51,14.59-8.51,14.59s-8,0-10,.74-.74,2.62,2.62,3.78,8.93.1,11.55-1.58,7.35-8.5,10.19-15.85,4.83-20.8,5.35-28.46-.52-11.34,1.26-17.64,1.58-19.85-1.57-26.36-5.67-9.35-9.45-9.66S508.75,603.32,508.75,603.32Z" transform="translate(8.86)"/><path class="cls-3" d="M419.81,186.81c-6.89,1.45-14,4.81-17.49,19.38s-2,24.49,3.35,27.84a12,12,0,0,0,4.07,1.45l-3.05,15.31s9.48,5,16.33,3.5,10.2-4.22,10.2-4.22.15-13,1.61-20.56c.12-.66.25-1.28.37-1.87,3.43-4.44,5.72-10.72,7.06-17.51C444.15,200.51,437.74,183,419.81,186.81Z" transform="translate(8.86)"/><g class="cls-11"><path class="cls-7" d="M431.21,190.72s1.47,3.51,0,9.1-1.53,9.21,1.47,12.09a12,12,0,0,0,5.64,3.33s1.7.45,5.09-1.41,4.12-9.44,1.69-13.79S431.21,190.72,431.21,190.72Z" transform="translate(8.86)"/></g><path class="cls-3" d="M434,213.43s4.35-4,7.86-1.18S446.46,225,437.36,226,431,215.64,434,213.43Z" transform="translate(8.86)"/><path class="cls-1" d="M436.35,229.5a3.47,3.47,0,1,1,0-6.94v1.54a1.93,1.93,0,0,0,0,3.86Z" transform="translate(8.86)"/><path class="cls-1" d="M442.58,207.6c1-4.65,4.3-17.26-7.23-23.7a19.1,19.1,0,0,0-27.49,9.78c4.42-3.84,13.63-3.56,18.16-2.31C440.11,195.25,442.58,207.6,442.58,207.6Z" transform="translate(8.86)"/><path class="cls-1" d="M442.58,207.6S432.33,176,425.92,172.36s-24.8-3.76-28,2.56c-1.56,3.09,9.19,19.77,9.19,19.77s1.16-3.65,12-4C437.46,190,442.58,207.6,442.58,207.6Z" transform="translate(8.86)"/></g></g></svg>