<svg xmlns="http://www.w3.org/2000/svg" xmlns:xlink="http://www.w3.org/1999/xlink" viewBox="0 0 639.36 511.83"><defs><style>.cls-1{fill:#ffab00;}.cls-2{clip-path:url(#clip-path);}.cls-3{fill:#fff;}.cls-4{fill:#2d0242;}.cls-5{fill:#ff4900;}.cls-6{fill:#d3dadd;}.cls-7{clip-path:url(#clip-path-2);}</style><clipPath id="clip-path"><ellipse class="cls-1" cx="123.9" cy="77.97" rx="125.12" ry="42.86" transform="translate(-22.44 81.69) rotate(-33.64)"/></clipPath><clipPath id="clip-path-2"><path class="cls-1" d="M389.24,299.84h0a3.37,3.37,0,0,0,3.22,3.49l114.11.93L604.8,255.8l.88-7.16-92.6-9.32a8.2,8.2,0,0,0-4.38.78L391.16,296.65A3.51,3.51,0,0,0,389.24,299.84Z"/></clipPath></defs><g id="Capa_2" data-name="Capa 2"><g id="Diseño"><ellipse class="cls-1" cx="123.9" cy="77.97" rx="125.12" ry="42.86" transform="translate(-22.44 81.69) rotate(-33.64)"/><g class="cls-2"><path class="cls-3" d="M167.91,161.37c-1.34-3.74-4.82-6.75-8.71-10.45a24.53,24.53,0,0,0-7.53-5S100.2,37.36,84.19,4c-11,7-21.83,14.51-31.49,23.29,3.59,5.88,69.2,131.41,73.42,141.68a103.3,103.3,0,0,1,6.44,20.53c.67,3.58,1.11,12.89,0,16s-1.31,7.52.68,7.52,3.1-4.78,4.1-8,1.33-14.44,1.33-14.44,2.34,9.55,2.78,12.53-1.89,13.25-1.11,15.16,3.11,2,4.22-.72,2.78-13,2.89-14.8-1.22-16.35-1.22-16.35,4.11,8,5,10.74.67,14,.56,16.24.44,5.61,2.66,4.29,3.11-18.62,3-21.12-3.78-17.67-3.78-17.67,6.89,8.84,8.34,11.1,2.89,9.79,3.89,12.65,3,4.66,4.22,2.87-.67-6.33-1.33-11.46a57,57,0,0,0-5.34-16.35c-2.11-3.94-8.11-15-8.11-15a14.46,14.46,0,0,1,8.22,3.46c1.22,1,5.29,10.14,7.67,8.48C173.79,172.74,170.4,168.37,167.91,161.37Z"/></g><path class="cls-3" d="M160.78,152.11c-4.23-3.23-5.28-4.24-9.11-6.23s-8.93-18.83-20.51-43.22c-11,3.39-22.26,7.34-31.06,14.83,13.17,25.46,24.36,47.39,26,51.43a103.3,103.3,0,0,1,6.44,20.53c.67,3.58.84,12.54,0,16-.78,3.22-1.31,7.52.68,7.52s3.83-4.77,4.83-8c1.3-4.19.78-13.67.78-13.67s1.89,8.89,2.17,11.9c.43,4.7-1.46,13.1-.68,15s3.37,2,4.48-.7A48.68,48.68,0,0,0,147.68,204c.17-4.59-1.45-17.7-1.45-17.7s3.7,6.08,4.56,11.66a150.94,150.94,0,0,1,1,15.32c-.12,2.26,1.76,5.71,3.59,3.82,2.34-2.41,2.78-12.48,2.16-19.33-.52-5.76-3.87-19-3.87-19s6.69,9.43,7.59,12,3.16,9.12,4.16,12,3.48,4.4,4.7,2.61.12-6.4-.55-11.53-4.12-14.19-6.23-18.13-8-13.19-8-13.19,3.49-.2,7.83,3.25c1.21,1,5.68,10.35,8.06,8.69C173.79,172.74,171,159.89,160.78,152.11Z"/><path class="cls-4" d="M333.15,233.38c-2.87,7.09,10.85,14.41,42.38,19.34s68.76,1.8,71.9-3.13-6.38-16.45-44.51-20.89S337.63,222.33,333.15,233.38Z"/><path class="cls-4" d="M387.49,246.35l.12,53.57a11.88,11.88,0,0,0,5.92,1.92,30,30,0,0,0,5.82-.6l.56-55.85Z"/><path class="cls-4" d="M242.89,88.63c-8.68,1.72-20.14,3.24-23.29,5.32s-4.38,3.66-2.51,9.26,3.73,10.43,3.22,17.62-1.93,12.58,1.22,14.1,13.83-.14,24.39-2.07,21.23-4.36,22.65-5.25,5.47-10.44,5-19.29S269.92,87,264.71,86.76C256.86,86.34,242.89,88.63,242.89,88.63Z"/><path class="cls-4" d="M238.68,131.09l.44,18a32.77,32.77,0,0,0,7.56.47,12.39,12.39,0,0,0,4.77-1.55l.34-18.74s-1-.47-4.34-.11A67.66,67.66,0,0,0,238.68,131.09Z"/><path class="cls-4" d="M245.6,142c-9.78,2.86-33.33,12.89-38.37,36.6s3.56,96.35,15.11,131.68,37.11,57,62.23,67.07S379,384,396.12,375.87s48-33.9,12.89-55.14S369.46,318.82,349.9,283s-52-123.41-65.78-134.87S245.6,142,245.6,142Z"/><path class="cls-5" d="M281.79,132.16c16.41.17,33.36,5.36,47.84,9s43.46,9.41,55.81,12.42,21.67,10.61,20.88,18.45-7.64,16.89-24.7,17.25-70.85-7-75.45-7.72-21.11-25.33-22.79-35.94S281.79,132.16,281.79,132.16Z"/><path class="cls-5" d="M258.6,135.11c-12.3,4.76-33.62,15.11-35.33,44.24-1.08,18.45,6.13,52.51,20.55,86.56,16.81,39.64,43.62,74.25,66.7,80.28,18.05-24.9,33.31-37.63,52-47.66s43.56-12.25,43.56-12.25S378.64,249,365.16,229.79s-25-58.25-32.3-71.45-29.11-35-74.26-23.23"/><path class="cls-3" d="M258.56,134.54c-2.34,1.43-2.55,4.18.12,6.21s22.55,12.18,22.55,12.18,5.89-13.13,3-18.5-11.44-3.11-13.33-2.75S258.56,134.54,258.56,134.54Z"/><path class="cls-5" d="M385.77,132.7l-.2-.15c-1.28,10.68-8.52,20.37-18.13,23.66,6.36,4.82,11.72,9.35,15,13,9,10.17,20.89,15.8,23.92,2.77S401.94,144,385.77,132.7Z"/><path class="cls-3" d="M385.57,132.55c-16.35-11.4-61.89-35.91-61.89-35.91s-12.12-7.24-18.19,2.89,5.95,19.9,5.95,19.9,34,20.11,56,36.78C377.05,152.92,384.29,143.23,385.57,132.55Z"/><path class="cls-3" d="M325.17,99.47s-3.5-13.5-10.75-15.84c-8.52-2.75-12.66,1.93-15.6,6.43-2.58,4-5,20.87-4,25.17s4.71,6.65,9.26,6.4A50.23,50.23,0,0,0,317.72,119c3.45-1.35,8.78-7.25,8.63-12A27.58,27.58,0,0,0,325.17,99.47Z"/><path class="cls-4" d="M288.47,101.23,305,115.49a5.13,5.13,0,0,0,7.56-.91l6.09-8.21a6.07,6.07,0,0,0-1-8.19l-17.23-14a5.13,5.13,0,0,0-7.58,1.19l-5.43,8A6,6,0,0,0,288.47,101.23Z"/><path class="cls-3" d="M315.21,89.36s-3.46.51-5,2.53-3.38,8.59-6.12,9-3.38-3.53-3.38-3.53-1.33,2.86-3.84,2.52-1.8-6.15-1.8-6.15a2,2,0,0,1-2.93-.25c-1.47-1.6.26-5,.26-5s-1.93,3.06-4.14.79c-3-3.07,4.85-9.57,9.16-9.94,5.62-.47,8.56,1.53,11.7,4A45.8,45.8,0,0,1,315.21,89.36Z"/><path class="cls-3" d="M303,114.38c-.53-3.38-2.52-8.95-5.19-10.92s-3.77-.9-4.14-.06.73,6.08.68,8.62.68,6.19,3.25,7.71S303,114.38,303,114.38Z"/><path class="cls-3" d="M256.78,103.2l1.3,12.27-.51,20.15s7.89,5.37,15,4.42,9.22-7.88,9.22-7.88l-.45-24.23-23-3.1"/><path class="cls-3" d="M262.57,69.5c-5.32,3.58-9,9.07-6.34,26.74s9,24.34,21.11,25.06,15.34-13.61,14.78-27.81S287.9,68.9,281.46,66.88A21.64,21.64,0,0,0,262.57,69.5Z"/><path class="cls-1" d="M295.25,72.28s4-5.79.55-10.69-7.4-3.05-7.4-3.05-.19-10.79-8.59-10.69-9.69,4.71-9.69,4.71-6.21-4.91-12.52-.49-4.75,11.77-4.75,11.77-8.37-1.27-10.72,7c-1.76,6.16.67,9,.67,9a8.08,8.08,0,0,0-5.39,6.87c-.64,5.5,5.21,10.6,5.21,10.6s-2.47,6.48.46,9.72,5.3,2.25,5.3,2.25.27,5.3,5,6.19a7.3,7.3,0,0,0,4.57-.55l-1.35-18.31,0-.08h0v0c.16,0,3.88-.31,6.48-6.18a13.44,13.44,0,0,0,.36-10.7s5.21-.19,8.5-3.43,3.65-5.1,3.65-5.1,3,2.84,6.13,2.16a12,12,0,0,0,4.38-1.67s-.46,4.12,1.74,6.67,2.92,2,2.92,2l.64,5.89a10,10,0,0,0,6.49-6.28A6.45,6.45,0,0,0,295.25,72.28Z"/><path class="cls-3" d="M262.2,102.32c.54,3.68-1.4,7.06-4.34,7.57s-5.76-2.07-6.31-5.74,1.39-7.06,4.33-7.56S261.65,98.65,262.2,102.32Z"/><path class="cls-4" d="M236.28,294.36c-2.87,7.09,10.85,14.41,42.38,19.34s68.76,1.8,71.9-3.13-6.38-16.45-44.51-20.89S240.76,283.31,236.28,294.36Z"/><path class="cls-4" d="M290.62,307.33l.12,53.57a11.88,11.88,0,0,0,5.92,1.92,30,30,0,0,0,5.82-.6l.56-55.85Z"/><path class="cls-4" d="M310.52,346.19s24.54,7.15,45.86,23.47,25.53,37.86,25.53,37.86,42.21,4.3,73-15.64,44.75-41.71,44.75-41.71S472.24,303.24,455.14,294s-49.09-7.67-49.09-7.67-26.67,0-53.9,17.87a146.61,146.61,0,0,0-41.63,42"/><polygon class="cls-1" points="73.45 384.22 85.67 477.79 172.36 501.45 293.68 442.94 292.17 365.95 163.23 354.74 73.45 384.22"/><polyline class="cls-5" points="105.01 392.49 107.25 423.89 122.9 428.1 121.33 396.76 234.26 360.92 214.91 359.24 105.01 392.49"/><polygon class="cls-1" points="93.45 317.63 97.82 382.81 211.45 410.96 281.01 377.78 281.01 311.66 171.23 298.53 93.45 317.63"/><polygon class="cls-1" points="281.01 311.66 208.95 332.87 211.45 410.96 281.01 377.78 281.01 311.66"/><polygon class="cls-5" points="122.97 310.38 233.57 325.62 234.34 365.04 253.23 357.58 253.23 319.84 141.91 305.73 122.97 310.38"/><polygon class="cls-1" points="135.04 247.67 136.4 313.66 191.66 322.15 226.83 308.62 226.83 245.92 173.08 239.36 135.04 247.67"/><polygon class="cls-5" points="153.01 249.84 153.62 270.44 165.72 271.91 165.72 251.38 203.12 243.03 189.51 241.37 153.01 249.84"/><polygon class="cls-6" points="546.57 220.8 0 511.82 639.36 511.82 639.36 218.41 546.57 220.8"/><path class="cls-3" d="M347.93,342.1s5.77,17.43,8.65,26.34,7.94,21.5,7.94,21.5,53.55-7.94,66.71-10.07,73.38-12,73.38-12-12.8-16.07-18.39-20.91-17.13-19.76-17.13-19.76-37.86,3.29-57.33,5.42S347.93,342.1,347.93,342.1Z"/><path class="cls-3" d="M337.47,365.73S325.93,376.58,320,381.22,305.74,395,301.05,398.46s-7.93,6.2-7.93,6.2,23.26,6.77,29.93,7.55,40.39,3.1,49.58,5.23,32.82,7.74,40.57,9.1,18,2.9,18,2.9l46.33-51.12s-40.56-3.87-60-5.62S377,370.18,364,368.83,337.47,365.73,337.47,365.73Z"/><path class="cls-1" d="M389.24,299.84h0a3.37,3.37,0,0,0,3.22,3.49l114.11.93L604.8,255.8l.88-7.16-92.6-9.32a8.2,8.2,0,0,0-4.38.78L391.16,296.65A3.51,3.51,0,0,0,389.24,299.84Z"/><g class="cls-7"><path class="cls-4" d="M394.9,293.4s-8.65,5.21.11,5.9c6.89.54,111.34-.05,111.34-.05l99.33-50.61-94.89-9.54Z"/></g><path class="cls-5" d="M296.73,271.16c-1.31-14.13,3.16-33.08,17.19-37.3A43.44,43.44,0,0,1,295.3,219.4c-22.23-29.71-30.42-51.2-39.36-60-11.05-10.85-18.72-6.26-23.11-3.82-7.94,4.42-12,33.73,6.74,72.85S282.79,289.19,301,295c2.15.68,4.2,1.35,6.23,2C300.44,290.65,297.78,280.69,296.73,271.16Z"/><path class="cls-3" d="M496.93,246.82c-8.7-6.42-23.11-12.55-23.11-12.55s9.52-1.46,17.13,1.16,13.32,5,16.31,2.92-3.26-12.26-15.49-16.06-23.11-2.92-41,1.17-33.44,12.85-54.37,16.06-47.3.59-59-.87c-6.68-.84-15.55-1.5-24.33-5.11-14,4.22-18.5,23.17-17.19,37.3,1.05,9.53,3.71,19.49,10.5,25.84,15.19,4.66,28.83,7,67.45-.22,43.76-8.18,59.26-10.51,72.85-10.22s27.18,3.5,33.44,1.17,2.71-7.3,2.71-7.3,16.32,4.38,20.12,1.75-.54-10.51-.54-10.51,6.25,1.17,7.88-3.8S505.63,253.25,496.93,246.82Z"/><path class="cls-1" d="M537.24,121.18c-2.31,12.39-34.22,174-34.67,177.83s1.56,6.44,5.56,5S601,258.19,604.8,255.8s5.11-13.36,7.11-21.48,26.43-117.56,27.16-120.81c.82-3.67,0-5.23-3.54-5.19-5.56.08-81.85,1.64-88.51,2.12S538.57,114,537.24,121.18Z"/></g></g></svg>