<svg xmlns="http://www.w3.org/2000/svg" xmlns:xlink="http://www.w3.org/1999/xlink" viewBox="0 0 382.46 264.17"><defs><style>.cls-1{fill:#ffab00;}.cls-2{fill:#fff;}.cls-3{clip-path:url(#clip-path);}.cls-4{fill:#ff4900;}.cls-5{fill:#2d0242;}.cls-6{clip-path:url(#clip-path-2);}.cls-7{clip-path:url(#clip-path-3);}</style><clipPath id="clip-path"><ellipse class="cls-1" cx="248.93" cy="165.89" rx="154.98" ry="32.98" transform="translate(-49.96 153.51) rotate(-31.31)"/></clipPath><clipPath id="clip-path-2"><path class="cls-2" d="M211.71,248.15c-1.13-3.17-.81-16.75-5.77-21.3s-10.65-11-22.11-11.3-19.59-2.29-22.87-3.77S135,132.13,131.89,119.83c20.85-.22,40.89-.9,50.91-3.45C200,112,202.22,93.06,198.25,82.66S184.3,66.05,166.53,66.08c-17.39,0-59.28-1.57-70.55,2.81-15.57,6-26.91,18.82-13.19,52.14,12,29.14,46.73,108.38,46.73,108.38s3.66,9.06,9.19,13.86,9.76,4.72,19.51,4.47,14.55-3.33,17.15-2.19,4.23,8.13,6.51,12.52,4.39,5.12,5.93,4.55,1.14-5.45,1.14-5.45,3,7.32,6.34,7a4.35,4.35,0,0,0,4-3s3.65,3.25,6.82,1.78,2.28-6.66,2.28-6.66,2.11,1.79,3.9-.16S212.85,251.32,211.71,248.15Z"/></clipPath><clipPath id="clip-path-3"><path class="cls-2" d="M244.23,51.64s-5.89,17.12-5.89,31.91,6.71,26,16.71,26,18.05-14.1,20.25-22.32,7.32-30.65,7.32-30.65-10.73-3.46-19.35-4.42A151.8,151.8,0,0,0,244.23,51.64Z"/></clipPath></defs><g id="Capa_2" data-name="Capa 2"><g id="Diseño"><ellipse class="cls-1" cx="248.93" cy="165.89" rx="154.98" ry="32.98" transform="translate(-49.96 153.51) rotate(-31.31)"/><g class="cls-3"><path class="cls-2" d="M305.89,209.1c-1.52-2.56-9.56-18.41-18.63-36.57a113.79,113.79,0,0,0-17.06,5.66,46.12,46.12,0,0,0-22,19.26c9,18,17.74,34.52,20.31,37.22,5.34,5.62,15.18,10.68,30.07,3.38S309.54,215.29,305.89,209.1Z"/><path class="cls-4" d="M270.2,178.19a113.79,113.79,0,0,1,17.06-5.66c-12.8-25.63-27.66-55.86-29.14-59.81-2.53-6.74-15.18-10.11-24.45-5-12.91,7-14.61,28.66-8.43,42.43,3.2,7.13,13.26,28.05,23,47.35A46.12,46.12,0,0,1,270.2,178.19Z"/></g><path class="cls-4" d="M270.2,178.19a113.79,113.79,0,0,1,17.06-5.66c-12.8-25.63-27.66-55.86-29.14-59.81-2.53-6.74-15.18-10.11-24.45-5-12.91,7-14.61,28.66-8.43,42.43,3.2,7.13,13.26,28.05,23,47.35A46.12,46.12,0,0,1,270.2,178.19Z"/><path class="cls-5" d="M237.29,62.55s-4.69-.12-6.71,2.42-.72,7.43,1.89,8.44a7.5,7.5,0,0,0,5.34-.29Z"/><path class="cls-4" d="M282.62,56.6s2.52-21.33-14.9-23c-21.57-2-23.49,18-23.49,18s11.43,3,19.81,5S282.62,56.6,282.62,56.6Z"/><path class="cls-1" d="M257.7,51.74a155.8,155.8,0,0,1,23.55,1.13c28.42,3.67,19.07,19.4,6,20.33a146.3,146.3,0,0,1-23.49-.76Z"/><path class="cls-5" d="M16,112.35c-8.56,1.43-3.18,28.1,8.62,48.7s35.22,54.33,71.75,60.51,68.19-16.3,92.91-29.41,49.9-37.32,59.66-57.7,3.1-38.77-3.83-47.2-29.23-28.67-39.53-30S190,56.15,186.09,59.9s-4.69,6.93-4.69,6.93a207.65,207.65,0,0,0-47,20c-24,14-48.7,37.84-62.94,41.78s-16.11,2.24-22.48-3-9.55-6.75-12.74-3.19-.75,9.75,3.56,16.3S50.27,153.19,43,154.87,30,142.7,26.67,131.27,25,110.85,16,112.35Z"/><path class="cls-5" d="M55.33,76.76C48.72,75.35,45.22,88,45.78,98.86s8.62,20.79,12,19.86S52.9,103.54,54.21,95.3,61.51,78.07,55.33,76.76Z"/><path class="cls-5" d="M40.16,46.78c-5.61-.66-10.31,9.56-10.87,22.67s1.88,29.79,7.5,29.79S37,77.13,40.16,68.7,46.53,47.53,40.16,46.78Z"/><path class="cls-5" d="M6.65,55.44C1.67,55.19,0,64,0,75.23S3.2,89.49,5.21,89.81s1.44-6.32,3.92-5.44S10.9,97.67,15.06,102s5.85.32,5.45-12.18,1.84-22.27-1.12-23.31S15.3,66.82,13.7,70s-1.28,4.88-3.23,3.68C8.36,72.4,12.9,55.77,6.65,55.44Z"/><path class="cls-5" d="M29.21,31.65c4,1.05.45,6.58-2.77,11.14-1.62,2.28-5.05,5-7.69,2.4S22.14,29.81,29.21,31.65Z"/><path class="cls-5" d="M55.12,27.89C52,25.79,47,30.77,45,33.57s-.89,7.77,4.72,4.89S58.56,30.21,55.12,27.89Z"/><path class="cls-5" d="M77.71,18.75c-3,.69-3.44,4.49,0,4.33S80.52,18.11,77.71,18.75Z"/><path class="cls-5" d="M54.54,61.66c-3.09,3-.86,7.9,3.16,5.2S57.44,58.85,54.54,61.66Z"/><path class="cls-5" d="M72.83,0c-2.41.13-2.49,4.41.4,4.09S76-.16,72.83,0Z"/><path class="cls-5" d="M53.28,44c-2.08,1.24-2.43,4.81,1.1,4.16S55.68,42.55,53.28,44Z"/><path class="cls-2" d="M211.71,248.15c-1.13-3.17-.81-16.75-5.77-21.3s-10.65-11-22.11-11.3-19.59-2.29-22.87-3.77S135,132.13,131.89,119.83c20.85-.22,40.89-.9,50.91-3.45C200,112,202.22,93.06,198.25,82.66S184.3,66.05,166.53,66.08c-17.39,0-59.28-1.57-70.55,2.81-15.57,6-26.91,18.82-13.19,52.14,12,29.14,46.73,108.38,46.73,108.38s3.66,9.06,9.19,13.86,9.76,4.72,19.51,4.47,14.55-3.33,17.15-2.19,4.23,8.13,6.51,12.52,4.39,5.12,5.93,4.55,1.14-5.45,1.14-5.45,3,7.32,6.34,7a4.35,4.35,0,0,0,4-3s3.65,3.25,6.82,1.78,2.28-6.66,2.28-6.66,2.11,1.79,3.9-.16S212.85,251.32,211.71,248.15Z"/><g class="cls-6"><path class="cls-4" d="M152.27,62s12.84,11.38,14,29.91c.9,14.65-8.45,28.94-8.45,28.94s20.65,4.39,38.21-3.25,15.12-32.19,6.82-42.6-16.25-12.84-25.52-13.65S152.27,62,152.27,62Z"/></g><path class="cls-2" d="M244.23,51.64a54.57,54.57,0,0,1-6.58,15.47c-4.79,7.54-17.12,15.21-17.12,15.21s-4.93,13.69,1.1,21.77S239,111.9,239,111.9s11.1-6.57,18.9-15.34,11.92-23.69,11.92-23.69Z"/><path class="cls-2" d="M244.23,51.64s-5.89,17.12-5.89,31.91,6.71,26,16.71,26,18.05-14.1,20.25-22.32,7.32-30.65,7.32-30.65-10.73-3.46-19.35-4.42A151.8,151.8,0,0,0,244.23,51.64Z"/><g class="cls-7"><path class="cls-5" d="M268.74,78.75c-5.2.55-6.12,2.66-12,1.81s-4.09-13.86-2.87-18.38,5.25-13.69,5.25-13.69l-14.54-1.2-.32,4.35-3,10.68a12.51,12.51,0,0,0,4.66.29,60.35,60.35,0,0,1-3,13.68c-3.43,9.72-9,20.82-3.56,30.95s18.9,7,26.16.69,11-17.81,11-23S274,78.21,268.74,78.75Z"/></g><path class="cls-2" d="M246.15,57.94a7,7,0,0,0-7.4-.83c-4.38,1.92-5.07,6.72-3.15,10.82s8.22,3.29,8.22,3.29,1.59-5.16,2-7.63A35.89,35.89,0,0,0,246.15,57.94Z"/><path class="cls-5" d="M268.74,78.75c-5.2.55-6.12,2.66-12,1.81-4.49-.64-4.52-8.32-3.74-14A17,17,0,0,0,244.89,69a58.88,58.88,0,0,1-2,7.33c-3.43,9.72-9,20.82-3.56,30.95s18.9,7,26.16.69,11-17.81,11-23S274,78.21,268.74,78.75Z"/></g></g></svg>