<svg xmlns="http://www.w3.org/2000/svg" xmlns:xlink="http://www.w3.org/1999/xlink" viewBox="0 0 360.81 252.26"><defs><style>.cls-1{fill:#2d0242;}.cls-2{fill:#ffab00;}.cls-3{clip-path:url(#clip-path);}.cls-4{fill:#fff;}.cls-5{clip-path:url(#clip-path-2);}.cls-6{fill:#fb4a02;}.cls-7{fill:#ffac00;isolation:isolate;}</style><clipPath id="clip-path"><ellipse class="cls-1" cx="51.93" cy="145.61" rx="31.98" ry="94.54" transform="translate(-61.13 40.18) rotate(-27.37)"/></clipPath><clipPath id="clip-path-2"><path class="cls-2" d="M230,59.45c13.72,2.43,18.14,45,21.54,60s1.21,63.39,4.21,74A18.57,18.57,0,0,0,278,207c9.09-2.15,21-10.08,23.54-7.32s-5.71,7-8.82,10.72-2.76,11.37,10.6,9.65,23.94-9,30.68-15.72,11.46-19.19,16.68-16.74-2.71,10.88-8.32,15.56-18,12.57-21.76,18.26S320.21,232,312,234.29s-13.55-.48-25.46,6S261.24,254,240.76,251.91s-25.62-4.83-24.7-11.13-3.58-9.71-10.43-8.89-13.71,3.56-19,1.94-10.18,1-4.28,3.57,15.42,1.63,14.54,6-14.7.76-23.71-3.52S156.41,224.64,155.89,215s2.55-16.28-3-23-7.36-17.62-5.71-25.53-3.66-20.89-3.35-30.41-6.46-49-.78-58.84,29.64-14.05,50.87-17.62S221.17,57.89,230,59.45Z"/></clipPath></defs><g id="Capa_2" data-name="Capa 2"><g id="Diseño"><ellipse class="cls-1" cx="51.93" cy="145.61" rx="31.98" ry="94.54" transform="translate(-61.13 40.18) rotate(-27.37)"/><g class="cls-3"><path class="cls-4" d="M86,125C78.26,127,7,141.12,7,141.12s2.36,11.9,5,17.54,5.26,7.06,5.26,7.06,74.42-4.56,85.4-7.49,30.4-22.33,30.4-22.33-4-15.09-10.92-22-11.38-6.4-11.38-6.4S93.7,123.11,86,125Z"/></g><path class="cls-4" d="M43.77,133.77C62.5,130,82.13,126,86,125c7.72-1.93,24.8-17.53,24.8-17.53s4.48-.49,11.38,6.4,10.92,22,10.92,22-19.43,19.4-30.4,22.33c-5.8,1.55-29.34,3.55-50.24,5.1C46.62,154.57,43.28,144.16,43.77,133.77Z"/><path class="cls-2" d="M230,59.45c13.72,2.43,18.14,45,21.54,60s1.21,63.39,4.21,74A18.57,18.57,0,0,0,278,207c9.09-2.15,21-10.08,23.54-7.32s-5.71,7-8.82,10.72-2.76,11.37,10.6,9.65,23.94-9,30.68-15.72,11.46-19.19,16.68-16.74-2.71,10.88-8.32,15.56-18,12.57-21.76,18.26S320.21,232,312,234.29s-13.55-.48-25.46,6S261.24,254,240.76,251.91s-25.62-4.83-24.7-11.13-3.58-9.71-10.43-8.89-13.71,3.56-19,1.94-10.18,1-4.28,3.57,15.42,1.63,14.54,6-14.7.76-23.71-3.52S156.41,224.64,155.89,215s2.55-16.28-3-23-7.36-17.62-5.71-25.53-3.66-20.89-3.35-30.41-6.46-49-.78-58.84,29.64-14.05,50.87-17.62S221.17,57.89,230,59.45Z"/><g class="cls-5"><path class="cls-4" d="M214,57.57s-.68,14.75-17.87,18.81-25-12.66-25-12.66,7.19-4.7,20.25-7.82S214,57.57,214,57.57Z"/></g><path class="cls-4" d="M194.05,9.63c2.8,2.14,3.88,5.75,5.23,16.1s-.38,22.34-8.47,25.43-15.17,3.15-20-4S164.65,22.48,165.13,18,171,8.67,179,7.59,191.24,7.5,194.05,9.63Z"/><path class="cls-4" d="M197.8,32.8,207,60.23s-2.09,6.25-14.85,8-12.8-1.13-12.8-1.13-1.81-17.81-2.15-29.41C177,31.66,192.9,23.56,197.8,32.8Z"/><path class="cls-1" d="M189.22,10.77A11.68,11.68,0,0,0,191.07,22c4.3,5.57,9.91,4.3,9.91,4.3s.27-10.13-2.9-16.46-11.52-7.1-17.31-6.72c-9.43.61-15.3-4.6-18.35-2.73-3.59,2.19.49,5.76.49,5.76s-5.17-.58-5.59,2.94,3.17,4.72,3.17,4.72-2.58,2.25-.22,4.6A4.27,4.27,0,0,0,165,19.62a7.55,7.55,0,0,1,.68-3.81c.89-1.58,1.15-1.56,1.15-1.56s8.26-1.58,13.07-2.28S189.22,10.77,189.22,10.77Z"/><circle class="cls-4" cx="201.25" cy="30.22" r="6.04"/><path class="cls-2" d="M229,59.27c9.58.83,25.82,7.08,35.28,11.68s11.53,5,12.49,7.19-1.69,19.9-7.92,29-9.27,9.24-11.17,9.14-21-6.28-33.48-13.47S204.21,57.11,229,59.27Z"/><path class="cls-4" d="M275,78.11s-7,3.08-12.4,16-4.51,21-4.51,21,19.5,28.45,30.69,39.91S314.44,186.9,331,175.82s8.13-30.48,5.33-35.74c-3.76-7-25.73-31.45-39.89-44.34C280.29,81,275,78.11,275,78.11Z"/><polygon class="cls-6" points="288.81 96.55 295.15 155.98 254.12 173.92 204.87 160.04 193.85 102.23 246.16 85.69 288.81 96.55"/><polygon class="cls-2" points="227.77 91.51 273.24 102.59 275.57 117.96 265.68 121.29 263.04 106.55 217.25 94.83 227.77 91.51"/><path class="cls-4" d="M339.44,150.2c2.8,7.24,2.85,18.3-9.08,28s-27.39,14-47.14,17.49a121.74,121.74,0,0,1-44.07,0c-10.43-1.74-24.79-4.16-31.06-7s-7.09-6.29-4.77-6.52,6.39,1.51,10,2.7a16,16,0,0,0,6,.94s-11-5-14.88-7.37-6.93-7.66-7.65-9.32-1.13-3.52.16-4a2.44,2.44,0,0,1,1.9.18s-3.8-2.77-3-4.67,5.72.21,5.72.21a2.28,2.28,0,0,1,.06-2.9c1.16-1.73,3.64-.14,6.51.42s10.3,2.73,16.79,3.72,8.76.46,8.76.46a19.57,19.57,0,0,0-7.95-5.41c-4.55-1.41-8.94-3.31-10.51-5.05s-1-3.82,1.76-3.44,7.9,3.31,13.62,3.16,13.55.36,16.87,3.72a16.17,16.17,0,0,1,4,8s11.53-3.08,29.58-8.94S329.45,124.37,339.44,150.2Z"/><path class="cls-2" d="M155.32,68.59c-10.64,3.88-19.58,9.24-31.14,21.06s-23.13,22.74-23.13,22.74a47.65,47.65,0,0,0,9.47,21.1,50.53,50.53,0,0,0,17,13.77,141.41,141.41,0,0,1,19-13.65c10.06-5.85,11.24-7.15,19-15.37C180.85,102.13,180.25,59.49,155.32,68.59Z"/><path class="cls-7" d="M359.11,163.88c2.24.41,3,12.3-2.51,12.45S355,163.12,359.11,163.88Z"/><path class="cls-7" d="M356.52,148.39c1.88,0,2.05,4.49-.35,4.56S354.65,148.41,356.52,148.39Z"/><path class="cls-7" d="M342.22,170.56c1.26.27,1.77,5.79-1.43,10.39s-5.53,5.92-7.64,4.94,1.3-7.55,4-10.94S341,170.27,342.22,170.56Z"/><path class="cls-7" d="M326.38,199.25c1.44.76-1,6.26-4,4.69S324.74,198.38,326.38,199.25Z"/><path class="cls-7" d="M315.12,190.59c2.21,1.76-3,8-6.07,5C307.59,194.07,312.5,188.5,315.12,190.59Z"/></g></g></svg>