<svg xmlns="http://www.w3.org/2000/svg" xmlns:xlink="http://www.w3.org/1999/xlink" viewBox="0 0 396.28 352.28"><defs><style>.cls-1{fill:#01755e;}.cls-2{fill:#fb4a02;}.cls-3{fill:#2d0242;}.cls-4{clip-path:url(#clip-path);}.cls-5{clip-path:url(#clip-path-2);}.cls-6{clip-path:url(#clip-path-3);}.cls-7{fill:#fff;}.cls-8{clip-path:url(#clip-path-4);}.cls-9{clip-path:url(#clip-path-5);}.cls-10{clip-path:url(#clip-path-6);}.cls-11{fill:#00c28c;}</style><clipPath id="clip-path"><ellipse class="cls-1" cx="101.24" cy="234.8" rx="35.15" ry="139.65" transform="translate(-113.92 96.64) rotate(-33.97)"/></clipPath><clipPath id="clip-path-2"><path class="cls-2" d="M204.67,148c6.88,3,13.94,23.35,6.21,40.49s-20.83,25.7-30.74,53.76-11.6,44.86-19.33,55.78-23.52,19.83-41.16,20.84-19.11-.38-28.34-4.55c-8.17-3.7-81.9-57.45-42.06-97.1,25.12-25,28.57-28.9,49.06-62.84,0,0,16.13-46.87,42.85-39.82S204.67,148,204.67,148Z"/></clipPath><clipPath id="clip-path-3"><path class="cls-3" d="M37.28,239.6c.57,9.06,5.79,16.13,25.75,19.85s58.54,7.22,75.69,16.47,20.53,19.74,16,27.19-14,16.7-23.29,19.09-34.8.11-47.08-1.06S47.26,288.35,40.6,281.31s-9.24-27.76-8.44-31.6S37.28,239.6,37.28,239.6Z"/></clipPath><clipPath id="clip-path-4"><path class="cls-2" d="M204.67,148c6.88,3,13.94,23.35,6.21,40.49s-22,27.17-30.74,53.76C168.64,277.21,169,288,160.81,298c-2.43-18.1-3.35-31.35-32.68-54.57C93.94,216.38,57,210.13,65.34,200.86c23.7-26.34,12.48-12.56,33-46.5,0,0,16.13-46.87,42.85-39.82S204.67,148,204.67,148Z"/></clipPath><clipPath id="clip-path-5"><path class="cls-3" d="M37.28,239.6c.57,9.06,5.79,16.13,25.75,19.85s58.54,7.22,75.69,16.47,20.53,19.74,16,27.19S131.16,324,131.16,324H83L35.73,280.66l-6-33.73Z"/></clipPath><clipPath id="clip-path-6"><polygon class="cls-3" points="308.81 73.55 369.44 86.47 387.74 72.48 396.28 18.71 351.77 8.62 316.44 8.62 308.81 73.55"/></clipPath></defs><g id="Capa_2" data-name="Capa 2"><g id="Diseño"><path class="cls-3" d="M164.16,101.19C166,90.93,174,84.48,183.32,80.35a21.09,21.09,0,0,1-13.27-1.59C161.51,74.76,158,61.7,158,61.7a66.12,66.12,0,0,0-5.69,4.39,69.42,69.42,0,0,0,6.16,8.74,37.93,37.93,0,0,1-4.76-3.41,27.24,27.24,0,0,1-3.33-3.61,47,47,0,0,0-8,9.35c-.68,1.1-1.31,2.13-1.89,3.1A39.69,39.69,0,0,0,145.38,87a61.33,61.33,0,0,0,5.08,5,95,95,0,0,1-8.87-4.37A22.23,22.23,0,0,1,137.88,85c-2.06,4.33-2.93,8.22-3,14.55a50.17,50.17,0,0,0,3.7,18.55s18.6,8.57,33,11.77C165.37,122,162.88,110.78,164.16,101.19Z"/><path class="cls-3" d="M216.93,71.7c-9.32-2.94-18.9,1-26,5.54a21.26,21.26,0,0,1-20.84,1.52C161.51,74.76,158,61.7,158,61.7a66.12,66.12,0,0,0-5.69,4.39,69.42,69.42,0,0,0,6.16,8.74,37.93,37.93,0,0,1-4.76-3.41,27.24,27.24,0,0,1-3.33-3.61,47,47,0,0,0-8,9.35c-.68,1.1-1.31,2.13-1.89,3.1A39.69,39.69,0,0,0,145.38,87a61.33,61.33,0,0,0,5.08,5,95,95,0,0,1-8.87-4.37A22.23,22.23,0,0,1,137.88,85c-2.06,4.33-2.93,8.22-3,14.55a50.17,50.17,0,0,0,3.7,18.55s27,12.43,41.17,12.94,22.59-5.38,26.21-8.65,6.88-12.87,6.88-12.87,6.39-2.84,6.22-9.65-3.56-11.72,1-14.7S226.93,84,226.93,84,226.26,74.64,216.93,71.7Z"/><ellipse class="cls-1" cx="101.24" cy="234.8" rx="35.15" ry="139.65" transform="translate(-113.92 96.64) rotate(-33.97)"/><g class="cls-4"><path class="cls-2" d="M204.67,148c6.88,3,13.94,23.35,6.21,40.49s-20.83,25.7-30.74,53.76-11.6,44.86-19.33,55.78-23.52,19.83-41.16,20.84-19.11-.38-28.34-4.55c-8.17-3.7-81.9-57.45-42.06-97.1,25.12-25,28.57-28.9,49.06-62.84,0,0,16.13-46.87,42.85-39.82S204.67,148,204.67,148Z"/><g class="cls-5"><path class="cls-3" d="M37.28,239.6c.57,9.06,5.79,16.13,25.75,19.85s58.54,7.22,75.69,16.47,20.53,19.74,16,27.19-14,16.7-23.29,19.09-34.8.11-47.08-1.06S47.26,288.35,40.6,281.31s-9.24-27.76-8.44-31.6S37.28,239.6,37.28,239.6Z"/><g class="cls-6"><path class="cls-7" d="M144.47,274.23s-9.05,11.59-17.28,21.76a186.36,186.36,0,0,1-18.3,19.11s-12.2-11.69-27-26.33-27.34-39.44-27.34-39.44a127.76,127.76,0,0,1,45.54,2.44C123.84,257.66,144.47,274.23,144.47,274.23Z"/></g></g></g><path class="cls-2" d="M204.67,148c6.88,3,13.94,23.35,6.21,40.49s-22,27.17-30.74,53.76C168.64,277.21,169,288,160.81,298c-2.43-18.1-3.35-31.35-32.68-54.57C93.94,216.38,57,210.13,65.34,200.86c23.7-26.34,12.48-12.56,33-46.5,0,0,16.13-46.87,42.85-39.82S204.67,148,204.67,148Z"/><g class="cls-8"><path class="cls-3" d="M37.28,239.6c.57,9.06,5.79,16.13,25.75,19.85s58.54,7.22,75.69,16.47,20.53,19.74,16,27.19S131.16,324,131.16,324H83L35.73,280.66l-6-33.73Z"/><g class="cls-9"><path class="cls-7" d="M144.47,274.23s-9.05,11.59-17.28,21.76a186.36,186.36,0,0,1-18.3,19.11s-12.2-11.69-27-26.33-27.34-39.44-27.34-39.44a127.76,127.76,0,0,1,45.54,2.44C123.84,257.66,144.47,274.23,144.47,274.23Z"/></g></g><path class="cls-7" d="M340.63,96.19a52.94,52.94,0,0,0,9.09-4.7C355,88.16,360.48,77.26,356,74.66s-15.09-3-20.15-.2-5.21,4.63-4.56,9.11S332.92,95.58,340.63,96.19Z"/><polygon class="cls-3" points="308.81 73.55 369.44 86.47 387.74 72.48 396.28 18.71 351.77 8.62 316.44 8.62 308.81 73.55"/><g class="cls-10"><polygon class="cls-11" points="353.01 16.42 385.01 14.35 370.07 11.22 337.4 12.98 334.68 31.04 350.15 34.19 353.01 16.42"/></g><path class="cls-7" d="M331.06,75.82s-.47-8.16-1.41-12c-1.66-6.71-5.26-7.33-6.09-6.62s-.35,2.78.3,4.9a20.15,20.15,0,0,1-.12,10.81c-1.3,4.26,0,8,2.07,11.46s8.72,13.92,14.82,11.81c5.26-1.81,3.59-4.76,1.87-9.72C340.07,79.44,331.06,75.82,331.06,75.82Z"/><path class="cls-3" d="M323.12,88a6,6,0,0,1,5.76-2.83,11.9,11.9,0,0,1,9.51,5.9c1.77,3,1.3,8.27-.47,10.4a4.91,4.91,0,0,1-4.2,1.77s-4-7.91-8.56-9.8S323.12,88,323.12,88Z"/><path class="cls-2" d="M201.77,146c5.73-.46,21.76-.38,55.4-16.38S311.23,88.5,319,87.49s12.73,1.13,16.76,8.88.5,11-7.31,21.46-30.87,34.94-54.81,49.05-45.87,23.56-61.87,32.64c-10.25,5.8-13.23,8.57-13.23,8.57a38.61,38.61,0,0,1-11.09-23.7C185.74,161.83,201.77,146,201.77,146Z"/><path class="cls-2" d="M164.37,123.73c-12.7-9.14-20.45-18.81-43.67-34.29S37.28,31.67,20.61,38.37c-26.17,10.51,0,43.33,12.9,57s61.24,56,73,65c18,13.81,29.85,17.46,47.91,5C176.61,150.13,164.37,123.73,164.37,123.73Z"/><path class="cls-2" d="M24.17,37.67c-8,.11-20,7.36-22.42,14.92S-.9,66,3,72,4.9,88.75,7.29,95.18s7.94,6,11.09,9.32,2.4,14.87,11.72,17.9,19.66,4.28,33.52-4.41S79.75,88.12,74.33,81.82,57.82,74,55.81,67.84s-2.4-12.35-8.19-14S37.28,37.5,24.17,37.67Z"/><path class="cls-3" d="M59.92,86.45c-5.58,2.17-12.69,6-18,17.24s-3.48,20.9,2.49,27.44S54,136,59.15,142.3s10.59,8.76,19.93,7.51S94.49,145.09,98.14,136s8.38-26,3-34.47-14.06-7-17.33-11S72.82,81.45,59.92,86.45Z"/><path class="cls-7" d="M167.64,125.37l-.06,0Z"/><path class="cls-7" d="M218.86,125.35S208.64,119,204.47,116a28.13,28.13,0,0,1-6.49-6.55l-26.39,20.35s1.93,1.71,5.09,8.28c5.83,12.11,10.18,24.81,20.63,27,12.77,2.73,4.46-19.21,4.46-19.21Z"/><path class="cls-7" d="M217.29,125.88c9.22.44,17.53-4.95,17.79-20.16s-7.56-24-16.64-26.29-19.07,1.09-22.18,12.43,3.53,27.05,8.15,30.75S217.29,125.88,217.29,125.88Z"/><path class="cls-3" d="M216.93,71.7c-9.32-2.94-18.9,1-26,5.54-.35.23-23.53,14.21-26.73,24s-1.89,21-1.89,21,7.75,5.66,9.32,7.66a47.05,47.05,0,0,0,8.13,1.17c14.19.5,22.59-5.38,26.21-8.65s6.88-12.87,6.88-12.87,6.39-2.84,6.22-9.65-3.56-11.72,1-14.7S226.93,84,226.93,84,226.26,74.64,216.93,71.7Z"/><circle class="cls-7" cx="213.65" cy="108.24" r="6.15"/><polygon class="cls-11" points="212.81 112.86 213.65 124.2 202.31 128.49 202.31 116.98 212.81 112.86"/><path class="cls-7" d="M126.75,68.09c-5.17.38-7.81,6-8.82,10.46s-.51,12.22-2.14,16.38-6.93,12.22-6.93,12.22-3.78-32-3.53-37.17,6.42-15.88,11-26.21,8.07-21.3,7.18-25-5.16-7.06-8.57,1.13S106.34,42,104.19,47.3a49.81,49.81,0,0,1-3.52,7.43s5.29-20.41,7.93-31.5,4.16-21.26-1-23.1C104.13-1.09,101,6.85,101,6.85S100.25.29,96,1.3s-5.38,4.54-9.58,12.6C83.44,19.55,80.25,23,79.5,27.39s-4.67,24.06-5.42,27.09a22.64,22.64,0,0,1-1.89,5s-1.26-14.11-1.26-17.89,3.9-12.86,3.15-16.89-4.66-5.17-6.81-1.13S61.35,36,60.85,40.49,60.34,56.87,59,63.17s-5.8,50-3.28,62.76S66.52,145.84,80,147s27.47-10.71,33-19.15,16.13-27.47,16.26-31,0-18.78.38-22S130.15,67.84,126.75,68.09Z"/></g></g></svg>