<svg xmlns="http://www.w3.org/2000/svg" viewBox="0 0 230.38 140.7"><defs><style>.cls-1{fill:#00bf86;}.cls-2{fill:#2d0242;}.cls-3{fill:#fb4a02;}.cls-4{fill:#fff;}.cls-5{fill:none;}</style></defs><g id="Capa_2" data-name="Capa 2"><g id="Diseño"><path class="cls-1" d="M128.9,111.36a2.46,2.46,0,0,1,1.65-.08l13.22,5a4.65,4.65,0,0,1-.55.27q-12.91,4.14-25.83,8.29a5,5,0,0,1-3.29-.11c-4.52-1.54-9.06-3-13.59-4.5C103,119,125,112.57,128.9,111.36Z"/><path class="cls-2" d="M100.51,120.19c4.53,1.49,9.07,3,13.59,4.5a5,5,0,0,0,3.29.11q12.9-4.17,25.83-8.29a4.65,4.65,0,0,0,.55-.27c.63,1.18.22,2.48.41,3.72.09.58-.48.59-.84.71q-13.29,4.24-26.58,8.49A2.67,2.67,0,0,1,115,129c-4.34-1.45-8.67-2.93-13-4.32-1-.33-1.57-.76-1.46-1.91A24.84,24.84,0,0,0,100.51,120.19Z"/><path class="cls-1" d="M170.73,75.36l-10.89,4.31a2.49,2.49,0,0,0-1.59,2.3l-.37,31.47a2.51,2.51,0,0,0,2.49,2.54l50,.58a2.55,2.55,0,0,0,.95-.18l10.9-4.3a2.52,2.52,0,0,0,1.59-2.31l.36-31.47a2.51,2.51,0,0,0-2.48-2.54l-50-.58A2.64,2.64,0,0,0,170.73,75.36Z"/><rect class="cls-3" x="179.77" y="83.2" width="9.38" height="17.83" transform="translate(1.08 -2.13) rotate(0.66)"/><polyline class="cls-3" points="179.87 83.15 194.79 75.45 203.14 75.55 189.25 83.26"/><path class="cls-3" d="M5.75,34.17c.11.63.24,1.26.37,1.9.2.94.41,1.89.65,2.86.66,2.71,1.47,5.54,2.43,8.47a143.74,143.74,0,0,0,6.56,16.38c.29.62.58,1.24.88,1.85q1.7,3.48,3.5,6.74C22,75.81,24,79,26,82c.89,1.35,1.8,2.63,2.71,3.86C37.32,97.61,46,104.09,51.24,101.62c4.72-2.22,5.62-11.2,3.15-23.28-.46-2.28-1-4.67-1.75-7.14-1-3.52-2.22-7.2-3.68-11l-.38-1-.76-1.89c-.16-.4-.32-.79-.49-1.18q-1.24-3-2.66-6a136.76,136.76,0,0,0-12.73-21.8,78.84,78.84,0,0,0-7.46-8.9c-6-6.07-11.53-8.91-15.3-7.14C4.65,14.46,3.64,22.82,5.75,34.17Z"/><path class="cls-4" d="M14.81,43c0,1.51-.09,3-.13,4.53,0,2.79,0,5.58,0,8.38v5.37c0,1.41.3,6.81.37,8.1.59,2.93,1,5.9,1.81,8.78.5,1.1,1,2.2,1.48,3.29.67,1.14,1.34,2.27,2,3.41a15.27,15.27,0,0,0,12.91,4.42,28.2,28.2,0,0,0,7.89-2A266.91,266.91,0,0,0,68.15,74c.49-.27,1-.51,1.5-.76l8.7-5.37c-.4,3.55.18,6.78.56,10a9,9,0,0,1-1,5.23,32.92,32.92,0,0,1-2.77,4.59c-.78,1.27-1.68,2-3.25,1.19a7.73,7.73,0,0,0-1.78-.44,2.13,2.13,0,0,0-2.11.64c-.57.61-.3,1.33.09,2,1.05,1,2.06,2,3.16,2.93,3.08,2.58,4.06,2.56,7.13-.17V98.3A6.15,6.15,0,0,0,80.1,102c2.5,1.5,4.3-.51,6.39-1.4.15,1.53.3,2.93.44,4.34,1.48,2,3,2.28,5.28.94a31.57,31.57,0,0,0,4.31-3.69c1.37-1.59,2.77-3.15,4.1-4.78.61-.76.85-.47,1.08.23l.9,2.93c.93,3.12,2.24,6.1,3.42,9.12a20.65,20.65,0,0,1,1.62,3.7l2.48,3.7c1.65,1.72,3.41,3.24,5.9,3.59,2.11.29,2.92-.66,2.22-2.66-.35-1-.72-2-1.08-3a12.72,12.72,0,0,1-1.51-3.86,12.09,12.09,0,0,1-1.58-3.78,40,40,0,0,1-2.71-8.75,45,45,0,0,1-1.4-7.15,12.31,12.31,0,0,0,4.63.71c2.43-.26,3.28-2,1.92-4a15.59,15.59,0,0,0-1.29-1.53,37.84,37.84,0,0,1-8.9-17.17,44.43,44.43,0,0,0-6.15-15.37,11.58,11.58,0,0,0-9.27-5.58,30.68,30.68,0,0,0-9.58,1.17C75.88,51,70.45,52.32,64.93,53.26c-3.22.88-6.49,1.45-9.77,2.07l-9.26,2.1c-.81.18-.94-.26-1-.93-.11-2.2-.24-4.39-.37-6.58A135.85,135.85,0,0,0,31.94,28.36a78.84,78.84,0,0,0-7.46-8.9c-3.44-3.48-6.73-5.9-9.62-7C14.61,26.32,14.71,42.93,14.81,43Z"/><rect class="cls-5" width="230.38" height="140.7"/></g></g></svg>