<svg xmlns="http://www.w3.org/2000/svg" viewBox="0 0 230.38 140.7"><defs><style>.cls-1{fill:none;}.cls-2{fill:#01755e;}.cls-3{fill:#00bf86;}.cls-4{fill:#fafafa;}.cls-5{fill:#ffab00;}</style></defs><g id="Capa_2" data-name="Capa 2"><g id="Diseño"><rect class="cls-1" width="230.38" height="140.7"/><path class="cls-2" d="M178.35,18.57c-5,.87-10,1.78-14.18,2.29l-6.84.87-20,5.64,22.18,3.09a76.1,76.1,0,0,0,19.76-7.65,54.56,54.56,0,0,0,10.92-7.6A93.71,93.71,0,0,1,178.35,18.57Z"/><path class="cls-3" d="M176,23.8a58.22,58.22,0,0,1-6.74,3c-5.21,1.92-9.38,3.07-9.38,3.07s-3.65-.29-5.57-.52c-1.72-.21-6.17-1-6.33-1l.33-.95,6.15.74c1.7.21,4.69.45,5.3.5.66-.19,4.37-1.25,9.07-3a94.5,94.5,0,0,0,12.47-6,86.8,86.8,0,0,1-11,2.57c-5,.85-14.32,1.37-14.42,1.37l-.06-1.25c.09,0,9.31-.52,14.28-1.36,3.56-.6,12.3-2.39,12.39-2.41l3.06-.62-2.58,1.76A76.84,76.84,0,0,1,176,23.8Z"/><path class="cls-3" d="M148.54,27.91a8.93,8.93,0,0,0,5.55-1.48c2-1.37,4.23-3.63,2.6-3.66S148.54,27.91,148.54,27.91Z"/><path class="cls-2" d="M108.56,49.56s5.31-8.93,8.31-11.91A62.29,62.29,0,0,1,137,24.75c3.13-1.62,27.26-3.9,27.26-3.9s-11.62.84-20.54,13.27c-4.48,6.23-8.13,12.5-8.13,12.5Z"/><path class="cls-3" d="M156.19,21.7c-1.27.14-1.71.17-3.09.33a44.35,44.35,0,0,0-10,8c-3.43,3.92-8.33,11.67-9.37,13.33l-20.57,2.89c.59-1,1.5-2.38,2.67-4a48.81,48.81,0,0,1,9-9.41,71.26,71.26,0,0,1,16.82-9.2,8,8,0,0,0-2.13.29,77.64,77.64,0,0,0-15.43,8.2,46.49,46.49,0,0,0-9.55,9.23A48.39,48.39,0,0,0,111,46.88l-.7,1.33,24.33-3.42.19-.3c0-.1,5.71-9.21,9.4-13.43a40,40,0,0,1,9.23-7.92A26.51,26.51,0,0,1,156.19,21.7Z"/><path class="cls-3" d="M140.54,23.85c-1.8.89-3.9,2.24-1,2.73,4.58.78,11.75-2.5,13.48-3.53a18.83,18.83,0,0,1,2.43-1.3c-.14.07-3.39.44-7.1.88S140.54,23.85,140.54,23.85Z"/><path class="cls-3" d="M128.76,35.34c1.31-.08,2.4.36,2.44,1s-1,1.21-2.3,1.29-2.4-.36-2.44-1S127.45,35.42,128.76,35.34Z"/><path class="cls-3" d="M163.37,24.89c1.26-.36,2.36-.37,2.47,0s-.84.94-2.1,1.3-2.37.38-2.47,0S162.11,25.26,163.37,24.89Z"/><path class="cls-4" d="M116.83,34c-.09.31-.33.44-.54.22s.11-.4.26-.56Z"/><path class="cls-5" d="M46.47,67.58c.11.63.24,1.26.37,1.9.2.94.41,1.9.65,2.86.66,2.71,1.47,5.54,2.43,8.47a142.87,142.87,0,0,0,6.55,16.38c.3.62.59,1.24.89,1.85,1.13,2.32,2.3,4.57,3.49,6.74,1.9,3.44,3.87,6.67,5.85,9.63.9,1.35,1.8,2.63,2.71,3.87C78,131,86.7,137.51,92,135c4.73-2.22,5.63-11.2,3.16-23.28-.46-2.28-1-4.66-1.75-7.14-1-3.51-2.23-7.2-3.68-11-.13-.32-.25-.65-.38-1l-.76-1.89-.49-1.18q-1.24-3-2.67-6A135,135,0,0,0,72.65,61.77a77.78,77.78,0,0,0-7.45-8.89c-6-6.08-11.53-8.92-15.3-7.15C45.36,47.87,44.36,56.23,46.47,67.58Z"/><path class="cls-3" d="M90.39,102.5c6.51-6.84,11-14.49,9.3-24.47-1.1-2.63-1.9-5.38-3.69-7.71a23,23,0,0,0-8.4-6.87c-6-2.34-11.89-1.47-17.71.64A76.43,76.43,0,0,0,48.57,76.41c.41,1.44.86,2.91,1.35,4.4a143.6,143.6,0,0,0,6.55,16.38c.3.62.59,1.24.89,1.85,1.13,2.32,2.3,4.57,3.49,6.74,1.9,3.44,3.87,6.67,5.85,9.63q.8,1.19,1.59,2.31A61.82,61.82,0,0,0,90.39,102.5Z"/><path class="cls-4" d="M98.59,57.37c2.06-3.26,3-7,4.7-10.44,2.22-4.51,3.58-9.45,6.7-13.49a135,135,0,0,1,9.88-11.1c.29-.29.73-.44,1-.74a1.36,1.36,0,0,1,1.91-.25c.67.44.6,1.14.49,1.88a8.86,8.86,0,0,1-1.93,4.09l-4.79,6.37c-.15.16-.49.31-.26.56s.45.09.54-.22a58.56,58.56,0,0,0,10-4.13,3.87,3.87,0,0,0,.84-.13c1.26-.51,2.68-.9,3.33.6.52,1.23-.58,2.18-1.53,2.95a17.71,17.71,0,0,1-4.43,2.53c1.25.59,2.62.34,3.82.9.52.23,1.17.23,1.3.9s-.4,1.18-.89,1.58a7.87,7.87,0,0,1-5.22,1.5,2.76,2.76,0,0,0-2.85,1.63,8.31,8.31,0,0,1-.87,1.2c-2,2.55-2,2.52,1,3.13a7.7,7.7,0,0,1,4.32,2.93c.9,1.1.11,1.78-1,1.78a6.56,6.56,0,0,1-2.66-.66c-2.87-1.33-6.33.67-7,3.84a18.18,18.18,0,0,1-7.76,11.85C105.63,62.22,102.31,59.6,98.59,57.37Z"/><path class="cls-2" d="M98.59,57.37c3.72,2.23,7,4.85,8.72,9.06,1.58,3.83,1.18,5.22-2.46,8-1.68,1.27-3.44,2.41-5.17,3.61-1.09-2.63-1.89-5.38-3.68-7.71a23,23,0,0,0-8.4-6.87,28.11,28.11,0,0,1,5.06-6C94.54,55.64,96.59,56.62,98.59,57.37Z"/></g></g></svg>