<svg xmlns="http://www.w3.org/2000/svg" viewBox="0 0 230.38 140.7"><defs><style>.cls-1{fill:#fff;}.cls-2{fill:#01755e;}.cls-3{fill:#ffab00;}.cls-4{fill:#fb4a02;}.cls-5{fill:none;}</style></defs><g id="Capa_2" data-name="Capa 2"><g id="Diseño"><path class="cls-1" d="M119,83a74.33,74.33,0,0,0-.91-10.09A34,34,0,0,0,116,66.11c7.76-3.47,15-8,23-11a27.73,27.73,0,0,1,11.41-1.64c7,.38,14,.82,21.07,1.24.58,0,1.17.07,1.75.14,1.06.14,2.17.31,2.5,1.57s-.45,2.27-1.42,3a8.84,8.84,0,0,1-4.68,1.36c-.34,0-.68.06-1.56.14,1.42.74,2.41,1.24,3.38,1.77,1.23.68,2.72,1.3,2.25,3.09s-2,2-3.52,2a9.16,9.16,0,0,1-1.57-.13c-.88-.16-1.36-.15-1.38,1s-1.1,1.82-2.27,2.09c-2.3.53-4.42-.2-6.51-1-.89-.34-1.43-.4-2.08.44-.82,1.07-2,1-3.21.62a28.34,28.34,0,0,1-7.84-4.64c-.69-.52-1.25-.93-2.16-.32a33.76,33.76,0,0,0-7.47,6.37c-1.23,1.48-.9,2.45,1,2.8a20.4,20.4,0,0,0,7.34-.44c2.66-.49,5.31-.94,8-.24a8.37,8.37,0,0,1,3,1.44c.67.49,1.41,1.06,1.22,2s-1.07,1.19-1.87,1.41c-4.86,1.37-9.72,2.71-14.57,4.09a30.07,30.07,0,0,1-12.2.8C124.7,83.64,121.84,83.35,119,83Z"/><ellipse class="cls-2" cx="194" cy="58.24" rx="4.76" ry="15.55"/><ellipse class="cls-3" cx="187.97" cy="58.24" rx="3.12" ry="10.21"/><ellipse class="cls-3" cx="193.85" cy="58.24" rx="3.12" ry="10.21"/><rect class="cls-3" x="187.97" y="48.03" width="5.88" height="20.42"/><path class="cls-4" d="M57,101.65c12.33,12.54,37,11.22,44.54-9.74.66-1.85,1.23-2.17,3-1.48a12.37,12.37,0,0,0,7.44.64c4.25-1,6.34-3.9,7-8a74.33,74.33,0,0,0-.91-10.09A34,34,0,0,0,116,66.11c-3.22-4.58-6-5.71-10.91-3.92-1.94.72-3,.43-3.8-1.37a1.75,1.75,0,0,0-.18-.29c-8-11.26-24.37-14.5-35.94-7.17a30.59,30.59,0,0,0-10,10.33c-.37-.46-.67-.82-.95-1.19A35.77,35.77,0,0,0,39.14,50.75a41.91,41.91,0,0,0-10.77-2.87q.21,1.14.45,2.28c.28,1.38.6,2.78.95,4.2,1,4,2.15,8.13,3.56,12.42a211.19,211.19,0,0,0,9.62,24c.43.91.86,1.81,1.3,2.71q2.49,5.11,5.13,9.89c.66,1.2,1.33,2.38,2,3.54a30.12,30.12,0,0,0,3.73-7.39C55.85,100.37,56.41,101,57,101.65Z"/><rect class="cls-5" width="230.38" height="140.7"/></g></g></svg>